<?xml version="1.0" encoding="utf-8"?>
<svg xmlns="http://www.w3.org/2000/svg" xmlns:xlink="http://www.w3.org/1999/xlink" width="650" height="400" viewBox="0 0 2600 1600">
<defs>
  <clipPath id="clip040">
    <rect x="0" y="0" width="2600" height="1600"/>
  </clipPath>
</defs>
<path clip-path="url(#clip040)" d="
M0 1600 L2600 1600 L2600 0 L0 0  Z
  " fill="#ffffff" fill-rule="evenodd" fill-opacity="1"/>
<defs>
  <clipPath id="clip041">
    <rect x="520" y="0" width="1821" height="1600"/>
  </clipPath>
</defs>
<path clip-path="url(#clip040)" d="
M2552.76 1462.02 L2704.74 1462.02 L2704.74 62.9921 L2552.76 62.9921  Z
  " fill="#ffffff" fill-rule="evenodd" fill-opacity="1"/>
<polyline clip-path="url(#clip041)" style="stroke:#000000; stroke-linecap:butt; stroke-linejoin:round; stroke-width:2; stroke-opacity:0.1; fill:none" points="
  743.797,1080 743.797,-740 
  "/>
<polyline clip-path="url(#clip041)" style="stroke:#000000; stroke-linecap:butt; stroke-linejoin:round; stroke-width:2; stroke-opacity:0.1; fill:none" points="
  1316.12,1080 1316.12,-740 
  "/>
<polyline clip-path="url(#clip041)" style="stroke:#000000; stroke-linecap:butt; stroke-linejoin:round; stroke-width:2; stroke-opacity:0.1; fill:none" points="
  1888.45,1080 1888.45,-740 
  "/>
<polyline clip-path="url(#clip040)" style="stroke:#000000; stroke-linecap:butt; stroke-linejoin:round; stroke-width:4; stroke-opacity:1; fill:none" points="
  520,1080 2340,1080 
  "/>
<polyline clip-path="url(#clip040)" style="stroke:#000000; stroke-linecap:butt; stroke-linejoin:round; stroke-width:4; stroke-opacity:1; fill:none" points="
  743.797,1080 743.797,1055.42 
  "/>
<polyline clip-path="url(#clip040)" style="stroke:#000000; stroke-linecap:butt; stroke-linejoin:round; stroke-width:4; stroke-opacity:1; fill:none" points="
  1316.12,1080 1316.12,1055.42 
  "/>
<polyline clip-path="url(#clip040)" style="stroke:#000000; stroke-linecap:butt; stroke-linejoin:round; stroke-width:4; stroke-opacity:1; fill:none" points="
  1888.45,1080 1888.45,1055.42 
  "/>
<path clip-path="url(#clip040)" d="M709.57 1155.72 L717.209 1155.72 L717.209 1129.36 L708.899 1131.03 L708.899 1126.77 L717.162 1125.1 L721.838 1125.1 L721.838 1155.72 L729.477 1155.72 L729.477 1159.66 L709.57 1159.66 L709.57 1155.72 Z" fill="#000000" fill-rule="evenodd" fill-opacity="1" /><path clip-path="url(#clip040)" d="M748.921 1128.18 Q745.31 1128.18 743.482 1131.74 Q741.676 1135.29 741.676 1142.41 Q741.676 1149.52 743.482 1153.09 Q745.31 1156.63 748.921 1156.63 Q752.556 1156.63 754.361 1153.09 Q756.19 1149.52 756.19 1142.41 Q756.19 1135.29 754.361 1131.74 Q752.556 1128.18 748.921 1128.18 M748.921 1124.48 Q754.732 1124.48 757.787 1129.08 Q760.866 1133.66 760.866 1142.41 Q760.866 1151.14 757.787 1155.75 Q754.732 1160.33 748.921 1160.33 Q743.111 1160.33 740.033 1155.75 Q736.977 1151.14 736.977 1142.41 Q736.977 1133.66 740.033 1129.08 Q743.111 1124.48 748.921 1124.48 Z" fill="#000000" fill-rule="evenodd" fill-opacity="1" /><path clip-path="url(#clip040)" d="M765.436 1129.05 L778.696 1129.05 L778.696 1132.25 L760.866 1132.25 L760.866 1129.05 Q763.029 1126.81 766.753 1123.05 Q770.495 1119.27 771.455 1118.18 Q773.279 1116.13 773.994 1114.72 Q774.727 1113.29 774.727 1111.92 Q774.727 1109.68 773.147 1108.27 Q771.586 1106.86 769.066 1106.86 Q767.279 1106.86 765.286 1107.48 Q763.311 1108.1 761.054 1109.36 L761.054 1105.52 Q763.348 1104.6 765.342 1104.13 Q767.336 1103.66 768.991 1103.66 Q773.354 1103.66 775.95 1105.84 Q778.545 1108.03 778.545 1111.67 Q778.545 1113.4 777.887 1114.97 Q777.247 1116.51 775.536 1118.61 Q775.066 1119.16 772.545 1121.77 Q770.025 1124.37 765.436 1129.05 Z" fill="#000000" fill-rule="evenodd" fill-opacity="1" /><path clip-path="url(#clip040)" d="M1281.57 1155.72 L1289.21 1155.72 L1289.21 1129.36 L1280.9 1131.03 L1280.9 1126.77 L1289.16 1125.1 L1293.84 1125.1 L1293.84 1155.72 L1301.48 1155.72 L1301.48 1159.66 L1281.57 1159.66 L1281.57 1155.72 Z" fill="#000000" fill-rule="evenodd" fill-opacity="1" /><path clip-path="url(#clip040)" d="M1320.92 1128.18 Q1317.31 1128.18 1315.48 1131.74 Q1313.67 1135.29 1313.67 1142.41 Q1313.67 1149.52 1315.48 1153.09 Q1317.31 1156.63 1320.92 1156.63 Q1324.55 1156.63 1326.36 1153.09 Q1328.19 1149.52 1328.19 1142.41 Q1328.19 1135.29 1326.36 1131.74 Q1324.55 1128.18 1320.92 1128.18 M1320.92 1124.48 Q1326.73 1124.48 1329.79 1129.08 Q1332.86 1133.66 1332.86 1142.41 Q1332.86 1151.14 1329.79 1155.75 Q1326.73 1160.33 1320.92 1160.33 Q1315.11 1160.33 1312.03 1155.75 Q1308.97 1151.14 1308.97 1142.41 Q1308.97 1133.66 1312.03 1129.08 Q1315.11 1124.48 1320.92 1124.48 Z" fill="#000000" fill-rule="evenodd" fill-opacity="1" /><path clip-path="url(#clip040)" d="M1345.56 1117.11 Q1348.29 1117.69 1349.81 1119.54 Q1351.35 1121.38 1351.35 1124.09 Q1351.35 1128.24 1348.49 1130.52 Q1345.63 1132.8 1340.37 1132.8 Q1338.6 1132.8 1336.72 1132.44 Q1334.86 1132.1 1332.86 1131.4 L1332.86 1127.74 Q1334.44 1128.66 1336.32 1129.13 Q1338.21 1129.6 1340.26 1129.6 Q1343.83 1129.6 1345.69 1128.19 Q1347.57 1126.78 1347.57 1124.09 Q1347.57 1121.6 1345.82 1120.21 Q1344.09 1118.8 1340.99 1118.8 L1337.72 1118.8 L1337.72 1115.68 L1341.14 1115.68 Q1343.94 1115.68 1345.43 1114.57 Q1346.91 1113.44 1346.91 1111.34 Q1346.91 1109.17 1345.37 1108.03 Q1343.85 1106.86 1340.99 1106.86 Q1339.43 1106.86 1337.64 1107.2 Q1335.85 1107.54 1333.71 1108.25 L1333.71 1104.87 Q1335.87 1104.26 1337.75 1103.96 Q1339.65 1103.66 1341.33 1103.66 Q1345.65 1103.66 1348.17 1105.64 Q1350.69 1107.59 1350.69 1110.94 Q1350.69 1113.27 1349.36 1114.89 Q1348.02 1116.49 1345.56 1117.11 Z" fill="#000000" fill-rule="evenodd" fill-opacity="1" /><path clip-path="url(#clip040)" d="M1852.91 1155.72 L1860.55 1155.72 L1860.55 1129.36 L1852.24 1131.03 L1852.24 1126.77 L1860.5 1125.1 L1865.18 1125.1 L1865.18 1155.72 L1872.81 1155.72 L1872.81 1159.66 L1852.91 1159.66 L1852.91 1155.72 Z" fill="#000000" fill-rule="evenodd" fill-opacity="1" /><path clip-path="url(#clip040)" d="M1892.26 1128.18 Q1888.65 1128.18 1886.82 1131.74 Q1885.01 1135.29 1885.01 1142.41 Q1885.01 1149.52 1886.82 1153.09 Q1888.65 1156.63 1892.26 1156.63 Q1895.89 1156.63 1897.7 1153.09 Q1899.53 1149.52 1899.53 1142.41 Q1899.53 1135.29 1897.7 1131.74 Q1895.89 1128.18 1892.26 1128.18 M1892.26 1124.48 Q1898.07 1124.48 1901.12 1129.08 Q1904.2 1133.66 1904.2 1142.41 Q1904.2 1151.14 1901.12 1155.75 Q1898.07 1160.33 1892.26 1160.33 Q1886.45 1160.33 1883.37 1155.75 Q1880.31 1151.14 1880.31 1142.41 Q1880.31 1133.66 1883.37 1129.08 Q1886.45 1124.48 1892.26 1124.48 Z" fill="#000000" fill-rule="evenodd" fill-opacity="1" /><path clip-path="url(#clip040)" d="M1916.88 1107.48 L1907.29 1122.47 L1916.88 1122.47 L1916.88 1107.48 M1915.88 1104.17 L1920.66 1104.17 L1920.66 1122.47 L1924.67 1122.47 L1924.67 1125.63 L1920.66 1125.63 L1920.66 1132.25 L1916.88 1132.25 L1916.88 1125.63 L1904.2 1125.63 L1904.2 1121.96 L1915.88 1104.17 Z" fill="#000000" fill-rule="evenodd" fill-opacity="1" /><path clip-path="url(#clip040)" d="M2240.74 1580.79 L2249.4 1580.79 L2270.47 1620.54 L2270.47 1580.79 L2276.71 1580.79 L2276.71 1628.31 L2268.05 1628.31 L2246.98 1588.55 L2246.98 1628.31 L2240.74 1628.31 L2240.74 1580.79 Z" fill="#000000" fill-rule="evenodd" fill-opacity="1" /><path clip-path="url(#clip040)" d="M2288.64 1614.24 L2288.64 1592.66 L2294.5 1592.66 L2294.5 1614.02 Q2294.5 1619.08 2296.47 1621.62 Q2298.45 1624.14 2302.39 1624.14 Q2307.14 1624.14 2309.87 1621.12 Q2312.64 1618.09 2312.64 1612.87 L2312.64 1592.66 L2318.5 1592.66 L2318.5 1628.31 L2312.64 1628.31 L2312.64 1622.83 Q2310.51 1626.08 2307.68 1627.67 Q2304.88 1629.23 2301.15 1629.23 Q2295.01 1629.23 2291.83 1625.41 Q2288.64 1621.59 2288.64 1614.24 M2303.38 1591.8 L2303.38 1591.8 Z" fill="#000000" fill-rule="evenodd" fill-opacity="1" /><path clip-path="url(#clip040)" d="M2358.32 1599.5 Q2360.51 1595.56 2363.57 1593.68 Q2366.62 1591.8 2370.76 1591.8 Q2376.33 1591.8 2379.36 1595.72 Q2382.38 1599.6 2382.38 1606.79 L2382.38 1628.31 L2376.49 1628.31 L2376.49 1606.98 Q2376.49 1601.86 2374.68 1599.38 Q2372.86 1596.89 2369.14 1596.89 Q2364.59 1596.89 2361.95 1599.92 Q2359.3 1602.94 2359.3 1608.16 L2359.3 1628.31 L2353.42 1628.31 L2353.42 1606.98 Q2353.42 1601.83 2351.6 1599.38 Q2349.79 1596.89 2346 1596.89 Q2341.51 1596.89 2338.87 1599.95 Q2336.23 1602.97 2336.23 1608.16 L2336.23 1628.31 L2330.34 1628.31 L2330.34 1592.66 L2336.23 1592.66 L2336.23 1598.2 Q2338.23 1594.92 2341.03 1593.36 Q2343.83 1591.8 2347.69 1591.8 Q2351.57 1591.8 2354.27 1593.77 Q2357.01 1595.75 2358.32 1599.5 Z" fill="#000000" fill-rule="evenodd" fill-opacity="1" /><path clip-path="url(#clip040)" d="M2419.65 1610.52 Q2419.65 1604.06 2416.98 1600.4 Q2414.34 1596.7 2409.69 1596.7 Q2405.04 1596.7 2402.37 1600.4 Q2399.73 1604.06 2399.73 1610.52 Q2399.73 1616.98 2402.37 1620.67 Q2405.04 1624.33 2409.69 1624.33 Q2414.34 1624.33 2416.98 1620.67 Q2419.65 1616.98 2419.65 1610.52 M2399.73 1598.07 Q2401.57 1594.89 2404.37 1593.36 Q2407.21 1591.8 2411.12 1591.8 Q2417.61 1591.8 2421.66 1596.96 Q2425.73 1602.11 2425.73 1610.52 Q2425.73 1618.92 2421.66 1624.08 Q2417.61 1629.23 2411.12 1629.23 Q2407.21 1629.23 2404.37 1627.7 Q2401.57 1626.14 2399.73 1622.96 L2399.73 1628.31 L2393.84 1628.31 L2393.84 1578.78 L2399.73 1578.78 L2399.73 1598.07 Z" fill="#000000" fill-rule="evenodd" fill-opacity="1" /><path clip-path="url(#clip040)" d="M2465.93 1609.02 L2465.93 1611.89 L2439 1611.89 Q2439.38 1617.93 2442.63 1621.12 Q2445.91 1624.27 2451.73 1624.27 Q2455.11 1624.27 2458.26 1623.44 Q2461.44 1622.61 2464.56 1620.96 L2464.56 1626.49 Q2461.41 1627.83 2458.1 1628.53 Q2454.79 1629.23 2451.38 1629.23 Q2442.85 1629.23 2437.86 1624.27 Q2432.89 1619.3 2432.89 1610.83 Q2432.89 1602.08 2437.6 1596.96 Q2442.34 1591.8 2450.37 1591.8 Q2457.56 1591.8 2461.73 1596.45 Q2465.93 1601.06 2465.93 1609.02 M2460.07 1607.3 Q2460.01 1602.5 2457.37 1599.63 Q2454.76 1596.77 2450.43 1596.77 Q2445.53 1596.77 2442.57 1599.54 Q2439.64 1602.3 2439.19 1607.33 L2460.07 1607.3 Z" fill="#000000" fill-rule="evenodd" fill-opacity="1" /><path clip-path="url(#clip040)" d="M2496.2 1598.14 Q2495.21 1597.56 2494.03 1597.31 Q2492.89 1597.02 2491.49 1597.02 Q2486.52 1597.02 2483.85 1600.27 Q2481.21 1603.48 2481.21 1609.53 L2481.21 1628.31 L2475.32 1628.31 L2475.32 1592.66 L2481.21 1592.66 L2481.21 1598.2 Q2483.05 1594.95 2486.01 1593.39 Q2488.97 1591.8 2493.21 1591.8 Q2493.81 1591.8 2494.54 1591.9 Q2495.28 1591.96 2496.17 1592.12 L2496.2 1598.14 Z" fill="#000000" fill-rule="evenodd" fill-opacity="1" /><path clip-path="url(#clip040)" d="M2536.87 1596.77 Q2532.16 1596.77 2529.43 1600.46 Q2526.69 1604.12 2526.69 1610.52 Q2526.69 1616.91 2529.4 1620.61 Q2532.13 1624.27 2536.87 1624.27 Q2541.55 1624.27 2544.29 1620.57 Q2547.03 1616.88 2547.03 1610.52 Q2547.03 1604.18 2544.29 1600.49 Q2541.55 1596.77 2536.87 1596.77 M2536.87 1591.8 Q2544.51 1591.8 2548.87 1596.77 Q2553.23 1601.73 2553.23 1610.52 Q2553.23 1619.27 2548.87 1624.27 Q2544.51 1629.23 2536.87 1629.23 Q2529.2 1629.23 2524.84 1624.27 Q2520.52 1619.27 2520.52 1610.52 Q2520.52 1601.73 2524.84 1596.77 Q2529.2 1591.8 2536.87 1591.8 Z" fill="#000000" fill-rule="evenodd" fill-opacity="1" /><path clip-path="url(#clip040)" d="M2580.99 1578.78 L2580.99 1583.65 L2575.39 1583.65 Q2572.24 1583.65 2571 1584.93 Q2569.79 1586.2 2569.79 1589.51 L2569.79 1592.66 L2579.43 1592.66 L2579.43 1597.21 L2569.79 1597.21 L2569.79 1628.31 L2563.9 1628.31 L2563.9 1597.21 L2558.3 1597.21 L2558.3 1592.66 L2563.9 1592.66 L2563.9 1590.18 Q2563.9 1584.23 2566.67 1581.52 Q2569.44 1578.78 2575.45 1578.78 L2580.99 1578.78 Z" fill="#000000" fill-rule="evenodd" fill-opacity="1" /><path clip-path="url(#clip040)" d="M2620.42 1596.77 Q2615.71 1596.77 2612.98 1600.46 Q2610.24 1604.12 2610.24 1610.52 Q2610.24 1616.91 2612.95 1620.61 Q2615.68 1624.27 2620.42 1624.27 Q2625.1 1624.27 2627.84 1620.57 Q2630.58 1616.88 2630.58 1610.52 Q2630.58 1604.18 2627.84 1600.49 Q2625.1 1596.77 2620.42 1596.77 M2620.42 1591.8 Q2628.06 1591.8 2632.42 1596.77 Q2636.78 1601.73 2636.78 1610.52 Q2636.78 1619.27 2632.42 1624.27 Q2628.06 1629.23 2620.42 1629.23 Q2612.75 1629.23 2608.39 1624.27 Q2604.07 1619.27 2604.07 1610.52 Q2604.07 1601.73 2608.39 1596.77 Q2612.75 1591.8 2620.42 1591.8 Z" fill="#000000" fill-rule="evenodd" fill-opacity="1" /><path clip-path="url(#clip040)" d="M2672.08 1610.52 Q2672.08 1604.06 2669.41 1600.4 Q2666.77 1596.7 2662.12 1596.7 Q2657.47 1596.7 2654.8 1600.4 Q2652.16 1604.06 2652.16 1610.52 Q2652.16 1616.98 2654.8 1620.67 Q2657.47 1624.33 2662.12 1624.33 Q2666.77 1624.33 2669.41 1620.67 Q2672.08 1616.98 2672.08 1610.52 M2652.16 1598.07 Q2654 1594.89 2656.8 1593.36 Q2659.64 1591.8 2663.55 1591.8 Q2670.05 1591.8 2674.09 1596.96 Q2678.16 1602.11 2678.16 1610.52 Q2678.16 1618.92 2674.09 1624.08 Q2670.05 1629.23 2663.55 1629.23 Q2659.64 1629.23 2656.8 1627.7 Q2654 1626.14 2652.16 1622.96 L2652.16 1628.31 L2646.27 1628.31 L2646.27 1578.78 L2652.16 1578.78 L2652.16 1598.07 Z" fill="#000000" fill-rule="evenodd" fill-opacity="1" /><path clip-path="url(#clip040)" d="M2710.6 1593.71 L2710.6 1599.25 Q2708.11 1597.98 2705.44 1597.34 Q2702.77 1596.7 2699.9 1596.7 Q2695.54 1596.7 2693.34 1598.04 Q2691.18 1599.38 2691.18 1602.05 Q2691.18 1604.09 2692.74 1605.26 Q2694.3 1606.41 2699.01 1607.46 L2701.01 1607.91 Q2707.25 1609.24 2709.86 1611.69 Q2712.5 1614.11 2712.5 1618.47 Q2712.5 1623.44 2708.56 1626.34 Q2704.64 1629.23 2697.77 1629.23 Q2694.9 1629.23 2691.78 1628.66 Q2688.7 1628.12 2685.26 1627 L2685.26 1620.96 Q2688.51 1622.64 2691.66 1623.5 Q2694.81 1624.33 2697.9 1624.33 Q2702.03 1624.33 2704.26 1622.93 Q2706.49 1621.5 2706.49 1618.92 Q2706.49 1616.53 2704.87 1615.26 Q2703.27 1613.99 2697.83 1612.81 L2695.79 1612.33 Q2690.35 1611.19 2687.93 1608.83 Q2685.51 1606.44 2685.51 1602.3 Q2685.51 1597.28 2689.08 1594.54 Q2692.64 1591.8 2699.2 1591.8 Q2702.45 1591.8 2705.31 1592.28 Q2708.18 1592.76 2710.6 1593.71 Z" fill="#000000" fill-rule="evenodd" fill-opacity="1" /><path clip-path="url(#clip040)" d="M2752.32 1609.02 L2752.32 1611.89 L2725.4 1611.89 Q2725.78 1617.93 2729.02 1621.12 Q2732.3 1624.27 2738.13 1624.27 Q2741.5 1624.27 2744.65 1623.44 Q2747.83 1622.61 2750.95 1620.96 L2750.95 1626.49 Q2747.8 1627.83 2744.49 1628.53 Q2741.18 1629.23 2737.78 1629.23 Q2729.25 1629.23 2724.25 1624.27 Q2719.28 1619.3 2719.28 1610.83 Q2719.28 1602.08 2723.99 1596.96 Q2728.74 1591.8 2736.76 1591.8 Q2743.95 1591.8 2748.12 1596.45 Q2752.32 1601.06 2752.32 1609.02 M2746.47 1607.3 Q2746.4 1602.5 2743.76 1599.63 Q2741.15 1596.77 2736.82 1596.77 Q2731.92 1596.77 2728.96 1599.54 Q2726.03 1602.3 2725.59 1607.33 L2746.47 1607.3 Z" fill="#000000" fill-rule="evenodd" fill-opacity="1" /><path clip-path="url(#clip040)" d="M2782.59 1598.14 Q2781.6 1597.56 2780.43 1597.31 Q2779.28 1597.02 2777.88 1597.02 Q2772.92 1597.02 2770.24 1600.27 Q2767.6 1603.48 2767.6 1609.53 L2767.6 1628.31 L2761.71 1628.31 L2761.71 1592.66 L2767.6 1592.66 L2767.6 1598.2 Q2769.45 1594.95 2772.41 1593.39 Q2775.37 1591.8 2779.6 1591.8 Q2780.2 1591.8 2780.94 1591.9 Q2781.67 1591.96 2782.56 1592.12 L2782.59 1598.14 Z" fill="#000000" fill-rule="evenodd" fill-opacity="1" /><path clip-path="url(#clip040)" d="M2784.53 1592.66 L2790.74 1592.66 L2801.88 1622.58 L2813.02 1592.66 L2819.23 1592.66 L2805.86 1628.31 L2797.9 1628.31 L2784.53 1592.66 Z" fill="#000000" fill-rule="evenodd" fill-opacity="1" /><path clip-path="url(#clip040)" d="M2843.51 1610.39 Q2836.41 1610.39 2833.68 1612.01 Q2830.94 1613.64 2830.94 1617.55 Q2830.94 1620.67 2832.98 1622.52 Q2835.04 1624.33 2838.58 1624.33 Q2843.45 1624.33 2846.38 1620.89 Q2849.34 1617.42 2849.34 1611.69 L2849.34 1610.39 L2843.51 1610.39 M2855.19 1607.97 L2855.19 1628.31 L2849.34 1628.31 L2849.34 1622.9 Q2847.33 1626.14 2844.34 1627.7 Q2841.35 1629.23 2837.02 1629.23 Q2831.54 1629.23 2828.3 1626.18 Q2825.08 1623.09 2825.08 1617.93 Q2825.08 1611.92 2829.09 1608.86 Q2833.13 1605.81 2841.12 1605.81 L2849.34 1605.81 L2849.34 1605.23 Q2849.34 1601.19 2846.66 1598.99 Q2844.02 1596.77 2839.21 1596.77 Q2836.16 1596.77 2833.26 1597.5 Q2830.37 1598.23 2827.69 1599.69 L2827.69 1594.28 Q2830.91 1593.04 2833.93 1592.44 Q2836.95 1591.8 2839.82 1591.8 Q2847.55 1591.8 2851.37 1595.81 Q2855.19 1599.82 2855.19 1607.97 Z" fill="#000000" fill-rule="evenodd" fill-opacity="1" /><path clip-path="url(#clip040)" d="M2873.05 1582.54 L2873.05 1592.66 L2885.11 1592.66 L2885.11 1597.21 L2873.05 1597.21 L2873.05 1616.56 Q2873.05 1620.92 2874.23 1622.17 Q2875.44 1623.41 2879.1 1623.41 L2885.11 1623.41 L2885.11 1628.31 L2879.1 1628.31 Q2872.32 1628.31 2869.74 1625.79 Q2867.16 1623.25 2867.16 1616.56 L2867.16 1597.21 L2862.86 1597.21 L2862.86 1592.66 L2867.16 1592.66 L2867.16 1582.54 L2873.05 1582.54 Z" fill="#000000" fill-rule="evenodd" fill-opacity="1" /><path clip-path="url(#clip040)" d="M2892.81 1592.66 L2898.67 1592.66 L2898.67 1628.31 L2892.81 1628.31 L2892.81 1592.66 M2892.81 1578.78 L2898.67 1578.78 L2898.67 1586.2 L2892.81 1586.2 L2892.81 1578.78 Z" fill="#000000" fill-rule="evenodd" fill-opacity="1" /><path clip-path="url(#clip040)" d="M2924.74 1596.77 Q2920.03 1596.77 2917.29 1600.46 Q2914.55 1604.12 2914.55 1610.52 Q2914.55 1616.91 2917.26 1620.61 Q2920 1624.27 2924.74 1624.27 Q2929.42 1624.27 2932.15 1620.57 Q2934.89 1616.88 2934.89 1610.52 Q2934.89 1604.18 2932.15 1600.49 Q2929.42 1596.77 2924.74 1596.77 M2924.74 1591.8 Q2932.38 1591.8 2936.74 1596.77 Q2941.1 1601.73 2941.1 1610.52 Q2941.1 1619.27 2936.74 1624.27 Q2932.38 1629.23 2924.74 1629.23 Q2917.07 1629.23 2912.71 1624.27 Q2908.38 1619.27 2908.38 1610.52 Q2908.38 1601.73 2912.71 1596.77 Q2917.07 1591.8 2924.74 1591.8 Z" fill="#000000" fill-rule="evenodd" fill-opacity="1" /><path clip-path="url(#clip040)" d="M2980.44 1606.79 L2980.44 1628.31 L2974.58 1628.31 L2974.58 1606.98 Q2974.58 1601.92 2972.61 1599.41 Q2970.63 1596.89 2966.69 1596.89 Q2961.95 1596.89 2959.21 1599.92 Q2956.47 1602.94 2956.47 1608.16 L2956.47 1628.31 L2950.58 1628.31 L2950.58 1592.66 L2956.47 1592.66 L2956.47 1598.2 Q2958.57 1594.98 2961.4 1593.39 Q2964.27 1591.8 2967.99 1591.8 Q2974.14 1591.8 2977.29 1595.62 Q2980.44 1599.41 2980.44 1606.79 Z" fill="#000000" fill-rule="evenodd" fill-opacity="1" /><path clip-path="url(#clip040)" d="M3014.84 1593.71 L3014.84 1599.25 Q3012.36 1597.98 3009.69 1597.34 Q3007.01 1596.7 3004.15 1596.7 Q2999.79 1596.7 2997.59 1598.04 Q2995.43 1599.38 2995.43 1602.05 Q2995.43 1604.09 2996.99 1605.26 Q2998.55 1606.41 3003.26 1607.46 L3005.26 1607.91 Q3011.5 1609.24 3014.11 1611.69 Q3016.75 1614.11 3016.75 1618.47 Q3016.75 1623.44 3012.81 1626.34 Q3008.89 1629.23 3002.02 1629.23 Q2999.15 1629.23 2996.03 1628.66 Q2992.95 1628.12 2989.51 1627 L2989.51 1620.96 Q2992.76 1622.64 2995.91 1623.5 Q2999.06 1624.33 3002.14 1624.33 Q3006.28 1624.33 3008.51 1622.93 Q3010.74 1621.5 3010.74 1618.92 Q3010.74 1616.53 3009.11 1615.26 Q3007.52 1613.99 3002.08 1612.81 L3000.04 1612.33 Q2994.6 1611.19 2992.18 1608.83 Q2989.76 1606.44 2989.76 1602.3 Q2989.76 1597.28 2993.33 1594.54 Q2996.89 1591.8 3003.45 1591.8 Q3006.7 1591.8 3009.56 1592.28 Q3012.43 1592.76 3014.84 1593.71 Z" fill="#000000" fill-rule="evenodd" fill-opacity="1" /><polyline clip-path="url(#clip041)" style="stroke:#000000; stroke-linecap:butt; stroke-linejoin:round; stroke-width:2; stroke-opacity:0.1; fill:none" points="
  520,697.658 2340,697.658 
  "/>
<polyline clip-path="url(#clip041)" style="stroke:#000000; stroke-linecap:butt; stroke-linejoin:round; stroke-width:2; stroke-opacity:0.1; fill:none" points="
  520,-101.05 2340,-101.05 
  "/>
<polyline clip-path="url(#clip040)" style="stroke:#000000; stroke-linecap:butt; stroke-linejoin:round; stroke-width:4; stroke-opacity:1; fill:none" points="
  520,1080 520,-740 
  "/>
<polyline clip-path="url(#clip040)" style="stroke:#000000; stroke-linecap:butt; stroke-linejoin:round; stroke-width:4; stroke-opacity:1; fill:none" points="
  520,697.658 293.702,697.658 
  "/>
<polyline clip-path="url(#clip040)" style="stroke:#000000; stroke-linecap:butt; stroke-linejoin:round; stroke-width:4; stroke-opacity:1; fill:none" points="
  520,-101.05 293.702,-101.05 
  "/>
<path clip-path="url(#clip040)" d="M410.294 717.45 L417.933 717.45 L417.933 691.085 L409.623 692.751 L409.623 688.492 L417.887 686.826 L422.563 686.826 L422.563 717.45 L430.202 717.45 L430.202 721.386 L410.294 721.386 L410.294 717.45 Z" fill="#000000" fill-rule="evenodd" fill-opacity="1" /><path clip-path="url(#clip040)" d="M449.646 689.904 Q446.035 689.904 444.206 693.469 Q442.401 697.011 442.401 704.14 Q442.401 711.247 444.206 714.812 Q446.035 718.353 449.646 718.353 Q453.28 718.353 455.086 714.812 Q456.914 711.247 456.914 704.14 Q456.914 697.011 455.086 693.469 Q453.28 689.904 449.646 689.904 M449.646 686.201 Q455.456 686.201 458.512 690.807 Q461.59 695.39 461.59 704.14 Q461.59 712.867 458.512 717.474 Q455.456 722.057 449.646 722.057 Q443.836 722.057 440.757 717.474 Q437.702 712.867 437.702 704.14 Q437.702 695.39 440.757 690.807 Q443.836 686.201 449.646 686.201 Z" fill="#000000" fill-rule="evenodd" fill-opacity="1" /><path clip-path="url(#clip040)" d="M471.295 668.397 Q468.361 668.397 466.875 671.293 Q465.408 674.171 465.408 679.963 Q465.408 685.737 466.875 688.634 Q468.361 691.511 471.295 691.511 Q474.248 691.511 475.715 688.634 Q477.201 685.737 477.201 679.963 Q477.201 674.171 475.715 671.293 Q474.248 668.397 471.295 668.397 M471.295 665.387 Q476.016 665.387 478.499 669.13 Q481 672.854 481 679.963 Q481 687.054 478.499 690.797 Q476.016 694.521 471.295 694.521 Q466.574 694.521 464.073 690.797 Q461.59 687.054 461.59 679.963 Q461.59 672.854 464.073 669.13 Q466.574 665.387 471.295 665.387 Z" fill="#000000" fill-rule="evenodd" fill-opacity="1" /><path clip-path="url(#clip040)" d="M411.874 -81.2572 L419.513 -81.2572 L419.513 -107.623 L411.203 -105.956 L411.203 -110.215 L419.467 -111.882 L424.143 -111.882 L424.143 -81.2572 L431.782 -81.2572 L431.782 -77.322 L411.874 -77.322 L411.874 -81.2572 Z" fill="#000000" fill-rule="evenodd" fill-opacity="1" /><path clip-path="url(#clip040)" d="M451.226 -108.803 Q447.615 -108.803 445.786 -105.239 Q443.981 -101.697 443.981 -94.5673 Q443.981 -87.4609 445.786 -83.8961 Q447.615 -80.3544 451.226 -80.3544 Q454.86 -80.3544 456.666 -83.8961 Q458.494 -87.4609 458.494 -94.5673 Q458.494 -101.697 456.666 -105.239 Q454.86 -108.803 451.226 -108.803 M451.226 -112.507 Q457.036 -112.507 460.092 -107.901 Q463.17 -103.317 463.17 -94.5673 Q463.17 -85.8405 460.092 -81.2341 Q457.036 -76.6508 451.226 -76.6508 Q445.416 -76.6508 442.337 -81.2341 Q439.281 -85.8405 439.281 -94.5673 Q439.281 -103.317 442.337 -107.901 Q445.416 -112.507 451.226 -112.507 Z" fill="#000000" fill-rule="evenodd" fill-opacity="1" /><path clip-path="url(#clip040)" d="M467.741 -107.93 L481 -107.93 L481 -104.732 L463.17 -104.732 L463.17 -107.93 Q465.333 -110.168 469.057 -113.929 Q472.8 -117.71 473.759 -118.801 Q475.583 -120.851 476.298 -122.261 Q477.032 -123.691 477.032 -125.064 Q477.032 -127.302 475.452 -128.712 Q473.891 -130.123 471.37 -130.123 Q469.584 -130.123 467.59 -129.502 Q465.615 -128.882 463.358 -127.622 L463.358 -131.458 Q465.653 -132.38 467.646 -132.85 Q469.64 -133.32 471.295 -133.32 Q475.659 -133.32 478.254 -131.139 Q480.85 -128.957 480.85 -125.308 Q480.85 -123.578 480.191 -122.017 Q479.552 -120.475 477.84 -118.368 Q477.37 -117.823 474.85 -115.208 Q472.33 -112.613 467.741 -107.93 Z" fill="#000000" fill-rule="evenodd" fill-opacity="1" /><path clip-path="url(#clip040)" d="M2493.59 1285.32 L2493.59 1275.74 L2525.93 1263.61 L2493.59 1251.42 L2493.59 1241.84 L2541.11 1241.84 L2541.11 1248.11 L2499.38 1248.11 L2531.97 1260.37 L2531.97 1266.83 L2499.38 1279.08 L2541.11 1279.08 L2541.11 1285.32 L2493.59 1285.32 Z" fill="#000000" fill-rule="evenodd" fill-opacity="1" /><path clip-path="url(#clip040)" d="M2505.46 1229.34 L2505.46 1223.48 L2541.11 1223.48 L2541.11 1229.34 L2505.46 1229.34 M2491.58 1229.34 L2491.58 1223.48 L2499 1223.48 L2499 1229.34 L2491.58 1229.34 Z" fill="#000000" fill-rule="evenodd" fill-opacity="1" /><path clip-path="url(#clip040)" d="M2519.59 1181.59 L2541.11 1181.59 L2541.11 1187.45 L2519.78 1187.45 Q2514.72 1187.45 2512.21 1189.42 Q2509.69 1191.4 2509.69 1195.34 Q2509.69 1200.08 2512.72 1202.82 Q2515.74 1205.56 2520.96 1205.56 L2541.11 1205.56 L2541.11 1211.45 L2505.46 1211.45 L2505.46 1205.56 L2511 1205.56 Q2507.78 1203.46 2506.19 1200.63 Q2504.6 1197.76 2504.6 1194.04 Q2504.6 1187.89 2508.42 1184.74 Q2512.21 1181.59 2519.59 1181.59 Z" fill="#000000" fill-rule="evenodd" fill-opacity="1" /><path clip-path="url(#clip040)" d="M2505.46 1169.91 L2505.46 1164.05 L2541.11 1164.05 L2541.11 1169.91 L2505.46 1169.91 M2491.58 1169.91 L2491.58 1164.05 L2499 1164.05 L2499 1169.91 L2491.58 1169.91 Z" fill="#000000" fill-rule="evenodd" fill-opacity="1" /><path clip-path="url(#clip040)" d="M2512.3 1124.05 Q2508.36 1121.85 2506.48 1118.79 Q2504.6 1115.74 2504.6 1111.6 Q2504.6 1106.03 2508.51 1103.01 Q2512.4 1099.98 2519.59 1099.98 L2541.11 1099.98 L2541.11 1105.87 L2519.78 1105.87 Q2514.66 1105.87 2512.18 1107.69 Q2509.69 1109.5 2509.69 1113.22 Q2509.69 1117.78 2512.72 1120.42 Q2515.74 1123.06 2520.96 1123.06 L2541.11 1123.06 L2541.11 1128.95 L2519.78 1128.95 Q2514.63 1128.95 2512.18 1130.76 Q2509.69 1132.58 2509.69 1136.36 Q2509.69 1140.85 2512.75 1143.49 Q2515.77 1146.14 2520.96 1146.14 L2541.11 1146.14 L2541.11 1152.02 L2505.46 1152.02 L2505.46 1146.14 L2511 1146.14 Q2507.72 1144.13 2506.16 1141.33 Q2504.6 1138.53 2504.6 1134.68 Q2504.6 1130.79 2506.57 1128.09 Q2508.55 1125.35 2512.3 1124.05 Z" fill="#000000" fill-rule="evenodd" fill-opacity="1" /><path clip-path="url(#clip040)" d="M2527.04 1088.91 L2505.46 1088.91 L2505.46 1083.05 L2526.82 1083.05 Q2531.88 1083.05 2534.42 1081.08 Q2536.94 1079.1 2536.94 1075.16 Q2536.94 1070.42 2533.91 1067.68 Q2530.89 1064.91 2525.67 1064.91 L2505.46 1064.91 L2505.46 1059.05 L2541.11 1059.05 L2541.11 1064.91 L2535.63 1064.91 Q2538.88 1067.04 2540.47 1069.87 Q2542.03 1072.68 2542.03 1076.4 Q2542.03 1082.54 2538.21 1085.72 Q2534.39 1088.91 2527.04 1088.91 M2504.6 1074.17 L2504.6 1074.17 Z" fill="#000000" fill-rule="evenodd" fill-opacity="1" /><path clip-path="url(#clip040)" d="M2512.3 1019.23 Q2508.36 1017.04 2506.48 1013.98 Q2504.6 1010.93 2504.6 1006.79 Q2504.6 1001.22 2508.51 998.196 Q2512.4 995.173 2519.59 995.173 L2541.11 995.173 L2541.11 1001.06 L2519.78 1001.06 Q2514.66 1001.06 2512.18 1002.88 Q2509.69 1004.69 2509.69 1008.41 Q2509.69 1012.96 2512.72 1015.61 Q2515.74 1018.25 2520.96 1018.25 L2541.11 1018.25 L2541.11 1024.14 L2519.78 1024.14 Q2514.63 1024.14 2512.18 1025.95 Q2509.69 1027.77 2509.69 1031.55 Q2509.69 1036.04 2512.75 1038.68 Q2515.77 1041.32 2520.96 1041.32 L2541.11 1041.32 L2541.11 1047.21 L2505.46 1047.21 L2505.46 1041.32 L2511 1041.32 Q2507.72 1039.32 2506.16 1036.52 Q2504.6 1033.72 2504.6 1029.87 Q2504.6 1025.98 2506.57 1023.28 Q2508.55 1020.54 2512.3 1019.23 Z" fill="#000000" fill-rule="evenodd" fill-opacity="1" /><path clip-path="url(#clip040)" d="M2521.82 932.279 L2524.68 932.279 L2524.68 959.206 Q2530.73 958.824 2533.91 955.578 Q2537.07 952.3 2537.07 946.475 Q2537.07 943.101 2536.24 939.95 Q2535.41 936.767 2533.75 933.648 L2539.29 933.648 Q2540.63 936.799 2541.33 940.109 Q2542.03 943.419 2542.03 946.825 Q2542.03 955.355 2537.07 960.352 Q2532.1 965.317 2523.63 965.317 Q2514.88 965.317 2509.76 960.607 Q2504.6 955.864 2504.6 947.844 Q2504.6 940.65 2509.25 936.481 Q2513.86 932.279 2521.82 932.279 M2520.1 938.136 Q2515.29 938.2 2512.43 940.841 Q2509.57 943.451 2509.57 947.78 Q2509.57 952.682 2512.33 955.642 Q2515.1 958.57 2520.13 959.015 L2520.1 938.136 Z" fill="#000000" fill-rule="evenodd" fill-opacity="1" /><path clip-path="url(#clip040)" d="M2505.46 894.181 L2522.81 907.071 L2541.11 893.512 L2541.11 900.419 L2527.1 910.795 L2541.11 921.171 L2541.11 928.078 L2522.46 914.233 L2505.46 926.9 L2505.46 919.994 L2518.16 910.541 L2505.46 901.087 L2505.46 894.181 Z" fill="#000000" fill-rule="evenodd" fill-opacity="1" /><path clip-path="url(#clip040)" d="M2521.82 856.75 L2524.68 856.75 L2524.68 883.677 Q2530.73 883.295 2533.91 880.049 Q2537.07 876.77 2537.07 870.946 Q2537.07 867.572 2536.24 864.421 Q2535.41 861.238 2533.75 858.119 L2539.29 858.119 Q2540.63 861.27 2541.33 864.58 Q2542.03 867.89 2542.03 871.296 Q2542.03 879.826 2537.07 884.823 Q2532.1 889.788 2523.63 889.788 Q2514.88 889.788 2509.76 885.078 Q2504.6 880.335 2504.6 872.314 Q2504.6 865.121 2509.25 860.952 Q2513.86 856.75 2521.82 856.75 M2520.1 862.607 Q2515.29 862.67 2512.43 865.312 Q2509.57 867.922 2509.57 872.251 Q2509.57 877.152 2512.33 880.112 Q2515.1 883.041 2520.13 883.486 L2520.1 862.607 Z" fill="#000000" fill-rule="evenodd" fill-opacity="1" /><path clip-path="url(#clip040)" d="M2506.83 821.484 L2512.3 821.484 Q2510.93 823.967 2510.27 826.481 Q2509.57 828.964 2509.57 831.51 Q2509.57 837.208 2513.19 840.359 Q2516.79 843.51 2523.32 843.51 Q2529.84 843.51 2533.47 840.359 Q2537.07 837.208 2537.07 831.51 Q2537.07 828.964 2536.4 826.481 Q2535.7 823.967 2534.33 821.484 L2539.74 821.484 Q2540.88 823.935 2541.46 826.577 Q2542.03 829.187 2542.03 832.147 Q2542.03 840.199 2536.97 844.942 Q2531.91 849.684 2523.32 849.684 Q2514.59 849.684 2509.6 844.91 Q2504.6 840.104 2504.6 831.765 Q2504.6 829.06 2505.17 826.481 Q2505.71 823.903 2506.83 821.484 Z" fill="#000000" fill-rule="evenodd" fill-opacity="1" /><path clip-path="url(#clip040)" d="M2527.04 811.904 L2505.46 811.904 L2505.46 806.047 L2526.82 806.047 Q2531.88 806.047 2534.42 804.074 Q2536.94 802.101 2536.94 798.154 Q2536.94 793.412 2533.91 790.674 Q2530.89 787.905 2525.67 787.905 L2505.46 787.905 L2505.46 782.049 L2541.11 782.049 L2541.11 787.905 L2535.63 787.905 Q2538.88 790.038 2540.47 792.87 Q2542.03 795.671 2542.03 799.395 Q2542.03 805.538 2538.21 808.721 Q2534.39 811.904 2527.04 811.904 M2504.6 797.167 L2504.6 797.167 Z" fill="#000000" fill-rule="evenodd" fill-opacity="1" /><path clip-path="url(#clip040)" d="M2495.34 764.193 L2505.46 764.193 L2505.46 752.13 L2510.01 752.13 L2510.01 764.193 L2529.36 764.193 Q2533.72 764.193 2534.96 763.015 Q2536.21 761.806 2536.21 758.146 L2536.21 752.13 L2541.11 752.13 L2541.11 758.146 Q2541.11 764.925 2538.59 767.503 Q2536.05 770.081 2529.36 770.081 L2510.01 770.081 L2510.01 774.378 L2505.46 774.378 L2505.46 770.081 L2495.34 770.081 L2495.34 764.193 Z" fill="#000000" fill-rule="evenodd" fill-opacity="1" /><path clip-path="url(#clip040)" d="M2505.46 744.427 L2505.46 738.571 L2541.11 738.571 L2541.11 744.427 L2505.46 744.427 M2491.58 744.427 L2491.58 738.571 L2499 738.571 L2499 744.427 L2491.58 744.427 Z" fill="#000000" fill-rule="evenodd" fill-opacity="1" /><path clip-path="url(#clip040)" d="M2509.57 712.503 Q2509.57 717.214 2513.26 719.951 Q2516.92 722.689 2523.32 722.689 Q2529.71 722.689 2533.4 719.983 Q2537.07 717.246 2537.07 712.503 Q2537.07 707.825 2533.37 705.087 Q2529.68 702.35 2523.32 702.35 Q2516.98 702.35 2513.29 705.087 Q2509.57 707.825 2509.57 712.503 M2504.6 712.503 Q2504.6 704.865 2509.57 700.504 Q2514.53 696.144 2523.32 696.144 Q2532.07 696.144 2537.07 700.504 Q2542.03 704.865 2542.03 712.503 Q2542.03 720.174 2537.07 724.535 Q2532.07 728.863 2523.32 728.863 Q2514.53 728.863 2509.57 724.535 Q2504.6 720.174 2504.6 712.503 Z" fill="#000000" fill-rule="evenodd" fill-opacity="1" /><path clip-path="url(#clip040)" d="M2519.59 656.803 L2541.11 656.803 L2541.11 662.66 L2519.78 662.66 Q2514.72 662.66 2512.21 664.633 Q2509.69 666.607 2509.69 670.553 Q2509.69 675.296 2512.72 678.033 Q2515.74 680.77 2520.96 680.77 L2541.11 680.77 L2541.11 686.659 L2505.46 686.659 L2505.46 680.77 L2511 680.77 Q2507.78 678.67 2506.19 675.837 Q2504.6 672.972 2504.6 669.248 Q2504.6 663.106 2508.42 659.955 Q2512.21 656.803 2519.59 656.803 Z" fill="#000000" fill-rule="evenodd" fill-opacity="1" /><path clip-path="url(#clip040)" d="M2495.34 618.609 L2505.46 618.609 L2505.46 606.546 L2510.01 606.546 L2510.01 618.609 L2529.36 618.609 Q2533.72 618.609 2534.96 617.432 Q2536.21 616.222 2536.21 612.562 L2536.21 606.546 L2541.11 606.546 L2541.11 612.562 Q2541.11 619.341 2538.59 621.919 Q2536.05 624.498 2529.36 624.498 L2510.01 624.498 L2510.01 628.794 L2505.46 628.794 L2505.46 624.498 L2495.34 624.498 L2495.34 618.609 Z" fill="#000000" fill-rule="evenodd" fill-opacity="1" /><path clip-path="url(#clip040)" d="M2505.46 598.844 L2505.46 592.987 L2541.11 592.987 L2541.11 598.844 L2505.46 598.844 M2491.58 598.844 L2491.58 592.987 L2499 592.987 L2499 598.844 L2491.58 598.844 Z" fill="#000000" fill-rule="evenodd" fill-opacity="1" /><path clip-path="url(#clip040)" d="M2512.3 552.979 Q2508.36 550.783 2506.48 547.727 Q2504.6 544.672 2504.6 540.534 Q2504.6 534.964 2508.51 531.94 Q2512.4 528.916 2519.59 528.916 L2541.11 528.916 L2541.11 534.805 L2519.78 534.805 Q2514.66 534.805 2512.18 536.619 Q2509.69 538.433 2509.69 542.157 Q2509.69 546.709 2512.72 549.35 Q2515.74 551.992 2520.96 551.992 L2541.11 551.992 L2541.11 557.88 L2519.78 557.88 Q2514.63 557.88 2512.18 559.695 Q2509.69 561.509 2509.69 565.296 Q2509.69 569.784 2512.75 572.426 Q2515.77 575.068 2520.96 575.068 L2541.11 575.068 L2541.11 580.956 L2505.46 580.956 L2505.46 575.068 L2511 575.068 Q2507.72 573.063 2506.16 570.262 Q2504.6 567.461 2504.6 563.61 Q2504.6 559.726 2506.57 557.021 Q2508.55 554.284 2512.3 552.979 Z" fill="#000000" fill-rule="evenodd" fill-opacity="1" /><path clip-path="url(#clip040)" d="M2521.82 486.744 L2524.68 486.744 L2524.68 513.671 Q2530.73 513.289 2533.91 510.042 Q2537.07 506.764 2537.07 500.939 Q2537.07 497.565 2536.24 494.414 Q2535.41 491.231 2533.75 488.112 L2539.29 488.112 Q2540.63 491.263 2541.33 494.573 Q2542.03 497.884 2542.03 501.289 Q2542.03 509.819 2537.07 514.816 Q2532.1 519.782 2523.63 519.782 Q2514.88 519.782 2509.76 515.071 Q2504.6 510.329 2504.6 502.308 Q2504.6 495.115 2509.25 490.945 Q2513.86 486.744 2521.82 486.744 M2520.1 492.6 Q2515.29 492.664 2512.43 495.306 Q2509.57 497.915 2509.57 502.244 Q2509.57 507.146 2512.33 510.106 Q2515.1 513.034 2520.13 513.48 L2520.1 492.6 Z" fill="#000000" fill-rule="evenodd" fill-opacity="1" /><path clip-path="url(#clip040)" d="M2491.65 442.343 Q2498.97 446.608 2506.13 448.677 Q2513.29 450.746 2520.64 450.746 Q2527.99 450.746 2535.22 448.677 Q2542.41 446.576 2549.7 442.343 L2549.7 447.435 Q2542.22 452.21 2535 454.597 Q2527.77 456.952 2520.64 456.952 Q2513.54 456.952 2506.35 454.597 Q2499.16 452.242 2491.65 447.435 L2491.65 442.343 Z" fill="#000000" fill-rule="evenodd" fill-opacity="1" /><path clip-path="url(#clip040)" d="M2505.46 430.98 L2505.46 425.124 L2541.11 425.124 L2541.11 430.98 L2505.46 430.98 M2491.58 430.98 L2491.58 425.124 L2499 425.124 L2499 430.98 L2491.58 430.98 Z" fill="#000000" fill-rule="evenodd" fill-opacity="1" /><path clip-path="url(#clip040)" d="M2519.59 383.237 L2541.11 383.237 L2541.11 389.094 L2519.78 389.094 Q2514.72 389.094 2512.21 391.067 Q2509.69 393.04 2509.69 396.987 Q2509.69 401.73 2512.72 404.467 Q2515.74 407.204 2520.96 407.204 L2541.11 407.204 L2541.11 413.092 L2505.46 413.092 L2505.46 407.204 L2511 407.204 Q2507.78 405.103 2506.19 402.271 Q2504.6 399.406 2504.6 395.682 Q2504.6 389.539 2508.42 386.388 Q2512.21 383.237 2519.59 383.237 Z" fill="#000000" fill-rule="evenodd" fill-opacity="1" /><path clip-path="url(#clip040)" d="M2512.3 323.081 Q2508.36 320.885 2506.48 317.83 Q2504.6 314.774 2504.6 310.636 Q2504.6 305.066 2508.51 302.043 Q2512.4 299.019 2519.59 299.019 L2541.11 299.019 L2541.11 304.907 L2519.78 304.907 Q2514.66 304.907 2512.18 306.721 Q2509.69 308.536 2509.69 312.26 Q2509.69 316.811 2512.72 319.453 Q2515.74 322.095 2520.96 322.095 L2541.11 322.095 L2541.11 327.983 L2519.78 327.983 Q2514.63 327.983 2512.18 329.797 Q2509.69 331.611 2509.69 335.399 Q2509.69 339.887 2512.75 342.529 Q2515.77 345.17 2520.96 345.17 L2541.11 345.17 L2541.11 351.059 L2505.46 351.059 L2505.46 345.17 L2511 345.17 Q2507.72 343.165 2506.16 340.364 Q2504.6 337.563 2504.6 333.712 Q2504.6 329.829 2506.57 327.124 Q2508.55 324.386 2512.3 323.081 Z" fill="#000000" fill-rule="evenodd" fill-opacity="1" /><path clip-path="url(#clip040)" d="M2506.51 264.612 L2512.05 264.612 Q2510.77 267.095 2510.14 269.769 Q2509.5 272.442 2509.5 275.307 Q2509.5 279.667 2510.84 281.863 Q2512.18 284.028 2514.85 284.028 Q2516.89 284.028 2518.06 282.468 Q2519.21 280.909 2520.26 276.198 L2520.71 274.193 Q2522.04 267.954 2524.49 265.344 Q2526.91 262.703 2531.27 262.703 Q2536.24 262.703 2539.13 266.649 Q2542.03 270.564 2542.03 277.439 Q2542.03 280.304 2541.46 283.423 Q2540.92 286.51 2539.8 289.948 L2533.75 289.948 Q2535.44 286.701 2536.3 283.55 Q2537.13 280.399 2537.13 277.312 Q2537.13 273.174 2535.73 270.946 Q2534.3 268.718 2531.72 268.718 Q2529.33 268.718 2528.06 270.341 Q2526.78 271.933 2525.61 277.376 L2525.13 279.413 Q2523.98 284.855 2521.63 287.274 Q2519.24 289.693 2515.1 289.693 Q2510.07 289.693 2507.34 286.128 Q2504.6 282.564 2504.6 276.007 Q2504.6 272.76 2505.08 269.896 Q2505.55 267.031 2506.51 264.612 Z" fill="#000000" fill-rule="evenodd" fill-opacity="1" /><path clip-path="url(#clip040)" d="M2491.65 254.3 L2491.65 249.207 Q2499.16 244.433 2506.35 242.078 Q2513.54 239.691 2520.64 239.691 Q2527.77 239.691 2535 242.078 Q2542.22 244.433 2549.7 249.207 L2549.7 254.3 Q2542.41 250.067 2535.22 247.998 Q2527.99 245.897 2520.64 245.897 Q2513.29 245.897 2506.13 247.998 Q2498.97 250.067 2491.65 254.3 Z" fill="#000000" fill-rule="evenodd" fill-opacity="1" /><path clip-path="url(#clip040)" d="M1903.98 12.096 L1912.16 12.096 L1912.16 65.6895 L1941.61 65.6895 L1941.61 72.576 L1903.98 72.576 L1903.98 12.096 Z" fill="#000000" fill-rule="evenodd" fill-opacity="1" /><path clip-path="url(#clip040)" d="M1949.88 27.2059 L1957.33 27.2059 L1957.33 72.576 L1949.88 72.576 L1949.88 27.2059 M1949.88 9.54393 L1957.33 9.54393 L1957.33 18.9825 L1949.88 18.9825 L1949.88 9.54393 Z" fill="#000000" fill-rule="evenodd" fill-opacity="1" /><path clip-path="url(#clip040)" d="M2010.64 45.1919 L2010.64 72.576 L2003.19 72.576 L2003.19 45.4349 Q2003.19 38.994 2000.68 35.7938 Q1998.16 32.5936 1993.14 32.5936 Q1987.11 32.5936 1983.62 36.4419 Q1980.14 40.2903 1980.14 46.9338 L1980.14 72.576 L1972.64 72.576 L1972.64 27.2059 L1980.14 27.2059 L1980.14 34.2544 Q1982.81 30.163 1986.42 28.1376 Q1990.06 26.1121 1994.8 26.1121 Q2002.62 26.1121 2006.63 30.9732 Q2010.64 35.7938 2010.64 45.1919 Z" fill="#000000" fill-rule="evenodd" fill-opacity="1" /><path clip-path="url(#clip040)" d="M2064.32 48.0275 L2064.32 51.6733 L2030.04 51.6733 Q2030.53 59.3701 2034.66 63.421 Q2038.84 67.4314 2046.25 67.4314 Q2050.54 67.4314 2054.55 66.3781 Q2058.6 65.3249 2062.57 63.2184 L2062.57 70.267 Q2058.56 71.9684 2054.35 72.8596 Q2050.14 73.7508 2045.8 73.7508 Q2034.95 73.7508 2028.59 67.4314 Q2022.27 61.1119 2022.27 50.3365 Q2022.27 39.1965 2028.26 32.6746 Q2034.3 26.1121 2044.51 26.1121 Q2053.66 26.1121 2058.97 32.0264 Q2064.32 37.9003 2064.32 48.0275 M2056.86 45.84 Q2056.78 39.7232 2053.42 36.0774 Q2050.1 32.4315 2044.59 32.4315 Q2038.35 32.4315 2034.58 35.9558 Q2030.85 39.4801 2030.29 45.8805 L2056.86 45.84 Z" fill="#000000" fill-rule="evenodd" fill-opacity="1" /><path clip-path="url(#clip040)" d="M2097.17 49.7694 Q2088.13 49.7694 2084.65 51.8354 Q2081.17 53.9013 2081.17 58.8839 Q2081.17 62.8538 2083.76 65.2034 Q2086.39 67.5124 2090.89 67.5124 Q2097.09 67.5124 2100.81 63.1374 Q2104.58 58.7219 2104.58 51.4303 L2104.58 49.7694 L2097.17 49.7694 M2112.03 46.6907 L2112.03 72.576 L2104.58 72.576 L2104.58 65.6895 Q2102.03 69.8214 2098.22 71.8063 Q2094.41 73.7508 2088.9 73.7508 Q2081.94 73.7508 2077.8 69.8619 Q2073.71 65.9325 2073.71 59.3701 Q2073.71 51.7138 2078.82 47.825 Q2083.96 43.9361 2094.13 43.9361 L2104.58 43.9361 L2104.58 43.2069 Q2104.58 38.0623 2101.18 35.2672 Q2097.82 32.4315 2091.7 32.4315 Q2087.81 32.4315 2084.12 33.3632 Q2080.44 34.295 2077.04 36.1584 L2077.04 29.2718 Q2081.13 27.692 2084.97 26.9223 Q2088.82 26.1121 2092.47 26.1121 Q2102.31 26.1121 2107.17 31.2163 Q2112.03 36.3204 2112.03 46.6907 Z" fill="#000000" fill-rule="evenodd" fill-opacity="1" /><path clip-path="url(#clip040)" d="M2153.68 34.1734 Q2152.42 33.4443 2150.92 33.1202 Q2149.47 32.7556 2147.68 32.7556 Q2141.36 32.7556 2137.96 36.8875 Q2134.6 40.9789 2134.6 48.6757 L2134.6 72.576 L2127.1 72.576 L2127.1 27.2059 L2134.6 27.2059 L2134.6 34.2544 Q2136.95 30.1225 2140.72 28.1376 Q2144.48 26.1121 2149.87 26.1121 Q2150.64 26.1121 2151.57 26.2337 Q2152.5 26.3147 2153.64 26.5172 L2153.68 34.1734 Z" fill="#000000" fill-rule="evenodd" fill-opacity="1" /><path clip-path="url(#clip040)" d="M2229.43 63.9476 L2229.43 47.7034 L2216.06 47.7034 L2216.06 40.9789 L2237.53 40.9789 L2237.53 66.9452 Q2232.79 70.3075 2227.08 72.0494 Q2221.37 73.7508 2214.89 73.7508 Q2200.71 73.7508 2192.69 65.4869 Q2184.71 57.1826 2184.71 42.3968 Q2184.71 27.5705 2192.69 19.3066 Q2200.71 11.0023 2214.89 11.0023 Q2220.8 11.0023 2226.11 12.4606 Q2231.46 13.9189 2235.95 16.7545 L2235.95 25.464 Q2231.42 21.6156 2226.31 19.6712 Q2221.21 17.7268 2215.58 17.7268 Q2204.48 17.7268 2198.89 23.9246 Q2193.34 30.1225 2193.34 42.3968 Q2193.34 54.6305 2198.89 60.8284 Q2204.48 67.0263 2215.58 67.0263 Q2219.91 67.0263 2223.31 66.2971 Q2226.72 65.5274 2229.43 63.9476 Z" fill="#000000" fill-rule="evenodd" fill-opacity="1" /><path clip-path="url(#clip040)" d="M2272.77 49.7694 Q2263.74 49.7694 2260.26 51.8354 Q2256.77 53.9013 2256.77 58.8839 Q2256.77 62.8538 2259.37 65.2034 Q2262 67.5124 2266.5 67.5124 Q2272.69 67.5124 2276.42 63.1374 Q2280.19 58.7219 2280.19 51.4303 L2280.19 49.7694 L2272.77 49.7694 M2287.64 46.6907 L2287.64 72.576 L2280.19 72.576 L2280.19 65.6895 Q2277.64 69.8214 2273.83 71.8063 Q2270.02 73.7508 2264.51 73.7508 Q2257.54 73.7508 2253.41 69.8619 Q2249.32 65.9325 2249.32 59.3701 Q2249.32 51.7138 2254.42 47.825 Q2259.57 43.9361 2269.74 43.9361 L2280.19 43.9361 L2280.19 43.2069 Q2280.19 38.0623 2276.79 35.2672 Q2273.42 32.4315 2267.31 32.4315 Q2263.42 32.4315 2259.73 33.3632 Q2256.04 34.295 2252.64 36.1584 L2252.64 29.2718 Q2256.73 27.692 2260.58 26.9223 Q2264.43 26.1121 2268.08 26.1121 Q2277.92 26.1121 2282.78 31.2163 Q2287.64 36.3204 2287.64 46.6907 Z" fill="#000000" fill-rule="evenodd" fill-opacity="1" /><path clip-path="url(#clip040)" d="M2302.22 54.671 L2302.22 27.2059 L2309.68 27.2059 L2309.68 54.3874 Q2309.68 60.8284 2312.19 64.0691 Q2314.7 67.2693 2319.72 67.2693 Q2325.76 67.2693 2329.24 63.421 Q2332.77 59.5726 2332.77 52.9291 L2332.77 27.2059 L2340.22 27.2059 L2340.22 72.576 L2332.77 72.576 L2332.77 65.6084 Q2330.05 69.7404 2326.45 71.7658 Q2322.88 73.7508 2318.14 73.7508 Q2310.33 73.7508 2306.28 68.8897 Q2302.22 64.0286 2302.22 54.671 M2320.98 26.1121 L2320.98 26.1121 Z" fill="#000000" fill-rule="evenodd" fill-opacity="1" /><path clip-path="url(#clip040)" d="M2384.5 28.5427 L2384.5 35.5912 Q2381.34 33.9709 2377.94 33.1607 Q2374.53 32.3505 2370.89 32.3505 Q2365.34 32.3505 2362.54 34.0519 Q2359.79 35.7533 2359.79 39.156 Q2359.79 41.7486 2361.77 43.2475 Q2363.76 44.7058 2369.75 46.0426 L2372.31 46.6097 Q2380.25 48.3111 2383.57 51.4303 Q2386.93 54.509 2386.93 60.0587 Q2386.93 66.3781 2381.91 70.0644 Q2376.92 73.7508 2368.17 73.7508 Q2364.53 73.7508 2360.56 73.0216 Q2356.63 72.3329 2352.25 70.9151 L2352.25 63.2184 Q2356.39 65.3654 2360.4 66.4591 Q2364.41 67.5124 2368.34 67.5124 Q2373.6 67.5124 2376.44 65.73 Q2379.27 63.9071 2379.27 60.6258 Q2379.27 57.5877 2377.21 55.9673 Q2375.18 54.3469 2368.25 52.8481 L2365.66 52.2405 Q2358.74 50.7821 2355.66 47.7845 Q2352.58 44.7463 2352.58 39.4801 Q2352.58 33.0797 2357.11 29.5959 Q2361.65 26.1121 2370 26.1121 Q2374.13 26.1121 2377.77 26.7198 Q2381.42 27.3274 2384.5 28.5427 Z" fill="#000000" fill-rule="evenodd" fill-opacity="1" /><path clip-path="url(#clip040)" d="M2427.72 28.5427 L2427.72 35.5912 Q2424.56 33.9709 2421.16 33.1607 Q2417.76 32.3505 2414.11 32.3505 Q2408.56 32.3505 2405.77 34.0519 Q2403.01 35.7533 2403.01 39.156 Q2403.01 41.7486 2405 43.2475 Q2406.98 44.7058 2412.98 46.0426 L2415.53 46.6097 Q2423.47 48.3111 2426.79 51.4303 Q2430.15 54.509 2430.15 60.0587 Q2430.15 66.3781 2425.13 70.0644 Q2420.15 73.7508 2411.4 73.7508 Q2407.75 73.7508 2403.78 73.0216 Q2399.85 72.3329 2395.48 70.9151 L2395.48 63.2184 Q2399.61 65.3654 2403.62 66.4591 Q2407.63 67.5124 2411.56 67.5124 Q2416.82 67.5124 2419.66 65.73 Q2422.5 63.9071 2422.5 60.6258 Q2422.5 57.5877 2420.43 55.9673 Q2418.4 54.3469 2411.48 52.8481 L2408.89 52.2405 Q2401.96 50.7821 2398.88 47.7845 Q2395.8 44.7463 2395.8 39.4801 Q2395.8 33.0797 2400.34 29.5959 Q2404.87 26.1121 2413.22 26.1121 Q2417.35 26.1121 2421 26.7198 Q2424.64 27.3274 2427.72 28.5427 Z" fill="#000000" fill-rule="evenodd" fill-opacity="1" /><path clip-path="url(#clip040)" d="M2442.02 27.2059 L2449.48 27.2059 L2449.48 72.576 L2442.02 72.576 L2442.02 27.2059 M2442.02 9.54393 L2449.48 9.54393 L2449.48 18.9825 L2442.02 18.9825 L2442.02 9.54393 Z" fill="#000000" fill-rule="evenodd" fill-opacity="1" /><path clip-path="url(#clip040)" d="M2485.69 49.7694 Q2476.66 49.7694 2473.17 51.8354 Q2469.69 53.9013 2469.69 58.8839 Q2469.69 62.8538 2472.28 65.2034 Q2474.91 67.5124 2479.41 67.5124 Q2485.61 67.5124 2489.34 63.1374 Q2493.1 58.7219 2493.1 51.4303 L2493.1 49.7694 L2485.69 49.7694 M2500.56 46.6907 L2500.56 72.576 L2493.1 72.576 L2493.1 65.6895 Q2490.55 69.8214 2486.74 71.8063 Q2482.94 73.7508 2477.43 73.7508 Q2470.46 73.7508 2466.33 69.8619 Q2462.24 65.9325 2462.24 59.3701 Q2462.24 51.7138 2467.34 47.825 Q2472.48 43.9361 2482.65 43.9361 L2493.1 43.9361 L2493.1 43.2069 Q2493.1 38.0623 2489.7 35.2672 Q2486.34 32.4315 2480.22 32.4315 Q2476.33 32.4315 2472.65 33.3632 Q2468.96 34.295 2465.56 36.1584 L2465.56 29.2718 Q2469.65 27.692 2473.5 26.9223 Q2477.35 26.1121 2480.99 26.1121 Q2490.83 26.1121 2495.7 31.2163 Q2500.56 36.3204 2500.56 46.6907 Z" fill="#000000" fill-rule="evenodd" fill-opacity="1" /><path clip-path="url(#clip040)" d="M2553.62 45.1919 L2553.62 72.576 L2546.17 72.576 L2546.17 45.4349 Q2546.17 38.994 2543.66 35.7938 Q2541.15 32.5936 2536.12 32.5936 Q2530.09 32.5936 2526.6 36.4419 Q2523.12 40.2903 2523.12 46.9338 L2523.12 72.576 L2515.63 72.576 L2515.63 27.2059 L2523.12 27.2059 L2523.12 34.2544 Q2525.79 30.163 2529.4 28.1376 Q2533.05 26.1121 2537.78 26.1121 Q2545.6 26.1121 2549.61 30.9732 Q2553.62 35.7938 2553.62 45.1919 Z" fill="#000000" fill-rule="evenodd" fill-opacity="1" /><path clip-path="url(#clip040)" d="M2631.44 14.0809 L2631.44 22.0612 Q2626.78 19.8332 2622.65 18.7395 Q2618.52 17.6457 2614.67 17.6457 Q2607.99 17.6457 2604.34 20.2383 Q2600.74 22.8309 2600.74 27.611 Q2600.74 31.6214 2603.13 33.6873 Q2605.56 35.7128 2612.28 36.9686 L2617.22 37.9813 Q2626.38 39.7232 2630.71 44.1387 Q2635.09 48.5136 2635.09 55.8863 Q2635.09 64.6767 2629.17 69.2137 Q2623.3 73.7508 2611.92 73.7508 Q2607.62 73.7508 2602.76 72.7785 Q2597.94 71.8063 2592.76 69.9024 L2592.76 61.4765 Q2597.74 64.2716 2602.52 65.6895 Q2607.3 67.1073 2611.92 67.1073 Q2618.92 67.1073 2622.73 64.3527 Q2626.54 61.598 2626.54 56.4939 Q2626.54 52.0379 2623.79 49.5264 Q2621.07 47.0148 2614.83 45.759 L2609.85 44.7868 Q2600.7 42.9639 2596.6 39.075 Q2592.51 35.1862 2592.51 28.2591 Q2592.51 20.2383 2598.14 15.6203 Q2603.81 11.0023 2613.74 11.0023 Q2617.99 11.0023 2622.41 11.7719 Q2626.82 12.5416 2631.44 14.0809 Z" fill="#000000" fill-rule="evenodd" fill-opacity="1" /><path clip-path="url(#clip040)" d="M2654.9 14.324 L2654.9 27.2059 L2670.25 27.2059 L2670.25 32.9987 L2654.9 32.9987 L2654.9 57.6282 Q2654.9 63.1779 2656.4 64.7578 Q2657.93 66.3376 2662.59 66.3376 L2670.25 66.3376 L2670.25 72.576 L2662.59 72.576 Q2653.96 72.576 2650.68 69.3758 Q2647.4 66.1351 2647.4 57.6282 L2647.4 32.9987 L2641.93 32.9987 L2641.93 27.2059 L2647.4 27.2059 L2647.4 14.324 L2654.9 14.324 Z" fill="#000000" fill-rule="evenodd" fill-opacity="1" /><path clip-path="url(#clip040)" d="M2700.67 49.7694 Q2691.64 49.7694 2688.15 51.8354 Q2684.67 53.9013 2684.67 58.8839 Q2684.67 62.8538 2687.26 65.2034 Q2689.9 67.5124 2694.39 67.5124 Q2700.59 67.5124 2704.32 63.1374 Q2708.08 58.7219 2708.08 51.4303 L2708.08 49.7694 L2700.67 49.7694 M2715.54 46.6907 L2715.54 72.576 L2708.08 72.576 L2708.08 65.6895 Q2705.53 69.8214 2701.73 71.8063 Q2697.92 73.7508 2692.41 73.7508 Q2685.44 73.7508 2681.31 69.8619 Q2677.22 65.9325 2677.22 59.3701 Q2677.22 51.7138 2682.32 47.825 Q2687.47 43.9361 2697.63 43.9361 L2708.08 43.9361 L2708.08 43.2069 Q2708.08 38.0623 2704.68 35.2672 Q2701.32 32.4315 2695.2 32.4315 Q2691.31 32.4315 2687.63 33.3632 Q2683.94 34.295 2680.54 36.1584 L2680.54 29.2718 Q2684.63 27.692 2688.48 26.9223 Q2692.33 26.1121 2695.97 26.1121 Q2705.82 26.1121 2710.68 31.2163 Q2715.54 36.3204 2715.54 46.6907 Z" fill="#000000" fill-rule="evenodd" fill-opacity="1" /><path clip-path="url(#clip040)" d="M2738.26 14.324 L2738.26 27.2059 L2753.62 27.2059 L2753.62 32.9987 L2738.26 32.9987 L2738.26 57.6282 Q2738.26 63.1779 2739.76 64.7578 Q2741.3 66.3376 2745.96 66.3376 L2753.62 66.3376 L2753.62 72.576 L2745.96 72.576 Q2737.33 72.576 2734.05 69.3758 Q2730.77 66.1351 2730.77 57.6282 L2730.77 32.9987 L2725.3 32.9987 L2725.3 27.2059 L2730.77 27.2059 L2730.77 14.324 L2738.26 14.324 Z" fill="#000000" fill-rule="evenodd" fill-opacity="1" /><path clip-path="url(#clip040)" d="M2802.23 48.0275 L2802.23 51.6733 L2767.96 51.6733 Q2768.44 59.3701 2772.58 63.421 Q2776.75 67.4314 2784.16 67.4314 Q2788.45 67.4314 2792.47 66.3781 Q2796.52 65.3249 2800.49 63.2184 L2800.49 70.267 Q2796.48 71.9684 2792.26 72.8596 Q2788.05 73.7508 2783.72 73.7508 Q2772.86 73.7508 2766.5 67.4314 Q2760.18 61.1119 2760.18 50.3365 Q2760.18 39.1965 2766.17 32.6746 Q2772.21 26.1121 2782.42 26.1121 Q2791.57 26.1121 2796.88 32.0264 Q2802.23 37.9003 2802.23 48.0275 M2794.77 45.84 Q2794.69 39.7232 2791.33 36.0774 Q2788.01 32.4315 2782.5 32.4315 Q2776.26 32.4315 2772.49 35.9558 Q2768.77 39.4801 2768.2 45.8805 L2794.77 45.84 Z" fill="#000000" fill-rule="evenodd" fill-opacity="1" /><path clip-path="url(#clip040)" d="M2877.41 14.0809 L2877.41 22.0612 Q2872.75 19.8332 2868.62 18.7395 Q2864.49 17.6457 2860.64 17.6457 Q2853.96 17.6457 2850.31 20.2383 Q2846.71 22.8309 2846.71 27.611 Q2846.71 31.6214 2849.1 33.6873 Q2851.53 35.7128 2858.25 36.9686 L2863.19 37.9813 Q2872.35 39.7232 2876.68 44.1387 Q2881.06 48.5136 2881.06 55.8863 Q2881.06 64.6767 2875.14 69.2137 Q2869.27 73.7508 2857.89 73.7508 Q2853.59 73.7508 2848.73 72.7785 Q2843.91 71.8063 2838.73 69.9024 L2838.73 61.4765 Q2843.71 64.2716 2848.49 65.6895 Q2853.27 67.1073 2857.89 67.1073 Q2864.9 67.1073 2868.7 64.3527 Q2872.51 61.598 2872.51 56.4939 Q2872.51 52.0379 2869.76 49.5264 Q2867.04 47.0148 2860.8 45.759 L2855.82 44.7868 Q2846.67 42.9639 2842.58 39.075 Q2838.48 35.1862 2838.48 28.2591 Q2838.48 20.2383 2844.11 15.6203 Q2849.79 11.0023 2859.71 11.0023 Q2863.96 11.0023 2868.38 11.7719 Q2872.79 12.5416 2877.41 14.0809 Z" fill="#000000" fill-rule="evenodd" fill-opacity="1" /><path clip-path="url(#clip040)" d="M2900.71 65.7705 L2900.71 89.8329 L2893.21 89.8329 L2893.21 27.2059 L2900.71 27.2059 L2900.71 34.0924 Q2903.06 30.0415 2906.62 28.0971 Q2910.23 26.1121 2915.21 26.1121 Q2923.47 26.1121 2928.62 32.6746 Q2933.8 39.2371 2933.8 49.9314 Q2933.8 60.6258 2928.62 67.1883 Q2923.47 73.7508 2915.21 73.7508 Q2910.23 73.7508 2906.62 71.8063 Q2903.06 69.8214 2900.71 65.7705 M2926.06 49.9314 Q2926.06 41.7081 2922.66 37.0496 Q2919.3 32.3505 2913.38 32.3505 Q2907.47 32.3505 2904.07 37.0496 Q2900.71 41.7081 2900.71 49.9314 Q2900.71 58.1548 2904.07 62.8538 Q2907.47 67.5124 2913.38 67.5124 Q2919.3 67.5124 2922.66 62.8538 Q2926.06 58.1548 2926.06 49.9314 Z" fill="#000000" fill-rule="evenodd" fill-opacity="1" /><path clip-path="url(#clip040)" d="M2966.78 49.7694 Q2957.74 49.7694 2954.26 51.8354 Q2950.77 53.9013 2950.77 58.8839 Q2950.77 62.8538 2953.37 65.2034 Q2956 67.5124 2960.5 67.5124 Q2966.69 67.5124 2970.42 63.1374 Q2974.19 58.7219 2974.19 51.4303 L2974.19 49.7694 L2966.78 49.7694 M2981.64 46.6907 L2981.64 72.576 L2974.19 72.576 L2974.19 65.6895 Q2971.64 69.8214 2967.83 71.8063 Q2964.02 73.7508 2958.51 73.7508 Q2951.54 73.7508 2947.41 69.8619 Q2943.32 65.9325 2943.32 59.3701 Q2943.32 51.7138 2948.43 47.825 Q2953.57 43.9361 2963.74 43.9361 L2974.19 43.9361 L2974.19 43.2069 Q2974.19 38.0623 2970.79 35.2672 Q2967.42 32.4315 2961.31 32.4315 Q2957.42 32.4315 2953.73 33.3632 Q2950.05 34.295 2946.64 36.1584 L2946.64 29.2718 Q2950.73 27.692 2954.58 26.9223 Q2958.43 26.1121 2962.08 26.1121 Q2971.92 26.1121 2976.78 31.2163 Q2981.64 36.3204 2981.64 46.6907 Z" fill="#000000" fill-rule="evenodd" fill-opacity="1" /><path clip-path="url(#clip040)" d="M3029.65 28.9478 L3029.65 35.9153 Q3026.49 34.1734 3023.29 33.3227 Q3020.13 32.4315 3016.89 32.4315 Q3009.63 32.4315 3005.62 37.0496 Q3001.61 41.6271 3001.61 49.9314 Q3001.61 58.2358 3005.62 62.8538 Q3009.63 67.4314 3016.89 67.4314 Q3020.13 67.4314 3023.29 66.5807 Q3026.49 65.6895 3029.65 63.9476 L3029.65 70.8341 Q3026.53 72.2924 3023.16 73.0216 Q3019.84 73.7508 3016.08 73.7508 Q3005.83 73.7508 2999.79 67.3098 Q2993.75 60.8689 2993.75 49.9314 Q2993.75 38.832 2999.83 32.472 Q3005.95 26.1121 3016.56 26.1121 Q3020 26.1121 3023.29 26.8413 Q3026.57 27.5299 3029.65 28.9478 Z" fill="#000000" fill-rule="evenodd" fill-opacity="1" /><path clip-path="url(#clip040)" d="M3081.42 48.0275 L3081.42 51.6733 L3047.15 51.6733 Q3047.63 59.3701 3051.76 63.421 Q3055.94 67.4314 3063.35 67.4314 Q3067.64 67.4314 3071.65 66.3781 Q3075.7 65.3249 3079.67 63.2184 L3079.67 70.267 Q3075.66 71.9684 3071.45 72.8596 Q3067.24 73.7508 3062.9 73.7508 Q3052.05 73.7508 3045.69 67.4314 Q3039.37 61.1119 3039.37 50.3365 Q3039.37 39.1965 3045.36 32.6746 Q3051.4 26.1121 3061.61 26.1121 Q3070.76 26.1121 3076.07 32.0264 Q3081.42 37.9003 3081.42 48.0275 M3073.96 45.84 Q3073.88 39.7232 3070.52 36.0774 Q3067.2 32.4315 3061.69 32.4315 Q3055.45 32.4315 3051.68 35.9558 Q3047.96 39.4801 3047.39 45.8805 L3073.96 45.84 Z" fill="#000000" fill-rule="evenodd" fill-opacity="1" /><path clip-path="url(#clip040)" d="M3120.35 12.096 L3132.54 12.096 L3147.97 53.2532 L3163.49 12.096 L3175.68 12.096 L3175.68 72.576 L3167.7 72.576 L3167.7 19.4686 L3152.1 60.9499 L3143.88 60.9499 L3128.29 19.4686 L3128.29 72.576 L3120.35 72.576 L3120.35 12.096 Z" fill="#000000" fill-rule="evenodd" fill-opacity="1" /><path clip-path="url(#clip040)" d="M3209.18 32.4315 Q3203.19 32.4315 3199.7 37.1306 Q3196.22 41.7891 3196.22 49.9314 Q3196.22 58.0738 3199.66 62.7728 Q3203.15 67.4314 3209.18 67.4314 Q3215.14 67.4314 3218.62 62.7323 Q3222.1 58.0333 3222.1 49.9314 Q3222.1 41.8701 3218.62 37.1711 Q3215.14 32.4315 3209.18 32.4315 M3209.18 26.1121 Q3218.9 26.1121 3224.45 32.4315 Q3230 38.7509 3230 49.9314 Q3230 61.0714 3224.45 67.4314 Q3218.9 73.7508 3209.18 73.7508 Q3199.42 73.7508 3193.87 67.4314 Q3188.36 61.0714 3188.36 49.9314 Q3188.36 38.7509 3193.87 32.4315 Q3199.42 26.1121 3209.18 26.1121 Z" fill="#000000" fill-rule="evenodd" fill-opacity="1" /><path clip-path="url(#clip040)" d="M3272.21 34.0924 L3272.21 9.54393 L3279.67 9.54393 L3279.67 72.576 L3272.21 72.576 L3272.21 65.7705 Q3269.86 69.8214 3266.26 71.8063 Q3262.69 73.7508 3257.67 73.7508 Q3249.45 73.7508 3244.26 67.1883 Q3239.12 60.6258 3239.12 49.9314 Q3239.12 39.2371 3244.26 32.6746 Q3249.45 26.1121 3257.67 26.1121 Q3262.69 26.1121 3266.26 28.0971 Q3269.86 30.0415 3272.21 34.0924 M3246.81 49.9314 Q3246.81 58.1548 3250.18 62.8538 Q3253.58 67.5124 3259.49 67.5124 Q3265.41 67.5124 3268.81 62.8538 Q3272.21 58.1548 3272.21 49.9314 Q3272.21 41.7081 3268.81 37.0496 Q3265.41 32.3505 3259.49 32.3505 Q3253.58 32.3505 3250.18 37.0496 Q3246.81 41.7081 3246.81 49.9314 Z" fill="#000000" fill-rule="evenodd" fill-opacity="1" /><path clip-path="url(#clip040)" d="M3333.83 48.0275 L3333.83 51.6733 L3299.56 51.6733 Q3300.04 59.3701 3304.18 63.421 Q3308.35 67.4314 3315.76 67.4314 Q3320.06 67.4314 3324.07 66.3781 Q3328.12 65.3249 3332.09 63.2184 L3332.09 70.267 Q3328.08 71.9684 3323.86 72.8596 Q3319.65 73.7508 3315.32 73.7508 Q3304.46 73.7508 3298.1 67.4314 Q3291.78 61.1119 3291.78 50.3365 Q3291.78 39.1965 3297.78 32.6746 Q3303.81 26.1121 3314.02 26.1121 Q3323.17 26.1121 3328.48 32.0264 Q3333.83 37.9003 3333.83 48.0275 M3326.37 45.84 Q3326.29 39.7232 3322.93 36.0774 Q3319.61 32.4315 3314.1 32.4315 Q3307.86 32.4315 3304.09 35.9558 Q3300.37 39.4801 3299.8 45.8805 L3326.37 45.84 Z" fill="#000000" fill-rule="evenodd" fill-opacity="1" /><path clip-path="url(#clip040)" d="M3346.06 9.54393 L3353.52 9.54393 L3353.52 72.576 L3346.06 72.576 L3346.06 9.54393 Z" fill="#000000" fill-rule="evenodd" fill-opacity="1" /><polyline clip-path="url(#clip041)" style="stroke:#009af9; stroke-linecap:butt; stroke-linejoin:round; stroke-width:4; stroke-opacity:1; fill:none" points="
  571.509,1028.49 743.797,919.881 971.549,760.396 1143.84,635.985 1316.12,513.367 1488.41,390.388 1716.16,223.864 1888.45,104.253 1989.23,32.789 2060.74,-15.7437 
  2116.2,-55.648 2288.49,-200.837 
  "/>
<path clip-path="url(#clip041)" d="M571.509 1012.49 L555.509 1044.49 L587.509 1044.49 L571.509 1012.49 Z" fill="#009af9" fill-rule="evenodd" fill-opacity="1" stroke="#000000" stroke-opacity="1" stroke-width="3.2"/>
<path clip-path="url(#clip041)" d="M743.797 903.881 L727.797 935.881 L759.797 935.881 L743.797 903.881 Z" fill="#009af9" fill-rule="evenodd" fill-opacity="1" stroke="#000000" stroke-opacity="1" stroke-width="3.2"/>
<path clip-path="url(#clip041)" d="M971.549 744.396 L955.549 776.396 L987.549 776.396 L971.549 744.396 Z" fill="#009af9" fill-rule="evenodd" fill-opacity="1" stroke="#000000" stroke-opacity="1" stroke-width="3.2"/>
<path clip-path="url(#clip041)" d="M1143.84 619.985 L1127.84 651.985 L1159.84 651.985 L1143.84 619.985 Z" fill="#009af9" fill-rule="evenodd" fill-opacity="1" stroke="#000000" stroke-opacity="1" stroke-width="3.2"/>
<path clip-path="url(#clip041)" d="M1316.12 497.367 L1300.12 529.367 L1332.12 529.367 L1316.12 497.367 Z" fill="#009af9" fill-rule="evenodd" fill-opacity="1" stroke="#000000" stroke-opacity="1" stroke-width="3.2"/>
<path clip-path="url(#clip041)" d="M1488.41 374.388 L1472.41 406.388 L1504.41 406.388 L1488.41 374.388 Z" fill="#009af9" fill-rule="evenodd" fill-opacity="1" stroke="#000000" stroke-opacity="1" stroke-width="3.2"/>
<path clip-path="url(#clip041)" d="M1716.16 207.864 L1700.16 239.864 L1732.16 239.864 L1716.16 207.864 Z" fill="#009af9" fill-rule="evenodd" fill-opacity="1" stroke="#000000" stroke-opacity="1" stroke-width="3.2"/>
<path clip-path="url(#clip041)" d="M1888.45 88.2529 L1872.45 120.253 L1904.45 120.253 L1888.45 88.2529 Z" fill="#009af9" fill-rule="evenodd" fill-opacity="1" stroke="#000000" stroke-opacity="1" stroke-width="3.2"/>
<path clip-path="url(#clip041)" d="M1989.23 16.789 L1973.23 48.789 L2005.23 48.789 L1989.23 16.789 Z" fill="#009af9" fill-rule="evenodd" fill-opacity="1" stroke="#000000" stroke-opacity="1" stroke-width="3.2"/>
<path clip-path="url(#clip041)" d="M2060.74 -31.7437 L2044.74 0.256308 L2076.74 0.256308 L2060.74 -31.7437 Z" fill="#009af9" fill-rule="evenodd" fill-opacity="1" stroke="#000000" stroke-opacity="1" stroke-width="3.2"/>
<path clip-path="url(#clip041)" d="M2116.2 -71.648 L2100.2 -39.648 L2132.2 -39.648 L2116.2 -71.648 Z" fill="#009af9" fill-rule="evenodd" fill-opacity="1" stroke="#000000" stroke-opacity="1" stroke-width="3.2"/>
<path clip-path="url(#clip041)" d="M2288.49 -216.837 L2272.49 -184.837 L2304.49 -184.837 L2288.49 -216.837 Z" fill="#009af9" fill-rule="evenodd" fill-opacity="1" stroke="#000000" stroke-opacity="1" stroke-width="3.2"/>
<polyline clip-path="url(#clip041)" style="stroke:#e26f46; stroke-linecap:butt; stroke-linejoin:round; stroke-width:4; stroke-opacity:1; fill:none" points="
  571.509,895.279 743.797,799.723 971.549,656.548 1143.84,542.648 1316.12,425.585 1488.41,303.844 1716.16,145.935 1888.45,24.5159 1989.23,-47.7479 2060.74,-96.7741 
  2116.2,-157.685 2288.49,-272.94 
  "/>
<path clip-path="url(#clip041)" d="M571.509 879.279 L555.509 911.279 L587.509 911.279 L571.509 879.279 Z" fill="#e26f46" fill-rule="evenodd" fill-opacity="1" stroke="#000000" stroke-opacity="1" stroke-width="3.2"/>
<path clip-path="url(#clip041)" d="M743.797 783.723 L727.797 815.723 L759.797 815.723 L743.797 783.723 Z" fill="#e26f46" fill-rule="evenodd" fill-opacity="1" stroke="#000000" stroke-opacity="1" stroke-width="3.2"/>
<path clip-path="url(#clip041)" d="M971.549 640.548 L955.549 672.548 L987.549 672.548 L971.549 640.548 Z" fill="#e26f46" fill-rule="evenodd" fill-opacity="1" stroke="#000000" stroke-opacity="1" stroke-width="3.2"/>
<path clip-path="url(#clip041)" d="M1143.84 526.648 L1127.84 558.648 L1159.84 558.648 L1143.84 526.648 Z" fill="#e26f46" fill-rule="evenodd" fill-opacity="1" stroke="#000000" stroke-opacity="1" stroke-width="3.2"/>
<path clip-path="url(#clip041)" d="M1316.12 409.585 L1300.12 441.585 L1332.12 441.585 L1316.12 409.585 Z" fill="#e26f46" fill-rule="evenodd" fill-opacity="1" stroke="#000000" stroke-opacity="1" stroke-width="3.2"/>
<path clip-path="url(#clip041)" d="M1488.41 287.844 L1472.41 319.844 L1504.41 319.844 L1488.41 287.844 Z" fill="#e26f46" fill-rule="evenodd" fill-opacity="1" stroke="#000000" stroke-opacity="1" stroke-width="3.2"/>
<path clip-path="url(#clip041)" d="M1716.16 129.935 L1700.16 161.935 L1732.16 161.935 L1716.16 129.935 Z" fill="#e26f46" fill-rule="evenodd" fill-opacity="1" stroke="#000000" stroke-opacity="1" stroke-width="3.2"/>
<path clip-path="url(#clip041)" d="M1888.45 8.5159 L1872.45 40.5159 L1904.45 40.5159 L1888.45 8.5159 Z" fill="#e26f46" fill-rule="evenodd" fill-opacity="1" stroke="#000000" stroke-opacity="1" stroke-width="3.2"/>
<path clip-path="url(#clip041)" d="M1989.23 -63.7479 L1973.23 -31.7479 L2005.23 -31.7479 L1989.23 -63.7479 Z" fill="#e26f46" fill-rule="evenodd" fill-opacity="1" stroke="#000000" stroke-opacity="1" stroke-width="3.2"/>
<path clip-path="url(#clip041)" d="M2060.74 -112.774 L2044.74 -80.7741 L2076.74 -80.7741 L2060.74 -112.774 Z" fill="#e26f46" fill-rule="evenodd" fill-opacity="1" stroke="#000000" stroke-opacity="1" stroke-width="3.2"/>
<path clip-path="url(#clip041)" d="M2116.2 -173.685 L2100.2 -141.685 L2132.2 -141.685 L2116.2 -173.685 Z" fill="#e26f46" fill-rule="evenodd" fill-opacity="1" stroke="#000000" stroke-opacity="1" stroke-width="3.2"/>
<path clip-path="url(#clip041)" d="M2288.49 -288.94 L2272.49 -256.94 L2304.49 -256.94 L2288.49 -288.94 Z" fill="#e26f46" fill-rule="evenodd" fill-opacity="1" stroke="#000000" stroke-opacity="1" stroke-width="3.2"/>
<polyline clip-path="url(#clip041)" style="stroke:#3da44d; stroke-linecap:butt; stroke-linejoin:round; stroke-width:4; stroke-opacity:1; fill:none" points="
  571.509,528.527 743.797,409.765 971.549,250.653 1143.84,130.492 1316.12,10.2972 1488.41,-111.127 1716.16,-280.874 1888.45,-403.321 1989.23,-477.365 2060.74,-528.035 
  2116.2,-568.556 2288.49,-688.491 
  "/>
<path clip-path="url(#clip041)" d="M571.509 512.527 L555.509 528.527 L571.509 544.527 L587.509 528.527 L571.509 512.527 Z" fill="#3da44d" fill-rule="evenodd" fill-opacity="1" stroke="#000000" stroke-opacity="1" stroke-width="3.2"/>
<path clip-path="url(#clip041)" d="M743.797 393.765 L727.797 409.765 L743.797 425.765 L759.797 409.765 L743.797 393.765 Z" fill="#3da44d" fill-rule="evenodd" fill-opacity="1" stroke="#000000" stroke-opacity="1" stroke-width="3.2"/>
<path clip-path="url(#clip041)" d="M971.549 234.653 L955.549 250.653 L971.549 266.653 L987.549 250.653 L971.549 234.653 Z" fill="#3da44d" fill-rule="evenodd" fill-opacity="1" stroke="#000000" stroke-opacity="1" stroke-width="3.2"/>
<path clip-path="url(#clip041)" d="M1143.84 114.492 L1127.84 130.492 L1143.84 146.492 L1159.84 130.492 L1143.84 114.492 Z" fill="#3da44d" fill-rule="evenodd" fill-opacity="1" stroke="#000000" stroke-opacity="1" stroke-width="3.2"/>
<path clip-path="url(#clip041)" d="M1316.12 -5.70275 L1300.12 10.2972 L1316.12 26.2972 L1332.12 10.2972 L1316.12 -5.70275 Z" fill="#3da44d" fill-rule="evenodd" fill-opacity="1" stroke="#000000" stroke-opacity="1" stroke-width="3.2"/>
<path clip-path="url(#clip041)" d="M1488.41 -127.127 L1472.41 -111.127 L1488.41 -95.1266 L1504.41 -111.127 L1488.41 -127.127 Z" fill="#3da44d" fill-rule="evenodd" fill-opacity="1" stroke="#000000" stroke-opacity="1" stroke-width="3.2"/>
<path clip-path="url(#clip041)" d="M1716.16 -296.874 L1700.16 -280.874 L1716.16 -264.874 L1732.16 -280.874 L1716.16 -296.874 Z" fill="#3da44d" fill-rule="evenodd" fill-opacity="1" stroke="#000000" stroke-opacity="1" stroke-width="3.2"/>
<path clip-path="url(#clip041)" d="M1888.45 -419.321 L1872.45 -403.321 L1888.45 -387.321 L1904.45 -403.321 L1888.45 -419.321 Z" fill="#3da44d" fill-rule="evenodd" fill-opacity="1" stroke="#000000" stroke-opacity="1" stroke-width="3.2"/>
<path clip-path="url(#clip041)" d="M1989.23 -493.365 L1973.23 -477.365 L1989.23 -461.365 L2005.23 -477.365 L1989.23 -493.365 Z" fill="#3da44d" fill-rule="evenodd" fill-opacity="1" stroke="#000000" stroke-opacity="1" stroke-width="3.2"/>
<path clip-path="url(#clip041)" d="M2060.74 -544.035 L2044.74 -528.035 L2060.74 -512.035 L2076.74 -528.035 L2060.74 -544.035 Z" fill="#3da44d" fill-rule="evenodd" fill-opacity="1" stroke="#000000" stroke-opacity="1" stroke-width="3.2"/>
<path clip-path="url(#clip041)" d="M2116.2 -584.556 L2100.2 -568.556 L2116.2 -552.556 L2132.2 -568.556 L2116.2 -584.556 Z" fill="#3da44d" fill-rule="evenodd" fill-opacity="1" stroke="#000000" stroke-opacity="1" stroke-width="3.2"/>
<path clip-path="url(#clip041)" d="M2288.49 -704.491 L2272.49 -688.491 L2288.49 -672.491 L2304.49 -688.491 L2288.49 -704.491 Z" fill="#3da44d" fill-rule="evenodd" fill-opacity="1" stroke="#000000" stroke-opacity="1" stroke-width="3.2"/>
<path clip-path="url(#clip040)" d="
M2307.42 1415.39 L2557.82 1415.39 L2557.82 1208.03 L2307.42 1208.03  Z
  " fill="#ffffff" fill-rule="evenodd" fill-opacity="1"/>
<polyline clip-path="url(#clip040)" style="stroke:#000000; stroke-linecap:butt; stroke-linejoin:round; stroke-width:4; stroke-opacity:1; fill:none" points="
  2307.42,1415.39 2557.82,1415.39 2557.82,1208.03 2307.42,1208.03 2307.42,1415.39 
  "/>
<polyline clip-path="url(#clip040)" style="stroke:#009af9; stroke-linecap:butt; stroke-linejoin:round; stroke-width:4; stroke-opacity:1; fill:none" points="
  2305.73,1259.87 2295.6,1259.87 
  "/>
<path clip-path="url(#clip040)" d="M2300.66 1234.27 L2275.06 1285.47 L2326.26 1285.47 L2300.66 1234.27 Z" fill="#009af9" fill-rule="evenodd" fill-opacity="1" stroke="#000000" stroke-opacity="1" stroke-width="5.12"/>
<path clip-path="url(#clip040)" d="M2293.91 1242.59 L2298.59 1242.59 L2298.59 1257.19 L2314.09 1242.59 L2320.11 1242.59 L2302.96 1258.7 L2321.34 1277.15 L2315.18 1277.15 L2298.59 1260.5 L2298.59 1277.15 L2293.91 1277.15 L2293.91 1242.59 Z" fill="#000000" fill-rule="evenodd" fill-opacity="1" /><path clip-path="url(#clip040)" d="M2335.76 1264.11 Q2330.6 1264.11 2328.61 1265.29 Q2326.62 1266.47 2326.62 1269.32 Q2326.62 1271.59 2328.1 1272.93 Q2329.6 1274.25 2332.17 1274.25 Q2335.71 1274.25 2337.84 1271.75 Q2340 1269.23 2340 1265.06 L2340 1264.11 L2335.76 1264.11 M2344.26 1262.35 L2344.26 1277.15 L2340 1277.15 L2340 1273.21 Q2338.54 1275.57 2336.36 1276.71 Q2334.19 1277.82 2331.04 1277.82 Q2327.06 1277.82 2324.7 1275.59 Q2322.36 1273.35 2322.36 1269.6 Q2322.36 1265.22 2325.27 1263 Q2328.21 1260.78 2334.02 1260.78 L2340 1260.78 L2340 1260.36 Q2340 1257.42 2338.05 1255.83 Q2336.13 1254.21 2332.64 1254.21 Q2330.41 1254.21 2328.31 1254.74 Q2326.2 1255.27 2324.26 1256.34 L2324.26 1252.4 Q2326.59 1251.5 2328.79 1251.06 Q2330.99 1250.59 2333.08 1250.59 Q2338.7 1250.59 2341.48 1253.51 Q2344.26 1256.43 2344.26 1262.35 Z" fill="#000000" fill-rule="evenodd" fill-opacity="1" /><path clip-path="url(#clip040)" d="M2353.03 1241.13 L2357.29 1241.13 L2357.29 1277.15 L2353.03 1277.15 L2353.03 1241.13 Z" fill="#000000" fill-rule="evenodd" fill-opacity="1" /><path clip-path="url(#clip040)" d="M2386.39 1256.2 Q2387.98 1253.33 2390.21 1251.96 Q2392.43 1250.59 2395.44 1250.59 Q2399.49 1250.59 2401.69 1253.44 Q2403.89 1256.27 2403.89 1261.5 L2403.89 1277.15 L2399.6 1277.15 L2399.6 1261.64 Q2399.6 1257.91 2398.28 1256.1 Q2396.96 1254.3 2394.26 1254.3 Q2390.95 1254.3 2389.02 1256.5 Q2387.1 1258.7 2387.1 1262.49 L2387.1 1277.15 L2382.82 1277.15 L2382.82 1261.64 Q2382.82 1257.89 2381.5 1256.1 Q2380.18 1254.3 2377.43 1254.3 Q2374.16 1254.3 2372.24 1256.52 Q2370.32 1258.72 2370.32 1262.49 L2370.32 1277.15 L2366.04 1277.15 L2366.04 1251.22 L2370.32 1251.22 L2370.32 1255.25 Q2371.78 1252.86 2373.82 1251.73 Q2375.85 1250.59 2378.65 1250.59 Q2381.48 1250.59 2383.45 1252.03 Q2385.44 1253.47 2386.39 1256.2 Z" fill="#000000" fill-rule="evenodd" fill-opacity="1" /><path clip-path="url(#clip040)" d="M2424.16 1264.11 Q2419 1264.11 2417.01 1265.29 Q2415.02 1266.47 2415.02 1269.32 Q2415.02 1271.59 2416.5 1272.93 Q2418.01 1274.25 2420.58 1274.25 Q2424.12 1274.25 2426.25 1271.75 Q2428.4 1269.23 2428.4 1265.06 L2428.4 1264.11 L2424.16 1264.11 M2432.66 1262.35 L2432.66 1277.15 L2428.4 1277.15 L2428.4 1273.21 Q2426.94 1275.57 2424.77 1276.71 Q2422.59 1277.82 2419.44 1277.82 Q2415.46 1277.82 2413.1 1275.59 Q2410.76 1273.35 2410.76 1269.6 Q2410.76 1265.22 2413.68 1263 Q2416.62 1260.78 2422.43 1260.78 L2428.4 1260.78 L2428.4 1260.36 Q2428.4 1257.42 2426.45 1255.83 Q2424.53 1254.21 2421.04 1254.21 Q2418.82 1254.21 2416.71 1254.74 Q2414.6 1255.27 2412.66 1256.34 L2412.66 1252.4 Q2415 1251.5 2417.2 1251.06 Q2419.39 1250.59 2421.48 1250.59 Q2427.1 1250.59 2429.88 1253.51 Q2432.66 1256.43 2432.66 1262.35 Z" fill="#000000" fill-rule="evenodd" fill-opacity="1" /><path clip-path="url(#clip040)" d="M2462.98 1261.5 L2462.98 1277.15 L2458.72 1277.15 L2458.72 1261.64 Q2458.72 1257.96 2457.29 1256.13 Q2455.85 1254.3 2452.98 1254.3 Q2449.53 1254.3 2447.54 1256.5 Q2445.55 1258.7 2445.55 1262.49 L2445.55 1277.15 L2441.27 1277.15 L2441.27 1251.22 L2445.55 1251.22 L2445.55 1255.25 Q2447.08 1252.91 2449.14 1251.75 Q2451.22 1250.59 2453.93 1250.59 Q2458.4 1250.59 2460.69 1253.37 Q2462.98 1256.13 2462.98 1261.5 Z" fill="#000000" fill-rule="evenodd" fill-opacity="1" /><polyline clip-path="url(#clip040)" style="stroke:#e26f46; stroke-linecap:butt; stroke-linejoin:round; stroke-width:4; stroke-opacity:1; fill:none" points="
  2305.73,1311.71 2295.6,1311.71 
  "/>
<path clip-path="url(#clip040)" d="M2300.66 1286.11 L2275.06 1337.31 L2326.26 1337.31 L2300.66 1286.11 Z" fill="#e26f46" fill-rule="evenodd" fill-opacity="1" stroke="#000000" stroke-opacity="1" stroke-width="5.12"/>
<path clip-path="url(#clip040)" d="M2310.3 1312.78 Q2311.8 1313.29 2313.21 1314.96 Q2314.65 1316.62 2316.09 1319.54 L2320.83 1328.99 L2315.81 1328.99 L2311.39 1320.12 Q2309.67 1316.65 2308.05 1315.51 Q2306.46 1314.38 2303.68 1314.38 L2298.59 1314.38 L2298.59 1328.99 L2293.91 1328.99 L2293.91 1294.43 L2304.46 1294.43 Q2310.39 1294.43 2313.31 1296.9 Q2316.22 1299.38 2316.22 1304.38 Q2316.22 1307.64 2314.7 1309.8 Q2313.19 1311.95 2310.3 1312.78 M2298.59 1298.27 L2298.59 1310.54 L2304.46 1310.54 Q2307.84 1310.54 2309.56 1308.99 Q2311.29 1307.41 2311.29 1304.38 Q2311.29 1301.35 2309.56 1299.82 Q2307.84 1298.27 2304.46 1298.27 L2298.59 1298.27 Z" fill="#000000" fill-rule="evenodd" fill-opacity="1" /><path clip-path="url(#clip040)" d="M2346.71 1314.96 L2346.71 1317.04 L2327.13 1317.04 Q2327.4 1321.44 2329.77 1323.75 Q2332.15 1326.05 2336.39 1326.05 Q2338.84 1326.05 2341.13 1325.44 Q2343.45 1324.84 2345.71 1323.64 L2345.71 1327.67 Q2343.42 1328.64 2341.02 1329.15 Q2338.61 1329.66 2336.13 1329.66 Q2329.93 1329.66 2326.29 1326.05 Q2322.68 1322.43 2322.68 1316.28 Q2322.68 1309.91 2326.11 1306.18 Q2329.56 1302.43 2335.39 1302.43 Q2340.62 1302.43 2343.65 1305.81 Q2346.71 1309.17 2346.71 1314.96 M2342.45 1313.71 Q2342.4 1310.21 2340.48 1308.13 Q2338.58 1306.05 2335.44 1306.05 Q2331.87 1306.05 2329.72 1308.06 Q2327.59 1310.07 2327.27 1313.73 L2342.45 1313.71 Z" fill="#000000" fill-rule="evenodd" fill-opacity="1" /><path clip-path="url(#clip040)" d="M2365.48 1315.95 Q2360.32 1315.95 2358.33 1317.13 Q2356.34 1318.31 2356.34 1321.16 Q2356.34 1323.43 2357.82 1324.77 Q2359.33 1326.09 2361.89 1326.09 Q2365.44 1326.09 2367.57 1323.59 Q2369.72 1321.07 2369.72 1316.9 L2369.72 1315.95 L2365.48 1315.95 M2373.98 1314.19 L2373.98 1328.99 L2369.72 1328.99 L2369.72 1325.05 Q2368.26 1327.41 2366.08 1328.55 Q2363.91 1329.66 2360.76 1329.66 Q2356.78 1329.66 2354.42 1327.43 Q2352.08 1325.19 2352.08 1321.44 Q2352.08 1317.06 2355 1314.84 Q2357.94 1312.62 2363.75 1312.62 L2369.72 1312.62 L2369.72 1312.2 Q2369.72 1309.26 2367.77 1307.67 Q2365.85 1306.05 2362.36 1306.05 Q2360.14 1306.05 2358.03 1306.58 Q2355.92 1307.11 2353.98 1308.18 L2353.98 1304.24 Q2356.32 1303.34 2358.52 1302.9 Q2360.71 1302.43 2362.8 1302.43 Q2368.42 1302.43 2371.2 1305.35 Q2373.98 1308.27 2373.98 1314.19 Z" fill="#000000" fill-rule="evenodd" fill-opacity="1" /><path clip-path="url(#clip040)" d="M2401.41 1304.06 L2401.41 1308.04 Q2399.6 1307.04 2397.77 1306.56 Q2395.97 1306.05 2394.12 1306.05 Q2389.97 1306.05 2387.68 1308.68 Q2385.39 1311.3 2385.39 1316.05 Q2385.39 1320.79 2387.68 1323.43 Q2389.97 1326.05 2394.12 1326.05 Q2395.97 1326.05 2397.77 1325.56 Q2399.6 1325.05 2401.41 1324.06 L2401.41 1327.99 Q2399.63 1328.82 2397.7 1329.24 Q2395.81 1329.66 2393.65 1329.66 Q2387.8 1329.66 2384.35 1325.98 Q2380.9 1322.3 2380.9 1316.05 Q2380.9 1309.7 2384.37 1306.07 Q2387.87 1302.43 2393.93 1302.43 Q2395.9 1302.43 2397.77 1302.85 Q2399.65 1303.25 2401.41 1304.06 Z" fill="#000000" fill-rule="evenodd" fill-opacity="1" /><path clip-path="url(#clip040)" d="M2413.03 1295.7 L2413.03 1303.06 L2421.8 1303.06 L2421.8 1306.37 L2413.03 1306.37 L2413.03 1320.44 Q2413.03 1323.62 2413.89 1324.52 Q2414.77 1325.42 2417.43 1325.42 L2421.8 1325.42 L2421.8 1328.99 L2417.43 1328.99 Q2412.5 1328.99 2410.62 1327.16 Q2408.75 1325.31 2408.75 1320.44 L2408.75 1306.37 L2405.62 1306.37 L2405.62 1303.06 L2408.75 1303.06 L2408.75 1295.7 L2413.03 1295.7 Z" fill="#000000" fill-rule="evenodd" fill-opacity="1" /><path clip-path="url(#clip040)" d="M2427.4 1303.06 L2431.66 1303.06 L2431.66 1328.99 L2427.4 1328.99 L2427.4 1303.06 M2427.4 1292.97 L2431.66 1292.97 L2431.66 1298.36 L2427.4 1298.36 L2427.4 1292.97 Z" fill="#000000" fill-rule="evenodd" fill-opacity="1" /><path clip-path="url(#clip040)" d="M2437.52 1303.06 L2442.03 1303.06 L2450.14 1324.82 L2458.24 1303.06 L2462.75 1303.06 L2453.03 1328.99 L2447.24 1328.99 L2437.52 1303.06 Z" fill="#000000" fill-rule="evenodd" fill-opacity="1" /><path clip-path="url(#clip040)" d="M2490.81 1314.96 L2490.81 1317.04 L2471.22 1317.04 Q2471.5 1321.44 2473.86 1323.75 Q2476.25 1326.05 2480.48 1326.05 Q2482.94 1326.05 2485.23 1325.44 Q2487.54 1324.84 2489.81 1323.64 L2489.81 1327.67 Q2487.52 1328.64 2485.11 1329.15 Q2482.7 1329.66 2480.23 1329.66 Q2474.02 1329.66 2470.39 1326.05 Q2466.78 1322.43 2466.78 1316.28 Q2466.78 1309.91 2470.2 1306.18 Q2473.65 1302.43 2479.49 1302.43 Q2484.72 1302.43 2487.75 1305.81 Q2490.81 1309.17 2490.81 1314.96 M2486.55 1313.71 Q2486.5 1310.21 2484.58 1308.13 Q2482.68 1306.05 2479.53 1306.05 Q2475.97 1306.05 2473.82 1308.06 Q2471.69 1310.07 2471.36 1313.73 L2486.55 1313.71 Z" fill="#000000" fill-rule="evenodd" fill-opacity="1" /><path clip-path="url(#clip040)" d="M2497.98 1294.43 L2504.95 1294.43 L2513.77 1317.94 L2522.63 1294.43 L2529.6 1294.43 L2529.6 1328.99 L2525.04 1328.99 L2525.04 1298.64 L2516.13 1322.34 L2511.43 1322.34 L2502.52 1298.64 L2502.52 1328.99 L2497.98 1328.99 L2497.98 1294.43 Z" fill="#000000" fill-rule="evenodd" fill-opacity="1" /><path clip-path="url(#clip040)" d="M2543.56 1298.27 L2543.56 1311.25 L2549.44 1311.25 Q2552.7 1311.25 2554.49 1309.56 Q2556.27 1307.87 2556.27 1304.75 Q2556.27 1301.65 2554.49 1299.96 Q2552.7 1298.27 2549.44 1298.27 L2543.56 1298.27 M2538.88 1294.43 L2549.44 1294.43 Q2555.25 1294.43 2558.21 1297.06 Q2561.2 1299.68 2561.2 1304.75 Q2561.2 1309.87 2558.21 1312.48 Q2555.25 1315.1 2549.44 1315.1 L2543.56 1315.1 L2543.56 1328.99 L2538.88 1328.99 L2538.88 1294.43 Z" fill="#000000" fill-rule="evenodd" fill-opacity="1" /><polyline clip-path="url(#clip040)" style="stroke:#3da44d; stroke-linecap:butt; stroke-linejoin:round; stroke-width:4; stroke-opacity:1; fill:none" points="
  2305.73,1363.55 2295.6,1363.55 
  "/>
<path clip-path="url(#clip040)" d="M2300.66 1337.95 L2275.06 1363.55 L2300.66 1389.15 L2326.26 1363.55 L2300.66 1337.95 Z" fill="#3da44d" fill-rule="evenodd" fill-opacity="1" stroke="#000000" stroke-opacity="1" stroke-width="5.12"/>
<path clip-path="url(#clip040)" d="M2316.15 1347.4 L2316.15 1351.96 Q2313.49 1350.69 2311.13 1350.06 Q2308.77 1349.44 2306.57 1349.44 Q2302.75 1349.44 2300.67 1350.92 Q2298.61 1352.4 2298.61 1355.13 Q2298.61 1357.42 2299.97 1358.6 Q2301.36 1359.76 2305.21 1360.48 L2308.03 1361.06 Q2313.26 1362.05 2315.74 1364.58 Q2318.24 1367.08 2318.24 1371.29 Q2318.24 1376.31 2314.86 1378.9 Q2311.5 1381.5 2305 1381.5 Q2302.54 1381.5 2299.77 1380.94 Q2297.01 1380.39 2294.05 1379.3 L2294.05 1374.48 Q2296.9 1376.08 2299.63 1376.89 Q2302.36 1377.7 2305 1377.7 Q2309 1377.7 2311.18 1376.13 Q2313.35 1374.55 2313.35 1371.64 Q2313.35 1369.09 2311.78 1367.65 Q2310.23 1366.22 2306.66 1365.5 L2303.82 1364.95 Q2298.59 1363.9 2296.25 1361.68 Q2293.91 1359.46 2293.91 1355.5 Q2293.91 1350.92 2297.13 1348.28 Q2300.37 1345.64 2306.04 1345.64 Q2308.47 1345.64 2310.99 1346.08 Q2313.52 1346.52 2316.15 1347.4 Z" fill="#000000" fill-rule="evenodd" fill-opacity="1" /><path clip-path="url(#clip040)" d="M2330.21 1364.32 L2330.21 1376.98 L2337.71 1376.98 Q2341.48 1376.98 2343.28 1375.43 Q2345.11 1373.86 2345.11 1370.64 Q2345.11 1367.4 2343.28 1365.87 Q2341.48 1364.32 2337.71 1364.32 L2330.21 1364.32 M2330.21 1350.11 L2330.21 1360.52 L2337.13 1360.52 Q2340.55 1360.52 2342.22 1359.25 Q2343.91 1357.96 2343.91 1355.32 Q2343.91 1352.7 2342.22 1351.4 Q2340.55 1350.11 2337.13 1350.11 L2330.21 1350.11 M2325.53 1346.27 L2337.47 1346.27 Q2342.82 1346.27 2345.71 1348.49 Q2348.61 1350.71 2348.61 1354.81 Q2348.61 1357.98 2347.13 1359.85 Q2345.65 1361.73 2342.77 1362.19 Q2346.22 1362.93 2348.12 1365.29 Q2350.04 1367.63 2350.04 1371.15 Q2350.04 1375.78 2346.9 1378.3 Q2343.75 1380.83 2337.94 1380.83 L2325.53 1380.83 L2325.53 1346.27 Z" fill="#000000" fill-rule="evenodd" fill-opacity="1" /><path clip-path="url(#clip040)" d="M2362.73 1350.11 L2362.73 1363.09 L2368.61 1363.09 Q2371.87 1363.09 2373.65 1361.4 Q2375.44 1359.71 2375.44 1356.59 Q2375.44 1353.49 2373.65 1351.8 Q2371.87 1350.11 2368.61 1350.11 L2362.73 1350.11 M2358.05 1346.27 L2368.61 1346.27 Q2374.42 1346.27 2377.38 1348.9 Q2380.37 1351.52 2380.37 1356.59 Q2380.37 1361.71 2377.38 1364.32 Q2374.42 1366.94 2368.61 1366.94 L2362.73 1366.94 L2362.73 1380.83 L2358.05 1380.83 L2358.05 1346.27 Z" fill="#000000" fill-rule="evenodd" fill-opacity="1" /></svg>
