<?xml version="1.0" encoding="utf-8"?>
<svg xmlns="http://www.w3.org/2000/svg" xmlns:xlink="http://www.w3.org/1999/xlink" width="650" height="400" viewBox="0 0 2600 1600">
<defs>
  <clipPath id="clip210">
    <rect x="0" y="0" width="2600" height="1600"/>
  </clipPath>
</defs>
<path clip-path="url(#clip210)" d="
M0 1600 L2600 1600 L2600 0 L0 0  Z
  " fill="#ffffff" fill-rule="evenodd" fill-opacity="1"/>
<defs>
  <clipPath id="clip211">
    <rect x="520" y="0" width="1821" height="1600"/>
  </clipPath>
</defs>
<path clip-path="url(#clip210)" d="
M219.982 1418.16 L2552.76 1418.16 L2552.76 118.82 L219.982 118.82  Z
  " fill="#ffffff" fill-rule="evenodd" fill-opacity="1"/>
<defs>
  <clipPath id="clip212">
    <rect x="219" y="118" width="2334" height="1300"/>
  </clipPath>
</defs>
<polyline clip-path="url(#clip212)" style="stroke:#000000; stroke-linecap:butt; stroke-linejoin:round; stroke-width:2; stroke-opacity:0.1; fill:none" points="
  506.832,1418.16 506.832,118.82 
  "/>
<polyline clip-path="url(#clip212)" style="stroke:#000000; stroke-linecap:butt; stroke-linejoin:round; stroke-width:2; stroke-opacity:0.1; fill:none" points="
  1240.41,1418.16 1240.41,118.82 
  "/>
<polyline clip-path="url(#clip212)" style="stroke:#000000; stroke-linecap:butt; stroke-linejoin:round; stroke-width:2; stroke-opacity:0.1; fill:none" points="
  1973.99,1418.16 1973.99,118.82 
  "/>
<polyline clip-path="url(#clip210)" style="stroke:#000000; stroke-linecap:butt; stroke-linejoin:round; stroke-width:4; stroke-opacity:1; fill:none" points="
  219.982,1418.16 2552.76,1418.16 
  "/>
<polyline clip-path="url(#clip210)" style="stroke:#000000; stroke-linecap:butt; stroke-linejoin:round; stroke-width:4; stroke-opacity:1; fill:none" points="
  506.832,1418.16 506.832,1399.26 
  "/>
<polyline clip-path="url(#clip210)" style="stroke:#000000; stroke-linecap:butt; stroke-linejoin:round; stroke-width:4; stroke-opacity:1; fill:none" points="
  1240.41,1418.16 1240.41,1399.26 
  "/>
<polyline clip-path="url(#clip210)" style="stroke:#000000; stroke-linecap:butt; stroke-linejoin:round; stroke-width:4; stroke-opacity:1; fill:none" points="
  1973.99,1418.16 1973.99,1399.26 
  "/>
<path clip-path="url(#clip210)" d="M472.605 1493.88 L480.244 1493.88 L480.244 1467.51 L471.934 1469.18 L471.934 1464.92 L480.198 1463.26 L484.873 1463.26 L484.873 1493.88 L492.512 1493.88 L492.512 1497.82 L472.605 1497.82 L472.605 1493.88 Z" fill="#000000" fill-rule="evenodd" fill-opacity="1" /><path clip-path="url(#clip210)" d="M511.957 1466.33 Q508.346 1466.33 506.517 1469.9 Q504.711 1473.44 504.711 1480.57 Q504.711 1487.68 506.517 1491.24 Q508.346 1494.78 511.957 1494.78 Q515.591 1494.78 517.396 1491.24 Q519.225 1487.68 519.225 1480.57 Q519.225 1473.44 517.396 1469.9 Q515.591 1466.33 511.957 1466.33 M511.957 1462.63 Q517.767 1462.63 520.822 1467.24 Q523.901 1471.82 523.901 1480.57 Q523.901 1489.3 520.822 1493.9 Q517.767 1498.49 511.957 1498.49 Q506.146 1498.49 503.068 1493.9 Q500.012 1489.3 500.012 1480.57 Q500.012 1471.82 503.068 1467.24 Q506.146 1462.63 511.957 1462.63 Z" fill="#000000" fill-rule="evenodd" fill-opacity="1" /><path clip-path="url(#clip210)" d="M528.471 1467.21 L541.731 1467.21 L541.731 1470.4 L523.901 1470.4 L523.901 1467.21 Q526.064 1464.97 529.788 1461.21 Q533.531 1457.43 534.49 1456.34 Q536.314 1454.29 537.029 1452.88 Q537.762 1451.45 537.762 1450.07 Q537.762 1447.84 536.182 1446.43 Q534.621 1445.01 532.101 1445.01 Q530.314 1445.01 528.321 1445.64 Q526.346 1446.26 524.089 1447.52 L524.089 1443.68 Q526.384 1442.76 528.377 1442.29 Q530.371 1441.82 532.026 1441.82 Q536.389 1441.82 538.985 1444 Q541.58 1446.18 541.58 1449.83 Q541.58 1451.56 540.922 1453.12 Q540.283 1454.66 538.571 1456.77 Q538.101 1457.31 535.581 1459.93 Q533.06 1462.52 528.471 1467.21 Z" fill="#000000" fill-rule="evenodd" fill-opacity="1" /><path clip-path="url(#clip210)" d="M1205.85 1493.88 L1213.49 1493.88 L1213.49 1467.51 L1205.18 1469.18 L1205.18 1464.92 L1213.45 1463.26 L1218.12 1463.26 L1218.12 1493.88 L1225.76 1493.88 L1225.76 1497.82 L1205.85 1497.82 L1205.85 1493.88 Z" fill="#000000" fill-rule="evenodd" fill-opacity="1" /><path clip-path="url(#clip210)" d="M1245.2 1466.33 Q1241.59 1466.33 1239.76 1469.9 Q1237.96 1473.44 1237.96 1480.57 Q1237.96 1487.68 1239.76 1491.24 Q1241.59 1494.78 1245.2 1494.78 Q1248.84 1494.78 1250.64 1491.24 Q1252.47 1487.68 1252.47 1480.57 Q1252.47 1473.44 1250.64 1469.9 Q1248.84 1466.33 1245.2 1466.33 M1245.2 1462.63 Q1251.01 1462.63 1254.07 1467.24 Q1257.15 1471.82 1257.15 1480.57 Q1257.15 1489.3 1254.07 1493.9 Q1251.01 1498.49 1245.2 1498.49 Q1239.39 1498.49 1236.32 1493.9 Q1233.26 1489.3 1233.26 1480.57 Q1233.26 1471.82 1236.32 1467.24 Q1239.39 1462.63 1245.2 1462.63 Z" fill="#000000" fill-rule="evenodd" fill-opacity="1" /><path clip-path="url(#clip210)" d="M1269.84 1455.26 Q1272.57 1455.85 1274.09 1457.69 Q1275.64 1459.53 1275.64 1462.24 Q1275.64 1466.4 1272.78 1468.67 Q1269.92 1470.95 1264.65 1470.95 Q1262.89 1470.95 1261 1470.59 Q1259.14 1470.25 1257.15 1469.56 L1257.15 1465.89 Q1258.73 1466.81 1260.61 1467.28 Q1262.49 1467.75 1264.54 1467.75 Q1268.11 1467.75 1269.98 1466.34 Q1271.86 1464.93 1271.86 1462.24 Q1271.86 1459.76 1270.11 1458.37 Q1268.38 1456.96 1265.27 1456.96 L1262 1456.96 L1262 1453.84 L1265.42 1453.84 Q1268.23 1453.84 1269.71 1452.73 Q1271.2 1451.6 1271.2 1449.49 Q1271.2 1447.33 1269.66 1446.18 Q1268.13 1445.01 1265.27 1445.01 Q1263.71 1445.01 1261.93 1445.35 Q1260.14 1445.69 1258 1446.41 L1258 1443.02 Q1260.16 1442.42 1262.04 1442.12 Q1263.94 1441.82 1265.61 1441.82 Q1269.94 1441.82 1272.46 1443.79 Q1274.98 1445.75 1274.98 1449.1 Q1274.98 1451.43 1273.64 1453.05 Q1272.31 1454.64 1269.84 1455.26 Z" fill="#000000" fill-rule="evenodd" fill-opacity="1" /><path clip-path="url(#clip210)" d="M1938.44 1493.88 L1946.08 1493.88 L1946.08 1467.51 L1937.77 1469.18 L1937.77 1464.92 L1946.03 1463.26 L1950.71 1463.26 L1950.71 1493.88 L1958.35 1493.88 L1958.35 1497.82 L1938.44 1497.82 L1938.44 1493.88 Z" fill="#000000" fill-rule="evenodd" fill-opacity="1" /><path clip-path="url(#clip210)" d="M1977.79 1466.33 Q1974.18 1466.33 1972.35 1469.9 Q1970.55 1473.44 1970.55 1480.57 Q1970.55 1487.68 1972.35 1491.24 Q1974.18 1494.78 1977.79 1494.78 Q1981.43 1494.78 1983.23 1491.24 Q1985.06 1487.68 1985.06 1480.57 Q1985.06 1473.44 1983.23 1469.9 Q1981.43 1466.33 1977.79 1466.33 M1977.79 1462.63 Q1983.6 1462.63 1986.66 1467.24 Q1989.74 1471.82 1989.74 1480.57 Q1989.74 1489.3 1986.66 1493.9 Q1983.6 1498.49 1977.79 1498.49 Q1971.98 1498.49 1968.9 1493.9 Q1965.85 1489.3 1965.85 1480.57 Q1965.85 1471.82 1968.9 1467.24 Q1971.98 1462.63 1977.79 1462.63 Z" fill="#000000" fill-rule="evenodd" fill-opacity="1" /><path clip-path="url(#clip210)" d="M2002.41 1445.64 L1992.82 1460.62 L2002.41 1460.62 L2002.41 1445.64 M2001.42 1442.32 L2006.19 1442.32 L2006.19 1460.62 L2010.2 1460.62 L2010.2 1463.78 L2006.19 1463.78 L2006.19 1470.4 L2002.41 1470.4 L2002.41 1463.78 L1989.74 1463.78 L1989.74 1460.12 L2001.42 1442.32 Z" fill="#000000" fill-rule="evenodd" fill-opacity="1" /><path clip-path="url(#clip210)" d="M998.363 1536.92 L1007.02 1536.92 L1028.09 1576.68 L1028.09 1536.92 L1034.33 1536.92 L1034.33 1584.44 L1025.67 1584.44 L1004.6 1544.69 L1004.6 1584.44 L998.363 1584.44 L998.363 1536.92 Z" fill="#000000" fill-rule="evenodd" fill-opacity="1" /><path clip-path="url(#clip210)" d="M1046.27 1570.38 L1046.27 1548.8 L1052.12 1548.8 L1052.12 1570.15 Q1052.12 1575.21 1054.09 1577.76 Q1056.07 1580.27 1060.01 1580.27 Q1064.76 1580.27 1067.49 1577.25 Q1070.26 1574.23 1070.26 1569.01 L1070.26 1548.8 L1076.12 1548.8 L1076.12 1584.44 L1070.26 1584.44 L1070.26 1578.97 Q1068.13 1582.22 1065.3 1583.81 Q1062.5 1585.37 1058.77 1585.37 Q1052.63 1585.37 1049.45 1581.55 Q1046.27 1577.73 1046.27 1570.38 M1061 1547.94 L1061 1547.94 Z" fill="#000000" fill-rule="evenodd" fill-opacity="1" /><path clip-path="url(#clip210)" d="M1115.94 1555.64 Q1118.13 1551.69 1121.19 1549.81 Q1124.24 1547.94 1128.38 1547.94 Q1133.95 1547.94 1136.98 1551.85 Q1140 1555.73 1140 1562.93 L1140 1584.44 L1134.11 1584.44 L1134.11 1563.12 Q1134.11 1557.99 1132.3 1555.51 Q1130.48 1553.03 1126.76 1553.03 Q1122.21 1553.03 1119.57 1556.05 Q1116.92 1559.08 1116.92 1564.3 L1116.92 1584.44 L1111.04 1584.44 L1111.04 1563.12 Q1111.04 1557.96 1109.22 1555.51 Q1107.41 1553.03 1103.62 1553.03 Q1099.13 1553.03 1096.49 1556.08 Q1093.85 1559.11 1093.85 1564.3 L1093.85 1584.44 L1087.96 1584.44 L1087.96 1548.8 L1093.85 1548.8 L1093.85 1554.33 Q1095.85 1551.06 1098.65 1549.5 Q1101.46 1547.94 1105.31 1547.94 Q1109.19 1547.94 1111.9 1549.91 Q1114.63 1551.88 1115.94 1555.64 Z" fill="#000000" fill-rule="evenodd" fill-opacity="1" /><path clip-path="url(#clip210)" d="M1177.27 1566.65 Q1177.27 1560.19 1174.6 1556.53 Q1171.96 1552.84 1167.31 1552.84 Q1162.66 1552.84 1159.99 1556.53 Q1157.35 1560.19 1157.35 1566.65 Q1157.35 1573.11 1159.99 1576.81 Q1162.66 1580.47 1167.31 1580.47 Q1171.96 1580.47 1174.6 1576.81 Q1177.27 1573.11 1177.27 1566.65 M1157.35 1554.21 Q1159.19 1551.02 1161.99 1549.5 Q1164.83 1547.94 1168.74 1547.94 Q1175.23 1547.94 1179.28 1553.09 Q1183.35 1558.25 1183.35 1566.65 Q1183.35 1575.05 1179.28 1580.21 Q1175.23 1585.37 1168.74 1585.37 Q1164.83 1585.37 1161.99 1583.84 Q1159.19 1582.28 1157.35 1579.1 L1157.35 1584.44 L1151.46 1584.44 L1151.46 1534.92 L1157.35 1534.92 L1157.35 1554.21 Z" fill="#000000" fill-rule="evenodd" fill-opacity="1" /><path clip-path="url(#clip210)" d="M1223.55 1565.16 L1223.55 1568.02 L1196.62 1568.02 Q1197 1574.07 1200.25 1577.25 Q1203.53 1580.4 1209.35 1580.4 Q1212.73 1580.4 1215.88 1579.57 Q1219.06 1578.75 1222.18 1577.09 L1222.18 1582.63 Q1219.03 1583.97 1215.72 1584.67 Q1212.41 1585.37 1209 1585.37 Q1200.47 1585.37 1195.48 1580.4 Q1190.51 1575.44 1190.51 1566.97 Q1190.51 1558.22 1195.22 1553.09 Q1199.97 1547.94 1207.99 1547.94 Q1215.18 1547.94 1219.35 1552.58 Q1223.55 1557.2 1223.55 1565.16 M1217.69 1563.44 Q1217.63 1558.63 1214.99 1555.77 Q1212.38 1552.9 1208.05 1552.9 Q1203.15 1552.9 1200.19 1555.67 Q1197.26 1558.44 1196.81 1563.47 L1217.69 1563.44 Z" fill="#000000" fill-rule="evenodd" fill-opacity="1" /><path clip-path="url(#clip210)" d="M1253.82 1554.27 Q1252.83 1553.7 1251.65 1553.44 Q1250.51 1553.16 1249.11 1553.16 Q1244.14 1553.16 1241.47 1556.4 Q1238.83 1559.62 1238.83 1565.67 L1238.83 1584.44 L1232.94 1584.44 L1232.94 1548.8 L1238.83 1548.8 L1238.83 1554.33 Q1240.67 1551.09 1243.63 1549.53 Q1246.59 1547.94 1250.83 1547.94 Q1251.43 1547.94 1252.16 1548.03 Q1252.9 1548.1 1253.79 1548.26 L1253.82 1554.27 Z" fill="#000000" fill-rule="evenodd" fill-opacity="1" /><path clip-path="url(#clip210)" d="M1294.5 1552.9 Q1289.79 1552.9 1287.05 1556.59 Q1284.31 1560.25 1284.31 1566.65 Q1284.31 1573.05 1287.02 1576.74 Q1289.75 1580.4 1294.5 1580.4 Q1299.17 1580.4 1301.91 1576.71 Q1304.65 1573.02 1304.65 1566.65 Q1304.65 1560.32 1301.91 1556.63 Q1299.17 1552.9 1294.5 1552.9 M1294.5 1547.94 Q1302.13 1547.94 1306.5 1552.9 Q1310.86 1557.87 1310.86 1566.65 Q1310.86 1575.4 1306.5 1580.4 Q1302.13 1585.37 1294.5 1585.37 Q1286.83 1585.37 1282.46 1580.4 Q1278.14 1575.4 1278.14 1566.65 Q1278.14 1557.87 1282.46 1552.9 Q1286.83 1547.94 1294.5 1547.94 Z" fill="#000000" fill-rule="evenodd" fill-opacity="1" /><path clip-path="url(#clip210)" d="M1338.61 1534.92 L1338.61 1539.79 L1333.01 1539.79 Q1329.86 1539.79 1328.62 1541.06 Q1327.41 1542.34 1327.41 1545.65 L1327.41 1548.8 L1337.05 1548.8 L1337.05 1553.35 L1327.41 1553.35 L1327.41 1584.44 L1321.52 1584.44 L1321.52 1553.35 L1315.92 1553.35 L1315.92 1548.8 L1321.52 1548.8 L1321.52 1546.31 Q1321.52 1540.36 1324.29 1537.66 Q1327.06 1534.92 1333.07 1534.92 L1338.61 1534.92 Z" fill="#000000" fill-rule="evenodd" fill-opacity="1" /><path clip-path="url(#clip210)" d="M1378.05 1552.9 Q1373.34 1552.9 1370.6 1556.59 Q1367.86 1560.25 1367.86 1566.65 Q1367.86 1573.05 1370.57 1576.74 Q1373.3 1580.4 1378.05 1580.4 Q1382.72 1580.4 1385.46 1576.71 Q1388.2 1573.02 1388.2 1566.65 Q1388.2 1560.32 1385.46 1556.63 Q1382.72 1552.9 1378.05 1552.9 M1378.05 1547.94 Q1385.68 1547.94 1390.05 1552.9 Q1394.41 1557.87 1394.41 1566.65 Q1394.41 1575.4 1390.05 1580.4 Q1385.68 1585.37 1378.05 1585.37 Q1370.37 1585.37 1366.01 1580.4 Q1361.69 1575.4 1361.69 1566.65 Q1361.69 1557.87 1366.01 1552.9 Q1370.37 1547.94 1378.05 1547.94 Z" fill="#000000" fill-rule="evenodd" fill-opacity="1" /><path clip-path="url(#clip210)" d="M1429.7 1566.65 Q1429.7 1560.19 1427.03 1556.53 Q1424.39 1552.84 1419.74 1552.84 Q1415.09 1552.84 1412.42 1556.53 Q1409.78 1560.19 1409.78 1566.65 Q1409.78 1573.11 1412.42 1576.81 Q1415.09 1580.47 1419.74 1580.47 Q1424.39 1580.47 1427.03 1576.81 Q1429.7 1573.11 1429.7 1566.65 M1409.78 1554.21 Q1411.62 1551.02 1414.43 1549.5 Q1417.26 1547.94 1421.17 1547.94 Q1427.67 1547.94 1431.71 1553.09 Q1435.78 1558.25 1435.78 1566.65 Q1435.78 1575.05 1431.71 1580.21 Q1427.67 1585.37 1421.17 1585.37 Q1417.26 1585.37 1414.43 1583.84 Q1411.62 1582.28 1409.78 1579.1 L1409.78 1584.44 L1403.89 1584.44 L1403.89 1534.92 L1409.78 1534.92 L1409.78 1554.21 Z" fill="#000000" fill-rule="evenodd" fill-opacity="1" /><path clip-path="url(#clip210)" d="M1468.22 1549.85 L1468.22 1555.38 Q1465.73 1554.11 1463.06 1553.47 Q1460.39 1552.84 1457.52 1552.84 Q1453.16 1552.84 1450.96 1554.18 Q1448.8 1555.51 1448.8 1558.19 Q1448.8 1560.22 1450.36 1561.4 Q1451.92 1562.55 1456.63 1563.6 L1458.64 1564.04 Q1464.87 1565.38 1467.48 1567.83 Q1470.13 1570.25 1470.13 1574.61 Q1470.13 1579.57 1466.18 1582.47 Q1462.26 1585.37 1455.39 1585.37 Q1452.52 1585.37 1449.41 1584.79 Q1446.32 1584.25 1442.88 1583.14 L1442.88 1577.09 Q1446.13 1578.78 1449.28 1579.64 Q1452.43 1580.47 1455.52 1580.47 Q1459.65 1580.47 1461.88 1579.07 Q1464.11 1577.63 1464.11 1575.05 Q1464.11 1572.67 1462.49 1571.39 Q1460.9 1570.12 1455.45 1568.94 L1453.42 1568.47 Q1447.97 1567.32 1445.55 1564.97 Q1443.13 1562.58 1443.13 1558.44 Q1443.13 1553.41 1446.7 1550.67 Q1450.26 1547.94 1456.82 1547.94 Q1460.07 1547.94 1462.93 1548.41 Q1465.8 1548.89 1468.22 1549.85 Z" fill="#000000" fill-rule="evenodd" fill-opacity="1" /><path clip-path="url(#clip210)" d="M1509.94 1565.16 L1509.94 1568.02 L1483.02 1568.02 Q1483.4 1574.07 1486.64 1577.25 Q1489.92 1580.4 1495.75 1580.4 Q1499.12 1580.4 1502.27 1579.57 Q1505.46 1578.75 1508.57 1577.09 L1508.57 1582.63 Q1505.42 1583.97 1502.11 1584.67 Q1498.8 1585.37 1495.4 1585.37 Q1486.87 1585.37 1481.87 1580.4 Q1476.91 1575.44 1476.91 1566.97 Q1476.91 1558.22 1481.62 1553.09 Q1486.36 1547.94 1494.38 1547.94 Q1501.57 1547.94 1505.74 1552.58 Q1509.94 1557.2 1509.94 1565.16 M1504.09 1563.44 Q1504.02 1558.63 1501.38 1555.77 Q1498.77 1552.9 1494.44 1552.9 Q1489.54 1552.9 1486.58 1555.67 Q1483.65 1558.44 1483.21 1563.47 L1504.09 1563.44 Z" fill="#000000" fill-rule="evenodd" fill-opacity="1" /><path clip-path="url(#clip210)" d="M1540.21 1554.27 Q1539.23 1553.7 1538.05 1553.44 Q1536.9 1553.16 1535.5 1553.16 Q1530.54 1553.16 1527.86 1556.4 Q1525.22 1559.62 1525.22 1565.67 L1525.22 1584.44 L1519.33 1584.44 L1519.33 1548.8 L1525.22 1548.8 L1525.22 1554.33 Q1527.07 1551.09 1530.03 1549.53 Q1532.99 1547.94 1537.22 1547.94 Q1537.82 1547.94 1538.56 1548.03 Q1539.29 1548.1 1540.18 1548.26 L1540.21 1554.27 Z" fill="#000000" fill-rule="evenodd" fill-opacity="1" /><path clip-path="url(#clip210)" d="M1542.15 1548.8 L1548.36 1548.8 L1559.5 1578.72 L1570.64 1548.8 L1576.85 1548.8 L1563.48 1584.44 L1555.52 1584.44 L1542.15 1548.8 Z" fill="#000000" fill-rule="evenodd" fill-opacity="1" /><path clip-path="url(#clip210)" d="M1601.13 1566.52 Q1594.03 1566.52 1591.3 1568.15 Q1588.56 1569.77 1588.56 1573.69 Q1588.56 1576.81 1590.6 1578.65 Q1592.67 1580.47 1596.2 1580.47 Q1601.07 1580.47 1604 1577.03 Q1606.96 1573.56 1606.96 1567.83 L1606.96 1566.52 L1601.13 1566.52 M1612.81 1564.11 L1612.81 1584.44 L1606.96 1584.44 L1606.96 1579.03 Q1604.95 1582.28 1601.96 1583.84 Q1598.97 1585.37 1594.64 1585.37 Q1589.16 1585.37 1585.92 1582.31 Q1582.7 1579.22 1582.7 1574.07 Q1582.7 1568.05 1586.71 1565 Q1590.76 1561.94 1598.74 1561.94 L1606.96 1561.94 L1606.96 1561.37 Q1606.96 1557.33 1604.28 1555.13 Q1601.64 1552.9 1596.83 1552.9 Q1593.78 1552.9 1590.88 1553.63 Q1587.99 1554.37 1585.31 1555.83 L1585.31 1550.42 Q1588.53 1549.18 1591.55 1548.57 Q1594.58 1547.94 1597.44 1547.94 Q1605.17 1547.94 1608.99 1551.95 Q1612.81 1555.96 1612.81 1564.11 Z" fill="#000000" fill-rule="evenodd" fill-opacity="1" /><path clip-path="url(#clip210)" d="M1630.67 1538.67 L1630.67 1548.8 L1642.73 1548.8 L1642.73 1553.35 L1630.67 1553.35 L1630.67 1572.7 Q1630.67 1577.06 1631.85 1578.3 Q1633.06 1579.54 1636.72 1579.54 L1642.73 1579.54 L1642.73 1584.44 L1636.72 1584.44 Q1629.94 1584.44 1627.36 1581.93 Q1624.78 1579.38 1624.78 1572.7 L1624.78 1553.35 L1620.48 1553.35 L1620.48 1548.8 L1624.78 1548.8 L1624.78 1538.67 L1630.67 1538.67 Z" fill="#000000" fill-rule="evenodd" fill-opacity="1" /><path clip-path="url(#clip210)" d="M1650.43 1548.8 L1656.29 1548.8 L1656.29 1584.44 L1650.43 1584.44 L1650.43 1548.8 M1650.43 1534.92 L1656.29 1534.92 L1656.29 1542.34 L1650.43 1542.34 L1650.43 1534.92 Z" fill="#000000" fill-rule="evenodd" fill-opacity="1" /><path clip-path="url(#clip210)" d="M1682.36 1552.9 Q1677.65 1552.9 1674.91 1556.59 Q1672.17 1560.25 1672.17 1566.65 Q1672.17 1573.05 1674.88 1576.74 Q1677.62 1580.4 1682.36 1580.4 Q1687.04 1580.4 1689.77 1576.71 Q1692.51 1573.02 1692.51 1566.65 Q1692.51 1560.32 1689.77 1556.63 Q1687.04 1552.9 1682.36 1552.9 M1682.36 1547.94 Q1690 1547.94 1694.36 1552.9 Q1698.72 1557.87 1698.72 1566.65 Q1698.72 1575.4 1694.36 1580.4 Q1690 1585.37 1682.36 1585.37 Q1674.69 1585.37 1670.33 1580.4 Q1666 1575.4 1666 1566.65 Q1666 1557.87 1670.33 1552.9 Q1674.69 1547.94 1682.36 1547.94 Z" fill="#000000" fill-rule="evenodd" fill-opacity="1" /><path clip-path="url(#clip210)" d="M1738.06 1562.93 L1738.06 1584.44 L1732.2 1584.44 L1732.2 1563.12 Q1732.2 1558.06 1730.23 1555.54 Q1728.25 1553.03 1724.31 1553.03 Q1719.57 1553.03 1716.83 1556.05 Q1714.09 1559.08 1714.09 1564.3 L1714.09 1584.44 L1708.2 1584.44 L1708.2 1548.8 L1714.09 1548.8 L1714.09 1554.33 Q1716.19 1551.12 1719.02 1549.53 Q1721.89 1547.94 1725.61 1547.94 Q1731.76 1547.94 1734.91 1551.76 Q1738.06 1555.54 1738.06 1562.93 Z" fill="#000000" fill-rule="evenodd" fill-opacity="1" /><path clip-path="url(#clip210)" d="M1772.46 1549.85 L1772.46 1555.38 Q1769.98 1554.11 1767.31 1553.47 Q1764.64 1552.84 1761.77 1552.84 Q1757.41 1552.84 1755.21 1554.18 Q1753.05 1555.51 1753.05 1558.19 Q1753.05 1560.22 1754.61 1561.4 Q1756.17 1562.55 1760.88 1563.6 L1762.88 1564.04 Q1769.12 1565.38 1771.73 1567.83 Q1774.37 1570.25 1774.37 1574.61 Q1774.37 1579.57 1770.43 1582.47 Q1766.51 1585.37 1759.64 1585.37 Q1756.77 1585.37 1753.65 1584.79 Q1750.57 1584.25 1747.13 1583.14 L1747.13 1577.09 Q1750.38 1578.78 1753.53 1579.64 Q1756.68 1580.47 1759.77 1580.47 Q1763.9 1580.47 1766.13 1579.07 Q1768.36 1577.63 1768.36 1575.05 Q1768.36 1572.67 1766.74 1571.39 Q1765.14 1570.12 1759.7 1568.94 L1757.66 1568.47 Q1752.22 1567.32 1749.8 1564.97 Q1747.38 1562.58 1747.38 1558.44 Q1747.38 1553.41 1750.95 1550.67 Q1754.51 1547.94 1761.07 1547.94 Q1764.32 1547.94 1767.18 1548.41 Q1770.05 1548.89 1772.46 1549.85 Z" fill="#000000" fill-rule="evenodd" fill-opacity="1" /><polyline clip-path="url(#clip212)" style="stroke:#000000; stroke-linecap:butt; stroke-linejoin:round; stroke-width:2; stroke-opacity:0.1; fill:none" points="
  219.982,1198.1 2552.76,1198.1 
  "/>
<polyline clip-path="url(#clip212)" style="stroke:#000000; stroke-linecap:butt; stroke-linejoin:round; stroke-width:2; stroke-opacity:0.1; fill:none" points="
  219.982,646.264 2552.76,646.264 
  "/>
<polyline clip-path="url(#clip210)" style="stroke:#000000; stroke-linecap:butt; stroke-linejoin:round; stroke-width:4; stroke-opacity:1; fill:none" points="
  219.982,1418.16 219.982,118.82 
  "/>
<polyline clip-path="url(#clip210)" style="stroke:#000000; stroke-linecap:butt; stroke-linejoin:round; stroke-width:4; stroke-opacity:1; fill:none" points="
  219.982,1198.1 238.879,1198.1 
  "/>
<polyline clip-path="url(#clip210)" style="stroke:#000000; stroke-linecap:butt; stroke-linejoin:round; stroke-width:4; stroke-opacity:1; fill:none" points="
  219.982,646.264 238.879,646.264 
  "/>
<path clip-path="url(#clip210)" d="M110.276 1217.9 L117.915 1217.9 L117.915 1191.53 L109.605 1193.2 L109.605 1188.94 L117.869 1187.27 L122.545 1187.27 L122.545 1217.9 L130.183 1217.9 L130.183 1221.83 L110.276 1221.83 L110.276 1217.9 Z" fill="#000000" fill-rule="evenodd" fill-opacity="1" /><path clip-path="url(#clip210)" d="M149.628 1190.35 Q146.017 1190.35 144.188 1193.92 Q142.382 1197.46 142.382 1204.59 Q142.382 1211.69 144.188 1215.26 Q146.017 1218.8 149.628 1218.8 Q153.262 1218.8 155.067 1215.26 Q156.896 1211.69 156.896 1204.59 Q156.896 1197.46 155.067 1193.92 Q153.262 1190.35 149.628 1190.35 M149.628 1186.65 Q155.438 1186.65 158.493 1191.25 Q161.572 1195.84 161.572 1204.59 Q161.572 1213.31 158.493 1217.92 Q155.438 1222.5 149.628 1222.5 Q143.818 1222.5 140.739 1217.92 Q137.683 1213.31 137.683 1204.59 Q137.683 1195.84 140.739 1191.25 Q143.818 1186.65 149.628 1186.65 Z" fill="#000000" fill-rule="evenodd" fill-opacity="1" /><path clip-path="url(#clip210)" d="M171.277 1168.84 Q168.343 1168.84 166.857 1171.74 Q165.39 1174.62 165.39 1180.41 Q165.39 1186.18 166.857 1189.08 Q168.343 1191.96 171.277 1191.96 Q174.23 1191.96 175.697 1189.08 Q177.183 1186.18 177.183 1180.41 Q177.183 1174.62 175.697 1171.74 Q174.23 1168.84 171.277 1168.84 M171.277 1165.83 Q175.998 1165.83 178.48 1169.58 Q180.982 1173.3 180.982 1180.41 Q180.982 1187.5 178.48 1191.24 Q175.998 1194.97 171.277 1194.97 Q166.556 1194.97 164.055 1191.24 Q161.572 1187.5 161.572 1180.41 Q161.572 1173.3 164.055 1169.58 Q166.556 1165.83 171.277 1165.83 Z" fill="#000000" fill-rule="evenodd" fill-opacity="1" /><path clip-path="url(#clip210)" d="M111.856 666.057 L119.495 666.057 L119.495 639.691 L111.185 641.358 L111.185 637.098 L119.448 635.432 L124.124 635.432 L124.124 666.057 L131.763 666.057 L131.763 669.992 L111.856 669.992 L111.856 666.057 Z" fill="#000000" fill-rule="evenodd" fill-opacity="1" /><path clip-path="url(#clip210)" d="M151.208 638.51 Q147.596 638.51 145.768 642.075 Q143.962 645.617 143.962 652.746 Q143.962 659.853 145.768 663.418 Q147.596 666.959 151.208 666.959 Q154.842 666.959 156.647 663.418 Q158.476 659.853 158.476 652.746 Q158.476 645.617 156.647 642.075 Q154.842 638.51 151.208 638.51 M151.208 634.807 Q157.018 634.807 160.073 639.413 Q163.152 643.996 163.152 652.746 Q163.152 661.473 160.073 666.08 Q157.018 670.663 151.208 670.663 Q145.397 670.663 142.319 666.08 Q139.263 661.473 139.263 652.746 Q139.263 643.996 142.319 639.413 Q145.397 634.807 151.208 634.807 Z" fill="#000000" fill-rule="evenodd" fill-opacity="1" /><path clip-path="url(#clip210)" d="M167.722 639.384 L180.982 639.384 L180.982 642.581 L163.152 642.581 L163.152 639.384 Q165.315 637.146 169.039 633.384 Q172.782 629.604 173.741 628.513 Q175.565 626.463 176.28 625.052 Q177.013 623.623 177.013 622.25 Q177.013 620.012 175.433 618.601 Q173.872 617.191 171.352 617.191 Q169.565 617.191 167.572 617.811 Q165.597 618.432 163.34 619.692 L163.34 615.855 Q165.635 614.934 167.628 614.464 Q169.622 613.993 171.277 613.993 Q175.64 613.993 178.236 616.175 Q180.831 618.357 180.831 622.006 Q180.831 623.736 180.173 625.297 Q179.534 626.839 177.822 628.946 Q177.352 629.491 174.832 632.105 Q172.311 634.701 167.722 639.384 Z" fill="#000000" fill-rule="evenodd" fill-opacity="1" /><path clip-path="url(#clip210)" d="M8.82877 1291.3 L8.82877 1281.72 L41.1666 1269.6 L8.82877 1257.41 L8.82877 1247.83 L56.3488 1247.83 L56.3488 1254.1 L14.6216 1254.1 L47.214 1266.35 L47.214 1272.81 L14.6216 1285.06 L56.3488 1285.06 L56.3488 1291.3 L8.82877 1291.3 Z" fill="#000000" fill-rule="evenodd" fill-opacity="1" /><path clip-path="url(#clip210)" d="M20.7008 1235.32 L20.7008 1229.46 L56.3488 1229.46 L56.3488 1235.32 L20.7008 1235.32 M6.82358 1235.32 L6.82358 1229.46 L14.2396 1229.46 L14.2396 1235.32 L6.82358 1235.32 Z" fill="#000000" fill-rule="evenodd" fill-opacity="1" /><path clip-path="url(#clip210)" d="M34.8327 1187.57 L56.3488 1187.57 L56.3488 1193.43 L35.0237 1193.43 Q29.9629 1193.43 27.4485 1195.4 Q24.934 1197.38 24.934 1201.32 Q24.934 1206.07 27.9577 1208.8 Q30.9814 1211.54 36.2013 1211.54 L56.3488 1211.54 L56.3488 1217.43 L20.7008 1217.43 L20.7008 1211.54 L26.239 1211.54 Q23.0243 1209.44 21.4329 1206.61 Q19.8414 1203.74 19.8414 1200.02 Q19.8414 1193.88 23.6609 1190.72 Q27.4485 1187.57 34.8327 1187.57 Z" fill="#000000" fill-rule="evenodd" fill-opacity="1" /><path clip-path="url(#clip210)" d="M20.7008 1175.89 L20.7008 1170.04 L56.3488 1170.04 L56.3488 1175.89 L20.7008 1175.89 M6.82358 1175.89 L6.82358 1170.04 L14.2396 1170.04 L14.2396 1175.89 L6.82358 1175.89 Z" fill="#000000" fill-rule="evenodd" fill-opacity="1" /><path clip-path="url(#clip210)" d="M27.544 1130.03 Q23.5972 1127.83 21.7193 1124.78 Q19.8414 1121.72 19.8414 1117.58 Q19.8414 1112.01 23.7564 1108.99 Q27.6394 1105.97 34.8327 1105.97 L56.3488 1105.97 L56.3488 1111.85 L35.0237 1111.85 Q29.8993 1111.85 27.4166 1113.67 Q24.934 1115.48 24.934 1119.21 Q24.934 1123.76 27.9577 1126.4 Q30.9814 1129.04 36.2013 1129.04 L56.3488 1129.04 L56.3488 1134.93 L35.0237 1134.93 Q29.8674 1134.93 27.4166 1136.74 Q24.934 1138.56 24.934 1142.35 Q24.934 1146.83 27.9895 1149.48 Q31.0133 1152.12 36.2013 1152.12 L56.3488 1152.12 L56.3488 1158.01 L20.7008 1158.01 L20.7008 1152.12 L26.239 1152.12 Q22.9606 1150.11 21.401 1147.31 Q19.8414 1144.51 19.8414 1140.66 Q19.8414 1136.78 21.8148 1134.07 Q23.7882 1131.33 27.544 1130.03 Z" fill="#000000" fill-rule="evenodd" fill-opacity="1" /><path clip-path="url(#clip210)" d="M42.2806 1094.89 L20.7008 1094.89 L20.7008 1089.03 L42.0578 1089.03 Q47.1185 1089.03 49.6648 1087.06 Q52.1792 1085.09 52.1792 1081.14 Q52.1792 1076.4 49.1555 1073.66 Q46.1318 1070.89 40.9119 1070.89 L20.7008 1070.89 L20.7008 1065.03 L56.3488 1065.03 L56.3488 1070.89 L50.8743 1070.89 Q54.1208 1073.02 55.7122 1075.86 Q57.2718 1078.66 57.2718 1082.38 Q57.2718 1088.52 53.4524 1091.71 Q49.633 1094.89 42.2806 1094.89 M19.8414 1080.15 L19.8414 1080.15 Z" fill="#000000" fill-rule="evenodd" fill-opacity="1" /><path clip-path="url(#clip210)" d="M27.544 1025.22 Q23.5972 1023.02 21.7193 1019.96 Q19.8414 1016.91 19.8414 1012.77 Q19.8414 1007.2 23.7564 1004.18 Q27.6394 1001.15 34.8327 1001.15 L56.3488 1001.15 L56.3488 1007.04 L35.0237 1007.04 Q29.8993 1007.04 27.4166 1008.86 Q24.934 1010.67 24.934 1014.39 Q24.934 1018.95 27.9577 1021.59 Q30.9814 1024.23 36.2013 1024.23 L56.3488 1024.23 L56.3488 1030.12 L35.0237 1030.12 Q29.8674 1030.12 27.4166 1031.93 Q24.934 1033.75 24.934 1037.53 Q24.934 1042.02 27.9895 1044.66 Q31.0133 1047.31 36.2013 1047.31 L56.3488 1047.31 L56.3488 1053.19 L20.7008 1053.19 L20.7008 1047.31 L26.239 1047.31 Q22.9606 1045.3 21.401 1042.5 Q19.8414 1039.7 19.8414 1035.85 Q19.8414 1031.96 21.8148 1029.26 Q23.7882 1026.52 27.544 1025.22 Z" fill="#000000" fill-rule="evenodd" fill-opacity="1" /><path clip-path="url(#clip210)" d="M37.0607 938.261 L39.9252 938.261 L39.9252 965.188 Q45.9727 964.806 49.1555 961.559 Q52.3065 958.281 52.3065 952.457 Q52.3065 949.083 51.479 945.932 Q50.6515 942.749 48.9964 939.63 L54.5345 939.63 Q55.8713 942.781 56.5716 946.091 Q57.2718 949.401 57.2718 952.807 Q57.2718 961.337 52.3065 966.334 Q47.3413 971.299 38.8749 971.299 Q30.1221 971.299 24.9977 966.588 Q19.8414 961.846 19.8414 953.825 Q19.8414 946.632 24.4884 942.462 Q29.1035 938.261 37.0607 938.261 M35.3419 944.117 Q30.5358 944.181 27.6713 946.823 Q24.8067 949.433 24.8067 953.761 Q24.8067 958.663 27.5758 961.623 Q30.3449 964.551 35.3738 964.997 L35.3419 944.117 Z" fill="#000000" fill-rule="evenodd" fill-opacity="1" /><path clip-path="url(#clip210)" d="M20.7008 900.162 L38.0474 913.053 L56.3488 899.494 L56.3488 906.401 L42.3442 916.777 L56.3488 927.153 L56.3488 934.06 L37.6973 920.214 L20.7008 932.882 L20.7008 925.975 L33.4004 916.522 L20.7008 907.069 L20.7008 900.162 Z" fill="#000000" fill-rule="evenodd" fill-opacity="1" /><path clip-path="url(#clip210)" d="M37.0607 862.732 L39.9252 862.732 L39.9252 889.659 Q45.9727 889.277 49.1555 886.03 Q52.3065 882.752 52.3065 876.927 Q52.3065 873.554 51.479 870.403 Q50.6515 867.22 48.9964 864.1 L54.5345 864.1 Q55.8713 867.252 56.5716 870.562 Q57.2718 873.872 57.2718 877.278 Q57.2718 885.808 52.3065 890.805 Q47.3413 895.77 38.8749 895.77 Q30.1221 895.77 24.9977 891.059 Q19.8414 886.317 19.8414 878.296 Q19.8414 871.103 24.4884 866.933 Q29.1035 862.732 37.0607 862.732 M35.3419 868.588 Q30.5358 868.652 27.6713 871.294 Q24.8067 873.904 24.8067 878.232 Q24.8067 883.134 27.5758 886.094 Q30.3449 889.022 35.3738 889.468 L35.3419 868.588 Z" fill="#000000" fill-rule="evenodd" fill-opacity="1" /><path clip-path="url(#clip210)" d="M22.0694 827.466 L27.544 827.466 Q26.1753 829.948 25.5069 832.463 Q24.8067 834.946 24.8067 837.492 Q24.8067 843.189 28.4351 846.34 Q32.0318 849.491 38.5566 849.491 Q45.0815 849.491 48.7099 846.34 Q52.3065 843.189 52.3065 837.492 Q52.3065 834.946 51.6381 832.463 Q50.9379 829.948 49.5693 827.466 L54.9801 827.466 Q56.126 829.917 56.6989 832.558 Q57.2718 835.168 57.2718 838.128 Q57.2718 846.181 52.2111 850.923 Q47.1503 855.666 38.5566 855.666 Q29.8356 855.666 24.8385 850.892 Q19.8414 846.086 19.8414 837.746 Q19.8414 835.041 20.4144 832.463 Q20.9554 829.885 22.0694 827.466 Z" fill="#000000" fill-rule="evenodd" fill-opacity="1" /><path clip-path="url(#clip210)" d="M42.2806 817.885 L20.7008 817.885 L20.7008 812.029 L42.0578 812.029 Q47.1185 812.029 49.6648 810.056 Q52.1792 808.082 52.1792 804.136 Q52.1792 799.393 49.1555 796.656 Q46.1318 793.887 40.9119 793.887 L20.7008 793.887 L20.7008 788.03 L56.3488 788.03 L56.3488 793.887 L50.8743 793.887 Q54.1208 796.019 55.7122 798.852 Q57.2718 801.653 57.2718 805.377 Q57.2718 811.52 53.4524 814.703 Q49.633 817.885 42.2806 817.885 M19.8414 803.149 L19.8414 803.149 Z" fill="#000000" fill-rule="evenodd" fill-opacity="1" /><path clip-path="url(#clip210)" d="M10.5793 770.174 L20.7008 770.174 L20.7008 758.111 L25.2523 758.111 L25.2523 770.174 L44.604 770.174 Q48.9646 770.174 50.2059 768.997 Q51.4472 767.787 51.4472 764.127 L51.4472 758.111 L56.3488 758.111 L56.3488 764.127 Q56.3488 770.907 53.8343 773.485 Q51.288 776.063 44.604 776.063 L25.2523 776.063 L25.2523 780.36 L20.7008 780.36 L20.7008 776.063 L10.5793 776.063 L10.5793 770.174 Z" fill="#000000" fill-rule="evenodd" fill-opacity="1" /><path clip-path="url(#clip210)" d="M20.7008 750.409 L20.7008 744.553 L56.3488 744.553 L56.3488 750.409 L20.7008 750.409 M6.82358 750.409 L6.82358 744.553 L14.2396 744.553 L14.2396 750.409 L6.82358 750.409 Z" fill="#000000" fill-rule="evenodd" fill-opacity="1" /><path clip-path="url(#clip210)" d="M24.8067 718.485 Q24.8067 723.196 28.4988 725.933 Q32.1591 728.67 38.5566 728.67 Q44.9542 728.67 48.6463 725.965 Q52.3065 723.227 52.3065 718.485 Q52.3065 713.806 48.6144 711.069 Q44.9223 708.332 38.5566 708.332 Q32.2227 708.332 28.5306 711.069 Q24.8067 713.806 24.8067 718.485 M19.8414 718.485 Q19.8414 710.846 24.8067 706.486 Q29.7719 702.125 38.5566 702.125 Q47.3095 702.125 52.3065 706.486 Q57.2718 710.846 57.2718 718.485 Q57.2718 726.156 52.3065 730.516 Q47.3095 734.845 38.5566 734.845 Q29.7719 734.845 24.8067 730.516 Q19.8414 726.156 19.8414 718.485 Z" fill="#000000" fill-rule="evenodd" fill-opacity="1" /><path clip-path="url(#clip210)" d="M34.8327 662.785 L56.3488 662.785 L56.3488 668.641 L35.0237 668.641 Q29.9629 668.641 27.4485 670.615 Q24.934 672.588 24.934 676.535 Q24.934 681.277 27.9577 684.015 Q30.9814 686.752 36.2013 686.752 L56.3488 686.752 L56.3488 692.64 L20.7008 692.64 L20.7008 686.752 L26.239 686.752 Q23.0243 684.651 21.4329 681.818 Q19.8414 678.954 19.8414 675.23 Q19.8414 669.087 23.6609 665.936 Q27.4485 662.785 34.8327 662.785 Z" fill="#000000" fill-rule="evenodd" fill-opacity="1" /><path clip-path="url(#clip210)" d="M10.5793 624.591 L20.7008 624.591 L20.7008 612.528 L25.2523 612.528 L25.2523 624.591 L44.604 624.591 Q48.9646 624.591 50.2059 623.413 Q51.4472 622.204 51.4472 618.543 L51.4472 612.528 L56.3488 612.528 L56.3488 618.543 Q56.3488 625.323 53.8343 627.901 Q51.288 630.479 44.604 630.479 L25.2523 630.479 L25.2523 634.776 L20.7008 634.776 L20.7008 630.479 L10.5793 630.479 L10.5793 624.591 Z" fill="#000000" fill-rule="evenodd" fill-opacity="1" /><path clip-path="url(#clip210)" d="M20.7008 604.825 L20.7008 598.969 L56.3488 598.969 L56.3488 604.825 L20.7008 604.825 M6.82358 604.825 L6.82358 598.969 L14.2396 598.969 L14.2396 604.825 L6.82358 604.825 Z" fill="#000000" fill-rule="evenodd" fill-opacity="1" /><path clip-path="url(#clip210)" d="M27.544 558.96 Q23.5972 556.764 21.7193 553.709 Q19.8414 550.653 19.8414 546.515 Q19.8414 540.945 23.7564 537.922 Q27.6394 534.898 34.8327 534.898 L56.3488 534.898 L56.3488 540.786 L35.0237 540.786 Q29.8993 540.786 27.4166 542.6 Q24.934 544.415 24.934 548.139 Q24.934 552.69 27.9577 555.332 Q30.9814 557.974 36.2013 557.974 L56.3488 557.974 L56.3488 563.862 L35.0237 563.862 Q29.8674 563.862 27.4166 565.676 Q24.934 567.49 24.934 571.278 Q24.934 575.766 27.9895 578.408 Q31.0133 581.049 36.2013 581.049 L56.3488 581.049 L56.3488 586.938 L20.7008 586.938 L20.7008 581.049 L26.239 581.049 Q22.9606 579.044 21.401 576.243 Q19.8414 573.442 19.8414 569.591 Q19.8414 565.708 21.8148 563.003 Q23.7882 560.265 27.544 558.96 Z" fill="#000000" fill-rule="evenodd" fill-opacity="1" /><path clip-path="url(#clip210)" d="M37.0607 492.725 L39.9252 492.725 L39.9252 519.652 Q45.9727 519.27 49.1555 516.024 Q52.3065 512.745 52.3065 506.921 Q52.3065 503.547 51.479 500.396 Q50.6515 497.213 48.9964 494.094 L54.5345 494.094 Q55.8713 497.245 56.5716 500.555 Q57.2718 503.865 57.2718 507.271 Q57.2718 515.801 52.3065 520.798 Q47.3413 525.763 38.8749 525.763 Q30.1221 525.763 24.9977 521.053 Q19.8414 516.31 19.8414 508.289 Q19.8414 501.096 24.4884 496.927 Q29.1035 492.725 37.0607 492.725 M35.3419 498.582 Q30.5358 498.645 27.6713 501.287 Q24.8067 503.897 24.8067 508.226 Q24.8067 513.127 27.5758 516.087 Q30.3449 519.016 35.3738 519.461 L35.3419 498.582 Z" fill="#000000" fill-rule="evenodd" fill-opacity="1" /><path clip-path="url(#clip210)" d="M6.88723 448.324 Q14.2078 452.589 21.3692 454.658 Q28.5306 456.727 35.883 456.727 Q43.2354 456.727 50.4605 454.658 Q57.6537 452.558 64.9425 448.324 L64.9425 453.417 Q57.4628 458.191 50.2377 460.578 Q43.0126 462.934 35.883 462.934 Q28.7853 462.934 21.592 460.578 Q14.3988 458.223 6.88723 453.417 L6.88723 448.324 Z" fill="#000000" fill-rule="evenodd" fill-opacity="1" /><path clip-path="url(#clip210)" d="M20.7008 436.962 L20.7008 431.105 L56.3488 431.105 L56.3488 436.962 L20.7008 436.962 M6.82358 436.962 L6.82358 431.105 L14.2396 431.105 L14.2396 436.962 L6.82358 436.962 Z" fill="#000000" fill-rule="evenodd" fill-opacity="1" /><path clip-path="url(#clip210)" d="M34.8327 389.219 L56.3488 389.219 L56.3488 395.075 L35.0237 395.075 Q29.9629 395.075 27.4485 397.049 Q24.934 399.022 24.934 402.969 Q24.934 407.711 27.9577 410.448 Q30.9814 413.186 36.2013 413.186 L56.3488 413.186 L56.3488 419.074 L20.7008 419.074 L20.7008 413.186 L26.239 413.186 Q23.0243 411.085 21.4329 408.252 Q19.8414 405.388 19.8414 401.664 Q19.8414 395.521 23.6609 392.37 Q27.4485 389.219 34.8327 389.219 Z" fill="#000000" fill-rule="evenodd" fill-opacity="1" /><path clip-path="url(#clip210)" d="M27.544 329.063 Q23.5972 326.867 21.7193 323.811 Q19.8414 320.756 19.8414 316.618 Q19.8414 311.048 23.7564 308.024 Q27.6394 305 34.8327 305 L56.3488 305 L56.3488 310.889 L35.0237 310.889 Q29.8993 310.889 27.4166 312.703 Q24.934 314.517 24.934 318.241 Q24.934 322.793 27.9577 325.434 Q30.9814 328.076 36.2013 328.076 L56.3488 328.076 L56.3488 333.964 L35.0237 333.964 Q29.8674 333.964 27.4166 335.779 Q24.934 337.593 24.934 341.38 Q24.934 345.868 27.9895 348.51 Q31.0133 351.152 36.2013 351.152 L56.3488 351.152 L56.3488 357.04 L20.7008 357.04 L20.7008 351.152 L26.239 351.152 Q22.9606 349.147 21.401 346.346 Q19.8414 343.545 19.8414 339.694 Q19.8414 335.811 21.8148 333.105 Q23.7882 330.368 27.544 329.063 Z" fill="#000000" fill-rule="evenodd" fill-opacity="1" /><path clip-path="url(#clip210)" d="M21.7512 270.594 L27.2893 270.594 Q26.0162 273.076 25.3796 275.75 Q24.743 278.424 24.743 281.288 Q24.743 285.649 26.0798 287.845 Q27.4166 290.009 30.0902 290.009 Q32.1273 290.009 33.3049 288.45 Q34.4507 286.89 35.5011 282.179 L35.9467 280.174 Q37.2835 273.936 39.7343 271.326 Q42.1532 268.684 46.5138 268.684 Q51.479 268.684 54.3754 272.631 Q57.2718 276.546 57.2718 283.421 Q57.2718 286.285 56.6989 289.405 Q56.1578 292.492 55.0438 295.929 L48.9964 295.929 Q50.6833 292.683 51.5427 289.532 Q52.3702 286.381 52.3702 283.293 Q52.3702 279.156 50.9698 276.928 Q49.5375 274.7 46.9594 274.7 Q44.5722 274.7 43.2991 276.323 Q42.0259 277.914 40.8483 283.357 L40.3708 285.394 Q39.225 290.837 36.8697 293.256 Q34.4826 295.675 30.3449 295.675 Q25.316 295.675 22.5787 292.11 Q19.8414 288.545 19.8414 281.988 Q19.8414 278.742 20.3189 275.877 Q20.7963 273.013 21.7512 270.594 Z" fill="#000000" fill-rule="evenodd" fill-opacity="1" /><path clip-path="url(#clip210)" d="M6.88723 260.281 L6.88723 255.189 Q14.3988 250.415 21.592 248.059 Q28.7853 245.672 35.883 245.672 Q43.0126 245.672 50.2377 248.059 Q57.4628 250.415 64.9425 255.189 L64.9425 260.281 Q57.6537 256.048 50.4605 253.979 Q43.2354 251.879 35.883 251.879 Q28.5306 251.879 21.3692 253.979 Q14.2078 256.048 6.88723 260.281 Z" fill="#000000" fill-rule="evenodd" fill-opacity="1" /><path clip-path="url(#clip210)" d="M661.601 12.096 L669.784 12.096 L669.784 65.6895 L699.234 65.6895 L699.234 72.576 L661.601 72.576 L661.601 12.096 Z" fill="#000000" fill-rule="evenodd" fill-opacity="1" /><path clip-path="url(#clip210)" d="M707.498 27.2059 L714.952 27.2059 L714.952 72.576 L707.498 72.576 L707.498 27.2059 M707.498 9.54393 L714.952 9.54393 L714.952 18.9825 L707.498 18.9825 L707.498 9.54393 Z" fill="#000000" fill-rule="evenodd" fill-opacity="1" /><path clip-path="url(#clip210)" d="M768.262 45.1919 L768.262 72.576 L760.808 72.576 L760.808 45.4349 Q760.808 38.994 758.296 35.7938 Q755.785 32.5936 750.762 32.5936 Q744.726 32.5936 741.242 36.4419 Q737.758 40.2903 737.758 46.9338 L737.758 72.576 L730.264 72.576 L730.264 27.2059 L737.758 27.2059 L737.758 34.2544 Q740.432 30.163 744.037 28.1376 Q747.683 26.1121 752.423 26.1121 Q760.241 26.1121 764.251 30.9732 Q768.262 35.7938 768.262 45.1919 Z" fill="#000000" fill-rule="evenodd" fill-opacity="1" /><path clip-path="url(#clip210)" d="M821.936 48.0275 L821.936 51.6733 L787.665 51.6733 Q788.152 59.3701 792.283 63.421 Q796.456 67.4314 803.869 67.4314 Q808.163 67.4314 812.173 66.3781 Q816.224 65.3249 820.194 63.2184 L820.194 70.267 Q816.184 71.9684 811.971 72.8596 Q807.758 73.7508 803.423 73.7508 Q792.567 73.7508 786.207 67.4314 Q779.888 61.1119 779.888 50.3365 Q779.888 39.1965 785.883 32.6746 Q791.919 26.1121 802.127 26.1121 Q811.282 26.1121 816.589 32.0264 Q821.936 37.9003 821.936 48.0275 M814.482 45.84 Q814.401 39.7232 811.039 36.0774 Q807.717 32.4315 802.208 32.4315 Q795.97 32.4315 792.202 35.9558 Q788.476 39.4801 787.908 45.8805 L814.482 45.84 Z" fill="#000000" fill-rule="evenodd" fill-opacity="1" /><path clip-path="url(#clip210)" d="M854.789 49.7694 Q845.755 49.7694 842.272 51.8354 Q838.788 53.9013 838.788 58.8839 Q838.788 62.8538 841.38 65.2034 Q844.013 67.5124 848.51 67.5124 Q854.708 67.5124 858.435 63.1374 Q862.202 58.7219 862.202 51.4303 L862.202 49.7694 L854.789 49.7694 M869.656 46.6907 L869.656 72.576 L862.202 72.576 L862.202 65.6895 Q859.65 69.8214 855.842 71.8063 Q852.034 73.7508 846.525 73.7508 Q839.557 73.7508 835.426 69.8619 Q831.334 65.9325 831.334 59.3701 Q831.334 51.7138 836.438 47.825 Q841.583 43.9361 851.751 43.9361 L862.202 43.9361 L862.202 43.2069 Q862.202 38.0623 858.799 35.2672 Q855.437 32.4315 849.32 32.4315 Q845.431 32.4315 841.745 33.3632 Q838.059 34.295 834.656 36.1584 L834.656 29.2718 Q838.747 27.692 842.596 26.9223 Q846.444 26.1121 850.09 26.1121 Q859.934 26.1121 864.795 31.2163 Q869.656 36.3204 869.656 46.6907 Z" fill="#000000" fill-rule="evenodd" fill-opacity="1" /><path clip-path="url(#clip210)" d="M911.299 34.1734 Q910.043 33.4443 908.544 33.1202 Q907.086 32.7556 905.304 32.7556 Q898.984 32.7556 895.582 36.8875 Q892.219 40.9789 892.219 48.6757 L892.219 72.576 L884.725 72.576 L884.725 27.2059 L892.219 27.2059 L892.219 34.2544 Q894.569 30.1225 898.336 28.1376 Q902.103 26.1121 907.491 26.1121 Q908.261 26.1121 909.193 26.2337 Q910.124 26.3147 911.259 26.5172 L911.299 34.1734 Z" fill="#000000" fill-rule="evenodd" fill-opacity="1" /><path clip-path="url(#clip210)" d="M987.051 63.9476 L987.051 47.7034 L973.683 47.7034 L973.683 40.9789 L995.153 40.9789 L995.153 66.9452 Q990.413 70.3075 984.701 72.0494 Q978.99 73.7508 972.508 73.7508 Q958.33 73.7508 950.309 65.4869 Q942.329 57.1826 942.329 42.3968 Q942.329 27.5705 950.309 19.3066 Q958.33 11.0023 972.508 11.0023 Q978.422 11.0023 983.729 12.4606 Q989.076 13.9189 993.573 16.7545 L993.573 25.464 Q989.036 21.6156 983.932 19.6712 Q978.828 17.7268 973.197 17.7268 Q962.097 17.7268 956.507 23.9246 Q950.957 30.1225 950.957 42.3968 Q950.957 54.6305 956.507 60.8284 Q962.097 67.0263 973.197 67.0263 Q977.531 67.0263 980.934 66.2971 Q984.337 65.5274 987.051 63.9476 Z" fill="#000000" fill-rule="evenodd" fill-opacity="1" /><path clip-path="url(#clip210)" d="M1030.4 49.7694 Q1021.36 49.7694 1017.88 51.8354 Q1014.39 53.9013 1014.39 58.8839 Q1014.39 62.8538 1016.99 65.2034 Q1019.62 67.5124 1024.12 67.5124 Q1030.31 67.5124 1034.04 63.1374 Q1037.81 58.7219 1037.81 51.4303 L1037.81 49.7694 L1030.4 49.7694 M1045.26 46.6907 L1045.26 72.576 L1037.81 72.576 L1037.81 65.6895 Q1035.26 69.8214 1031.45 71.8063 Q1027.64 73.7508 1022.13 73.7508 Q1015.16 73.7508 1011.03 69.8619 Q1006.94 65.9325 1006.94 59.3701 Q1006.94 51.7138 1012.05 47.825 Q1017.19 43.9361 1027.36 43.9361 L1037.81 43.9361 L1037.81 43.2069 Q1037.81 38.0623 1034.41 35.2672 Q1031.04 32.4315 1024.93 32.4315 Q1021.04 32.4315 1017.35 33.3632 Q1013.67 34.295 1010.26 36.1584 L1010.26 29.2718 Q1014.35 27.692 1018.2 26.9223 Q1022.05 26.1121 1025.7 26.1121 Q1035.54 26.1121 1040.4 31.2163 Q1045.26 36.3204 1045.26 46.6907 Z" fill="#000000" fill-rule="evenodd" fill-opacity="1" /><path clip-path="url(#clip210)" d="M1059.85 54.671 L1059.85 27.2059 L1067.3 27.2059 L1067.3 54.3874 Q1067.3 60.8284 1069.81 64.0691 Q1072.32 67.2693 1077.35 67.2693 Q1083.38 67.2693 1086.87 63.421 Q1090.39 59.5726 1090.39 52.9291 L1090.39 27.2059 L1097.84 27.2059 L1097.84 72.576 L1090.39 72.576 L1090.39 65.6084 Q1087.68 69.7404 1084.07 71.7658 Q1080.51 73.7508 1075.77 73.7508 Q1067.95 73.7508 1063.9 68.8897 Q1059.85 64.0286 1059.85 54.671 M1078.6 26.1121 L1078.6 26.1121 Z" fill="#000000" fill-rule="evenodd" fill-opacity="1" /><path clip-path="url(#clip210)" d="M1142.12 28.5427 L1142.12 35.5912 Q1138.96 33.9709 1135.56 33.1607 Q1132.15 32.3505 1128.51 32.3505 Q1122.96 32.3505 1120.16 34.0519 Q1117.41 35.7533 1117.41 39.156 Q1117.41 41.7486 1119.39 43.2475 Q1121.38 44.7058 1127.37 46.0426 L1129.93 46.6097 Q1137.87 48.3111 1141.19 51.4303 Q1144.55 54.509 1144.55 60.0587 Q1144.55 66.3781 1139.53 70.0644 Q1134.54 73.7508 1125.79 73.7508 Q1122.15 73.7508 1118.18 73.0216 Q1114.25 72.3329 1109.87 70.9151 L1109.87 63.2184 Q1114.01 65.3654 1118.02 66.4591 Q1122.03 67.5124 1125.96 67.5124 Q1131.22 67.5124 1134.06 65.73 Q1136.89 63.9071 1136.89 60.6258 Q1136.89 57.5877 1134.83 55.9673 Q1132.8 54.3469 1125.88 52.8481 L1123.28 52.2405 Q1116.36 50.7821 1113.28 47.7845 Q1110.2 44.7463 1110.2 39.4801 Q1110.2 33.0797 1114.74 29.5959 Q1119.27 26.1121 1127.62 26.1121 Q1131.75 26.1121 1135.4 26.7198 Q1139.04 27.3274 1142.12 28.5427 Z" fill="#000000" fill-rule="evenodd" fill-opacity="1" /><path clip-path="url(#clip210)" d="M1185.34 28.5427 L1185.34 35.5912 Q1182.18 33.9709 1178.78 33.1607 Q1175.38 32.3505 1171.73 32.3505 Q1166.18 32.3505 1163.39 34.0519 Q1160.63 35.7533 1160.63 39.156 Q1160.63 41.7486 1162.62 43.2475 Q1164.6 44.7058 1170.6 46.0426 L1173.15 46.6097 Q1181.09 48.3111 1184.41 51.4303 Q1187.77 54.509 1187.77 60.0587 Q1187.77 66.3781 1182.75 70.0644 Q1177.77 73.7508 1169.02 73.7508 Q1165.37 73.7508 1161.4 73.0216 Q1157.47 72.3329 1153.1 70.9151 L1153.1 63.2184 Q1157.23 65.3654 1161.24 66.4591 Q1165.25 67.5124 1169.18 67.5124 Q1174.45 67.5124 1177.28 65.73 Q1180.12 63.9071 1180.12 60.6258 Q1180.12 57.5877 1178.05 55.9673 Q1176.03 54.3469 1169.1 52.8481 L1166.51 52.2405 Q1159.58 50.7821 1156.5 47.7845 Q1153.42 44.7463 1153.42 39.4801 Q1153.42 33.0797 1157.96 29.5959 Q1162.5 26.1121 1170.84 26.1121 Q1174.97 26.1121 1178.62 26.7198 Q1182.26 27.3274 1185.34 28.5427 Z" fill="#000000" fill-rule="evenodd" fill-opacity="1" /><path clip-path="url(#clip210)" d="M1199.64 27.2059 L1207.1 27.2059 L1207.1 72.576 L1199.64 72.576 L1199.64 27.2059 M1199.64 9.54393 L1207.1 9.54393 L1207.1 18.9825 L1199.64 18.9825 L1199.64 9.54393 Z" fill="#000000" fill-rule="evenodd" fill-opacity="1" /><path clip-path="url(#clip210)" d="M1243.31 49.7694 Q1234.28 49.7694 1230.79 51.8354 Q1227.31 53.9013 1227.31 58.8839 Q1227.31 62.8538 1229.9 65.2034 Q1232.54 67.5124 1237.03 67.5124 Q1243.23 67.5124 1246.96 63.1374 Q1250.72 58.7219 1250.72 51.4303 L1250.72 49.7694 L1243.31 49.7694 M1258.18 46.6907 L1258.18 72.576 L1250.72 72.576 L1250.72 65.6895 Q1248.17 69.8214 1244.36 71.8063 Q1240.56 73.7508 1235.05 73.7508 Q1228.08 73.7508 1223.95 69.8619 Q1219.86 65.9325 1219.86 59.3701 Q1219.86 51.7138 1224.96 47.825 Q1230.11 43.9361 1240.27 43.9361 L1250.72 43.9361 L1250.72 43.2069 Q1250.72 38.0623 1247.32 35.2672 Q1243.96 32.4315 1237.84 32.4315 Q1233.95 32.4315 1230.27 33.3632 Q1226.58 34.295 1223.18 36.1584 L1223.18 29.2718 Q1227.27 27.692 1231.12 26.9223 Q1234.97 26.1121 1238.61 26.1121 Q1248.46 26.1121 1253.32 31.2163 Q1258.18 36.3204 1258.18 46.6907 Z" fill="#000000" fill-rule="evenodd" fill-opacity="1" /><path clip-path="url(#clip210)" d="M1311.24 45.1919 L1311.24 72.576 L1303.79 72.576 L1303.79 45.4349 Q1303.79 38.994 1301.28 35.7938 Q1298.77 32.5936 1293.74 32.5936 Q1287.71 32.5936 1284.23 36.4419 Q1280.74 40.2903 1280.74 46.9338 L1280.74 72.576 L1273.25 72.576 L1273.25 27.2059 L1280.74 27.2059 L1280.74 34.2544 Q1283.42 30.163 1287.02 28.1376 Q1290.67 26.1121 1295.41 26.1121 Q1303.22 26.1121 1307.23 30.9732 Q1311.24 35.7938 1311.24 45.1919 Z" fill="#000000" fill-rule="evenodd" fill-opacity="1" /><path clip-path="url(#clip210)" d="M1389.06 14.0809 L1389.06 22.0612 Q1384.4 19.8332 1380.27 18.7395 Q1376.14 17.6457 1372.29 17.6457 Q1365.61 17.6457 1361.96 20.2383 Q1358.36 22.8309 1358.36 27.611 Q1358.36 31.6214 1360.75 33.6873 Q1363.18 35.7128 1369.9 36.9686 L1374.84 37.9813 Q1384 39.7232 1388.33 44.1387 Q1392.71 48.5136 1392.71 55.8863 Q1392.71 64.6767 1386.79 69.2137 Q1380.92 73.7508 1369.54 73.7508 Q1365.24 73.7508 1360.38 72.7785 Q1355.56 71.8063 1350.38 69.9024 L1350.38 61.4765 Q1355.36 64.2716 1360.14 65.6895 Q1364.92 67.1073 1369.54 67.1073 Q1376.55 67.1073 1380.35 64.3527 Q1384.16 61.598 1384.16 56.4939 Q1384.16 52.0379 1381.41 49.5264 Q1378.69 47.0148 1372.45 45.759 L1367.47 44.7868 Q1358.32 42.9639 1354.22 39.075 Q1350.13 35.1862 1350.13 28.2591 Q1350.13 20.2383 1355.76 15.6203 Q1361.44 11.0023 1371.36 11.0023 Q1375.61 11.0023 1380.03 11.7719 Q1384.44 12.5416 1389.06 14.0809 Z" fill="#000000" fill-rule="evenodd" fill-opacity="1" /><path clip-path="url(#clip210)" d="M1412.52 14.324 L1412.52 27.2059 L1427.87 27.2059 L1427.87 32.9987 L1412.52 32.9987 L1412.52 57.6282 Q1412.52 63.1779 1414.02 64.7578 Q1415.56 66.3376 1420.21 66.3376 L1427.87 66.3376 L1427.87 72.576 L1420.21 72.576 Q1411.59 72.576 1408.3 69.3758 Q1405.02 66.1351 1405.02 57.6282 L1405.02 32.9987 L1399.55 32.9987 L1399.55 27.2059 L1405.02 27.2059 L1405.02 14.324 L1412.52 14.324 Z" fill="#000000" fill-rule="evenodd" fill-opacity="1" /><path clip-path="url(#clip210)" d="M1458.29 49.7694 Q1449.26 49.7694 1445.78 51.8354 Q1442.29 53.9013 1442.29 58.8839 Q1442.29 62.8538 1444.88 65.2034 Q1447.52 67.5124 1452.01 67.5124 Q1458.21 67.5124 1461.94 63.1374 Q1465.71 58.7219 1465.71 51.4303 L1465.71 49.7694 L1458.29 49.7694 M1473.16 46.6907 L1473.16 72.576 L1465.71 72.576 L1465.71 65.6895 Q1463.15 69.8214 1459.35 71.8063 Q1455.54 73.7508 1450.03 73.7508 Q1443.06 73.7508 1438.93 69.8619 Q1434.84 65.9325 1434.84 59.3701 Q1434.84 51.7138 1439.94 47.825 Q1445.09 43.9361 1455.25 43.9361 L1465.71 43.9361 L1465.71 43.2069 Q1465.71 38.0623 1462.3 35.2672 Q1458.94 32.4315 1452.82 32.4315 Q1448.94 32.4315 1445.25 33.3632 Q1441.56 34.295 1438.16 36.1584 L1438.16 29.2718 Q1442.25 27.692 1446.1 26.9223 Q1449.95 26.1121 1453.59 26.1121 Q1463.44 26.1121 1468.3 31.2163 Q1473.16 36.3204 1473.16 46.6907 Z" fill="#000000" fill-rule="evenodd" fill-opacity="1" /><path clip-path="url(#clip210)" d="M1495.89 14.324 L1495.89 27.2059 L1511.24 27.2059 L1511.24 32.9987 L1495.89 32.9987 L1495.89 57.6282 Q1495.89 63.1779 1497.38 64.7578 Q1498.92 66.3376 1503.58 66.3376 L1511.24 66.3376 L1511.24 72.576 L1503.58 72.576 Q1494.95 72.576 1491.67 69.3758 Q1488.39 66.1351 1488.39 57.6282 L1488.39 32.9987 L1482.92 32.9987 L1482.92 27.2059 L1488.39 27.2059 L1488.39 14.324 L1495.89 14.324 Z" fill="#000000" fill-rule="evenodd" fill-opacity="1" /><path clip-path="url(#clip210)" d="M1559.85 48.0275 L1559.85 51.6733 L1525.58 51.6733 Q1526.06 59.3701 1530.2 63.421 Q1534.37 67.4314 1541.78 67.4314 Q1546.08 67.4314 1550.09 66.3781 Q1554.14 65.3249 1558.11 63.2184 L1558.11 70.267 Q1554.1 71.9684 1549.88 72.8596 Q1545.67 73.7508 1541.34 73.7508 Q1530.48 73.7508 1524.12 67.4314 Q1517.8 61.1119 1517.8 50.3365 Q1517.8 39.1965 1523.8 32.6746 Q1529.83 26.1121 1540.04 26.1121 Q1549.19 26.1121 1554.5 32.0264 Q1559.85 37.9003 1559.85 48.0275 M1552.4 45.84 Q1552.31 39.7232 1548.95 36.0774 Q1545.63 32.4315 1540.12 32.4315 Q1533.88 32.4315 1530.12 35.9558 Q1526.39 39.4801 1525.82 45.8805 L1552.4 45.84 Z" fill="#000000" fill-rule="evenodd" fill-opacity="1" /><path clip-path="url(#clip210)" d="M1635.03 14.0809 L1635.03 22.0612 Q1630.38 19.8332 1626.24 18.7395 Q1622.11 17.6457 1618.26 17.6457 Q1611.58 17.6457 1607.93 20.2383 Q1604.33 22.8309 1604.33 27.611 Q1604.33 31.6214 1606.72 33.6873 Q1609.15 35.7128 1615.87 36.9686 L1620.81 37.9813 Q1629.97 39.7232 1634.3 44.1387 Q1638.68 48.5136 1638.68 55.8863 Q1638.68 64.6767 1632.77 69.2137 Q1626.89 73.7508 1615.51 73.7508 Q1611.21 73.7508 1606.35 72.7785 Q1601.53 71.8063 1596.35 69.9024 L1596.35 61.4765 Q1601.33 64.2716 1606.11 65.6895 Q1610.89 67.1073 1615.51 67.1073 Q1622.52 67.1073 1626.32 64.3527 Q1630.13 61.598 1630.13 56.4939 Q1630.13 52.0379 1627.38 49.5264 Q1624.66 47.0148 1618.42 45.759 L1613.44 44.7868 Q1604.29 42.9639 1600.2 39.075 Q1596.1 35.1862 1596.1 28.2591 Q1596.1 20.2383 1601.74 15.6203 Q1607.41 11.0023 1617.33 11.0023 Q1621.58 11.0023 1626 11.7719 Q1630.42 12.5416 1635.03 14.0809 Z" fill="#000000" fill-rule="evenodd" fill-opacity="1" /><path clip-path="url(#clip210)" d="M1658.33 65.7705 L1658.33 89.8329 L1650.83 89.8329 L1650.83 27.2059 L1658.33 27.2059 L1658.33 34.0924 Q1660.68 30.0415 1664.24 28.0971 Q1667.85 26.1121 1672.83 26.1121 Q1681.09 26.1121 1686.24 32.6746 Q1691.42 39.2371 1691.42 49.9314 Q1691.42 60.6258 1686.24 67.1883 Q1681.09 73.7508 1672.83 73.7508 Q1667.85 73.7508 1664.24 71.8063 Q1660.68 69.8214 1658.33 65.7705 M1683.68 49.9314 Q1683.68 41.7081 1680.28 37.0496 Q1676.92 32.3505 1671.01 32.3505 Q1665.09 32.3505 1661.69 37.0496 Q1658.33 41.7081 1658.33 49.9314 Q1658.33 58.1548 1661.69 62.8538 Q1665.09 67.5124 1671.01 67.5124 Q1676.92 67.5124 1680.28 62.8538 Q1683.68 58.1548 1683.68 49.9314 Z" fill="#000000" fill-rule="evenodd" fill-opacity="1" /><path clip-path="url(#clip210)" d="M1724.4 49.7694 Q1715.36 49.7694 1711.88 51.8354 Q1708.4 53.9013 1708.4 58.8839 Q1708.4 62.8538 1710.99 65.2034 Q1713.62 67.5124 1718.12 67.5124 Q1724.32 67.5124 1728.04 63.1374 Q1731.81 58.7219 1731.81 51.4303 L1731.81 49.7694 L1724.4 49.7694 M1739.26 46.6907 L1739.26 72.576 L1731.81 72.576 L1731.81 65.6895 Q1729.26 69.8214 1725.45 71.8063 Q1721.64 73.7508 1716.13 73.7508 Q1709.17 73.7508 1705.03 69.8619 Q1700.94 65.9325 1700.94 59.3701 Q1700.94 51.7138 1706.05 47.825 Q1711.19 43.9361 1721.36 43.9361 L1731.81 43.9361 L1731.81 43.2069 Q1731.81 38.0623 1728.41 35.2672 Q1725.04 32.4315 1718.93 32.4315 Q1715.04 32.4315 1711.35 33.3632 Q1707.67 34.295 1704.26 36.1584 L1704.26 29.2718 Q1708.35 27.692 1712.2 26.9223 Q1716.05 26.1121 1719.7 26.1121 Q1729.54 26.1121 1734.4 31.2163 Q1739.26 36.3204 1739.26 46.6907 Z" fill="#000000" fill-rule="evenodd" fill-opacity="1" /><path clip-path="url(#clip210)" d="M1787.27 28.9478 L1787.27 35.9153 Q1784.11 34.1734 1780.91 33.3227 Q1777.75 32.4315 1774.51 32.4315 Q1767.26 32.4315 1763.24 37.0496 Q1759.23 41.6271 1759.23 49.9314 Q1759.23 58.2358 1763.24 62.8538 Q1767.26 67.4314 1774.51 67.4314 Q1777.75 67.4314 1780.91 66.5807 Q1784.11 65.6895 1787.27 63.9476 L1787.27 70.8341 Q1784.15 72.2924 1780.79 73.0216 Q1777.46 73.7508 1773.7 73.7508 Q1763.45 73.7508 1757.41 67.3098 Q1751.38 60.8689 1751.38 49.9314 Q1751.38 38.832 1757.45 32.472 Q1763.57 26.1121 1774.18 26.1121 Q1777.63 26.1121 1780.91 26.8413 Q1784.19 27.5299 1787.27 28.9478 Z" fill="#000000" fill-rule="evenodd" fill-opacity="1" /><path clip-path="url(#clip210)" d="M1839.04 48.0275 L1839.04 51.6733 L1804.77 51.6733 Q1805.25 59.3701 1809.38 63.421 Q1813.56 67.4314 1820.97 67.4314 Q1825.26 67.4314 1829.27 66.3781 Q1833.33 65.3249 1837.3 63.2184 L1837.3 70.267 Q1833.28 71.9684 1829.07 72.8596 Q1824.86 73.7508 1820.52 73.7508 Q1809.67 73.7508 1803.31 67.4314 Q1796.99 61.1119 1796.99 50.3365 Q1796.99 39.1965 1802.98 32.6746 Q1809.02 26.1121 1819.23 26.1121 Q1828.38 26.1121 1833.69 32.0264 Q1839.04 37.9003 1839.04 48.0275 M1831.58 45.84 Q1831.5 39.7232 1828.14 36.0774 Q1824.82 32.4315 1819.31 32.4315 Q1813.07 32.4315 1809.3 35.9558 Q1805.58 39.4801 1805.01 45.8805 L1831.58 45.84 Z" fill="#000000" fill-rule="evenodd" fill-opacity="1" /><path clip-path="url(#clip210)" d="M1877.97 12.096 L1890.16 12.096 L1905.59 53.2532 L1921.11 12.096 L1933.3 12.096 L1933.3 72.576 L1925.32 72.576 L1925.32 19.4686 L1909.73 60.9499 L1901.5 60.9499 L1885.91 19.4686 L1885.91 72.576 L1877.97 72.576 L1877.97 12.096 Z" fill="#000000" fill-rule="evenodd" fill-opacity="1" /><path clip-path="url(#clip210)" d="M1966.8 32.4315 Q1960.81 32.4315 1957.32 37.1306 Q1953.84 41.7891 1953.84 49.9314 Q1953.84 58.0738 1957.28 62.7728 Q1960.77 67.4314 1966.8 67.4314 Q1972.76 67.4314 1976.24 62.7323 Q1979.73 58.0333 1979.73 49.9314 Q1979.73 41.8701 1976.24 37.1711 Q1972.76 32.4315 1966.8 32.4315 M1966.8 26.1121 Q1976.52 26.1121 1982.07 32.4315 Q1987.62 38.7509 1987.62 49.9314 Q1987.62 61.0714 1982.07 67.4314 Q1976.52 73.7508 1966.8 73.7508 Q1957.04 73.7508 1951.49 67.4314 Q1945.98 61.0714 1945.98 49.9314 Q1945.98 38.7509 1951.49 32.4315 Q1957.04 26.1121 1966.8 26.1121 Z" fill="#000000" fill-rule="evenodd" fill-opacity="1" /><path clip-path="url(#clip210)" d="M2029.83 34.0924 L2029.83 9.54393 L2037.29 9.54393 L2037.29 72.576 L2029.83 72.576 L2029.83 65.7705 Q2027.49 69.8214 2023.88 71.8063 Q2020.32 73.7508 2015.29 73.7508 Q2007.07 73.7508 2001.88 67.1883 Q1996.74 60.6258 1996.74 49.9314 Q1996.74 39.2371 2001.88 32.6746 Q2007.07 26.1121 2015.29 26.1121 Q2020.32 26.1121 2023.88 28.0971 Q2027.49 30.0415 2029.83 34.0924 M2004.44 49.9314 Q2004.44 58.1548 2007.8 62.8538 Q2011.2 67.5124 2017.11 67.5124 Q2023.03 67.5124 2026.43 62.8538 Q2029.83 58.1548 2029.83 49.9314 Q2029.83 41.7081 2026.43 37.0496 Q2023.03 32.3505 2017.11 32.3505 Q2011.2 32.3505 2007.8 37.0496 Q2004.44 41.7081 2004.44 49.9314 Z" fill="#000000" fill-rule="evenodd" fill-opacity="1" /><path clip-path="url(#clip210)" d="M2091.45 48.0275 L2091.45 51.6733 L2057.18 51.6733 Q2057.66 59.3701 2061.8 63.421 Q2065.97 67.4314 2073.38 67.4314 Q2077.68 67.4314 2081.69 66.3781 Q2085.74 65.3249 2089.71 63.2184 L2089.71 70.267 Q2085.7 71.9684 2081.48 72.8596 Q2077.27 73.7508 2072.94 73.7508 Q2062.08 73.7508 2055.72 67.4314 Q2049.4 61.1119 2049.4 50.3365 Q2049.4 39.1965 2055.4 32.6746 Q2061.43 26.1121 2071.64 26.1121 Q2080.8 26.1121 2086.1 32.0264 Q2091.45 37.9003 2091.45 48.0275 M2084 45.84 Q2083.91 39.7232 2080.55 36.0774 Q2077.23 32.4315 2071.72 32.4315 Q2065.48 32.4315 2061.72 35.9558 Q2057.99 39.4801 2057.42 45.8805 L2084 45.84 Z" fill="#000000" fill-rule="evenodd" fill-opacity="1" /><path clip-path="url(#clip210)" d="M2103.68 9.54393 L2111.14 9.54393 L2111.14 72.576 L2103.68 72.576 L2103.68 9.54393 Z" fill="#000000" fill-rule="evenodd" fill-opacity="1" /><polyline clip-path="url(#clip212)" style="stroke:#009af9; stroke-linecap:butt; stroke-linejoin:round; stroke-width:4; stroke-opacity:1; fill:none" points="
  286.004,1381.38 506.832,1297.51 798.752,1186.74 1019.58,1102.12 1240.41,1018.18 1461.24,932.188 1753.16,817.375 1973.99,731.2 2103.16,682.203 2194.81,643.462 
  2265.91,614.838 2486.73,512.164 
  "/>
<path clip-path="url(#clip212)" d="M286.004 1365.38 L270.004 1397.38 L302.004 1397.38 L286.004 1365.38 Z" fill="#009af9" fill-rule="evenodd" fill-opacity="1" stroke="#000000" stroke-opacity="1" stroke-width="3.2"/>
<path clip-path="url(#clip212)" d="M506.832 1281.51 L490.832 1313.51 L522.832 1313.51 L506.832 1281.51 Z" fill="#009af9" fill-rule="evenodd" fill-opacity="1" stroke="#000000" stroke-opacity="1" stroke-width="3.2"/>
<path clip-path="url(#clip212)" d="M798.752 1170.74 L782.752 1202.74 L814.752 1202.74 L798.752 1170.74 Z" fill="#009af9" fill-rule="evenodd" fill-opacity="1" stroke="#000000" stroke-opacity="1" stroke-width="3.2"/>
<path clip-path="url(#clip212)" d="M1019.58 1086.12 L1003.58 1118.12 L1035.58 1118.12 L1019.58 1086.12 Z" fill="#009af9" fill-rule="evenodd" fill-opacity="1" stroke="#000000" stroke-opacity="1" stroke-width="3.2"/>
<path clip-path="url(#clip212)" d="M1240.41 1002.18 L1224.41 1034.18 L1256.41 1034.18 L1240.41 1002.18 Z" fill="#009af9" fill-rule="evenodd" fill-opacity="1" stroke="#000000" stroke-opacity="1" stroke-width="3.2"/>
<path clip-path="url(#clip212)" d="M1461.24 916.188 L1445.24 948.188 L1477.24 948.188 L1461.24 916.188 Z" fill="#009af9" fill-rule="evenodd" fill-opacity="1" stroke="#000000" stroke-opacity="1" stroke-width="3.2"/>
<path clip-path="url(#clip212)" d="M1753.16 801.375 L1737.16 833.375 L1769.16 833.375 L1753.16 801.375 Z" fill="#009af9" fill-rule="evenodd" fill-opacity="1" stroke="#000000" stroke-opacity="1" stroke-width="3.2"/>
<path clip-path="url(#clip212)" d="M1973.99 715.2 L1957.99 747.2 L1989.99 747.2 L1973.99 715.2 Z" fill="#009af9" fill-rule="evenodd" fill-opacity="1" stroke="#000000" stroke-opacity="1" stroke-width="3.2"/>
<path clip-path="url(#clip212)" d="M2103.16 666.203 L2087.16 698.203 L2119.16 698.203 L2103.16 666.203 Z" fill="#009af9" fill-rule="evenodd" fill-opacity="1" stroke="#000000" stroke-opacity="1" stroke-width="3.2"/>
<path clip-path="url(#clip212)" d="M2194.81 627.462 L2178.81 659.462 L2210.81 659.462 L2194.81 627.462 Z" fill="#009af9" fill-rule="evenodd" fill-opacity="1" stroke="#000000" stroke-opacity="1" stroke-width="3.2"/>
<path clip-path="url(#clip212)" d="M2265.91 598.838 L2249.91 630.838 L2281.91 630.838 L2265.91 598.838 Z" fill="#009af9" fill-rule="evenodd" fill-opacity="1" stroke="#000000" stroke-opacity="1" stroke-width="3.2"/>
<path clip-path="url(#clip212)" d="M2486.73 496.164 L2470.73 528.164 L2502.73 528.164 L2486.73 496.164 Z" fill="#009af9" fill-rule="evenodd" fill-opacity="1" stroke="#000000" stroke-opacity="1" stroke-width="3.2"/>
<polyline clip-path="url(#clip212)" style="stroke:#e26f46; stroke-linecap:butt; stroke-linejoin:round; stroke-width:4; stroke-opacity:1; fill:none" points="
  286.004,1251.77 506.832,1166.95 798.752,1061.77 1019.58,1004.45 1240.41,916.327 1461.24,835.676 1753.16,722.061 1973.99,638.001 2103.16,587.229 2194.81,537.021 
  2265.91,510.463 2486.73,423.539 
  "/>
<path clip-path="url(#clip212)" d="M286.004 1235.77 L270.004 1267.77 L302.004 1267.77 L286.004 1235.77 Z" fill="#e26f46" fill-rule="evenodd" fill-opacity="1" stroke="#000000" stroke-opacity="1" stroke-width="3.2"/>
<path clip-path="url(#clip212)" d="M506.832 1150.95 L490.832 1182.95 L522.832 1182.95 L506.832 1150.95 Z" fill="#e26f46" fill-rule="evenodd" fill-opacity="1" stroke="#000000" stroke-opacity="1" stroke-width="3.2"/>
<path clip-path="url(#clip212)" d="M798.752 1045.77 L782.752 1077.77 L814.752 1077.77 L798.752 1045.77 Z" fill="#e26f46" fill-rule="evenodd" fill-opacity="1" stroke="#000000" stroke-opacity="1" stroke-width="3.2"/>
<path clip-path="url(#clip212)" d="M1019.58 988.454 L1003.58 1020.45 L1035.58 1020.45 L1019.58 988.454 Z" fill="#e26f46" fill-rule="evenodd" fill-opacity="1" stroke="#000000" stroke-opacity="1" stroke-width="3.2"/>
<path clip-path="url(#clip212)" d="M1240.41 900.327 L1224.41 932.327 L1256.41 932.327 L1240.41 900.327 Z" fill="#e26f46" fill-rule="evenodd" fill-opacity="1" stroke="#000000" stroke-opacity="1" stroke-width="3.2"/>
<path clip-path="url(#clip212)" d="M1461.24 819.676 L1445.24 851.676 L1477.24 851.676 L1461.24 819.676 Z" fill="#e26f46" fill-rule="evenodd" fill-opacity="1" stroke="#000000" stroke-opacity="1" stroke-width="3.2"/>
<path clip-path="url(#clip212)" d="M1753.16 706.061 L1737.16 738.061 L1769.16 738.061 L1753.16 706.061 Z" fill="#e26f46" fill-rule="evenodd" fill-opacity="1" stroke="#000000" stroke-opacity="1" stroke-width="3.2"/>
<path clip-path="url(#clip212)" d="M1973.99 622.001 L1957.99 654.001 L1989.99 654.001 L1973.99 622.001 Z" fill="#e26f46" fill-rule="evenodd" fill-opacity="1" stroke="#000000" stroke-opacity="1" stroke-width="3.2"/>
<path clip-path="url(#clip212)" d="M2103.16 571.229 L2087.16 603.229 L2119.16 603.229 L2103.16 571.229 Z" fill="#e26f46" fill-rule="evenodd" fill-opacity="1" stroke="#000000" stroke-opacity="1" stroke-width="3.2"/>
<path clip-path="url(#clip212)" d="M2194.81 521.021 L2178.81 553.021 L2210.81 553.021 L2194.81 521.021 Z" fill="#e26f46" fill-rule="evenodd" fill-opacity="1" stroke="#000000" stroke-opacity="1" stroke-width="3.2"/>
<path clip-path="url(#clip212)" d="M2265.91 494.463 L2249.91 526.463 L2281.91 526.463 L2265.91 494.463 Z" fill="#e26f46" fill-rule="evenodd" fill-opacity="1" stroke="#000000" stroke-opacity="1" stroke-width="3.2"/>
<path clip-path="url(#clip212)" d="M2486.73 407.539 L2470.73 439.539 L2502.73 439.539 L2486.73 407.539 Z" fill="#e26f46" fill-rule="evenodd" fill-opacity="1" stroke="#000000" stroke-opacity="1" stroke-width="3.2"/>
<polyline clip-path="url(#clip212)" style="stroke:#3da44d; stroke-linecap:butt; stroke-linejoin:round; stroke-width:4; stroke-opacity:1; fill:none" points="
  286.004,917.38 506.832,834.896 798.752,722.526 1019.58,635.126 1240.41,614.19 1461.24,555.824 1753.16,437.74 1973.99,343.064 2103.16,302.74 2194.81,268.002 
  2265.91,237.338 2486.73,155.593 
  "/>
<path clip-path="url(#clip212)" d="M286.004 901.38 L270.004 917.38 L286.004 933.38 L302.004 917.38 L286.004 901.38 Z" fill="#3da44d" fill-rule="evenodd" fill-opacity="1" stroke="#000000" stroke-opacity="1" stroke-width="3.2"/>
<path clip-path="url(#clip212)" d="M506.832 818.896 L490.832 834.896 L506.832 850.896 L522.832 834.896 L506.832 818.896 Z" fill="#3da44d" fill-rule="evenodd" fill-opacity="1" stroke="#000000" stroke-opacity="1" stroke-width="3.2"/>
<path clip-path="url(#clip212)" d="M798.752 706.526 L782.752 722.526 L798.752 738.526 L814.752 722.526 L798.752 706.526 Z" fill="#3da44d" fill-rule="evenodd" fill-opacity="1" stroke="#000000" stroke-opacity="1" stroke-width="3.2"/>
<path clip-path="url(#clip212)" d="M1019.58 619.126 L1003.58 635.126 L1019.58 651.126 L1035.58 635.126 L1019.58 619.126 Z" fill="#3da44d" fill-rule="evenodd" fill-opacity="1" stroke="#000000" stroke-opacity="1" stroke-width="3.2"/>
<path clip-path="url(#clip212)" d="M1240.41 598.19 L1224.41 614.19 L1240.41 630.19 L1256.41 614.19 L1240.41 598.19 Z" fill="#3da44d" fill-rule="evenodd" fill-opacity="1" stroke="#000000" stroke-opacity="1" stroke-width="3.2"/>
<path clip-path="url(#clip212)" d="M1461.24 539.824 L1445.24 555.824 L1461.24 571.824 L1477.24 555.824 L1461.24 539.824 Z" fill="#3da44d" fill-rule="evenodd" fill-opacity="1" stroke="#000000" stroke-opacity="1" stroke-width="3.2"/>
<path clip-path="url(#clip212)" d="M1753.16 421.74 L1737.16 437.74 L1753.16 453.74 L1769.16 437.74 L1753.16 421.74 Z" fill="#3da44d" fill-rule="evenodd" fill-opacity="1" stroke="#000000" stroke-opacity="1" stroke-width="3.2"/>
<path clip-path="url(#clip212)" d="M1973.99 327.064 L1957.99 343.064 L1973.99 359.064 L1989.99 343.064 L1973.99 327.064 Z" fill="#3da44d" fill-rule="evenodd" fill-opacity="1" stroke="#000000" stroke-opacity="1" stroke-width="3.2"/>
<path clip-path="url(#clip212)" d="M2103.16 286.74 L2087.16 302.74 L2103.16 318.74 L2119.16 302.74 L2103.16 286.74 Z" fill="#3da44d" fill-rule="evenodd" fill-opacity="1" stroke="#000000" stroke-opacity="1" stroke-width="3.2"/>
<path clip-path="url(#clip212)" d="M2194.81 252.002 L2178.81 268.002 L2194.81 284.002 L2210.81 268.002 L2194.81 252.002 Z" fill="#3da44d" fill-rule="evenodd" fill-opacity="1" stroke="#000000" stroke-opacity="1" stroke-width="3.2"/>
<path clip-path="url(#clip212)" d="M2265.91 221.338 L2249.91 237.338 L2265.91 253.338 L2281.91 237.338 L2265.91 221.338 Z" fill="#3da44d" fill-rule="evenodd" fill-opacity="1" stroke="#000000" stroke-opacity="1" stroke-width="3.2"/>
<path clip-path="url(#clip212)" d="M2486.73 139.593 L2470.73 155.593 L2486.73 171.593 L2502.73 155.593 L2486.73 139.593 Z" fill="#3da44d" fill-rule="evenodd" fill-opacity="1" stroke="#000000" stroke-opacity="1" stroke-width="3.2"/>
<path clip-path="url(#clip210)" d="
M1948.51 1374.84 L2475 1374.84 L2475 1167.48 L1948.51 1167.48  Z
  " fill="#ffffff" fill-rule="evenodd" fill-opacity="1"/>
<polyline clip-path="url(#clip210)" style="stroke:#000000; stroke-linecap:butt; stroke-linejoin:round; stroke-width:4; stroke-opacity:1; fill:none" points="
  1948.51,1374.84 2475,1374.84 2475,1167.48 1948.51,1167.48 1948.51,1374.84 
  "/>
<polyline clip-path="url(#clip210)" style="stroke:#009af9; stroke-linecap:butt; stroke-linejoin:round; stroke-width:4; stroke-opacity:1; fill:none" points="
  1974.43,1219.32 2129.95,1219.32 
  "/>
<path clip-path="url(#clip210)" d="M2052.19 1193.72 L2026.59 1244.92 L2077.79 1244.92 L2052.19 1193.72 Z" fill="#009af9" fill-rule="evenodd" fill-opacity="1" stroke="#000000" stroke-opacity="1" stroke-width="5.12"/>
<path clip-path="url(#clip210)" d="M2155.87 1202.04 L2160.54 1202.04 L2160.54 1216.65 L2176.05 1202.04 L2182.07 1202.04 L2164.92 1218.16 L2183.3 1236.6 L2177.14 1236.6 L2160.54 1219.96 L2160.54 1236.6 L2155.87 1236.6 L2155.87 1202.04 Z" fill="#000000" fill-rule="evenodd" fill-opacity="1" /><path clip-path="url(#clip210)" d="M2197.72 1223.57 Q2192.56 1223.57 2190.57 1224.75 Q2188.58 1225.93 2188.58 1228.78 Q2188.58 1231.05 2190.06 1232.39 Q2191.56 1233.71 2194.13 1233.71 Q2197.67 1233.71 2199.8 1231.21 Q2201.95 1228.69 2201.95 1224.52 L2201.95 1223.57 L2197.72 1223.57 M2206.21 1221.81 L2206.21 1236.6 L2201.95 1236.6 L2201.95 1232.67 Q2200.5 1235.03 2198.32 1236.16 Q2196.14 1237.28 2193 1237.28 Q2189.02 1237.28 2186.65 1235.05 Q2184.32 1232.81 2184.32 1229.06 Q2184.32 1224.68 2187.23 1222.46 Q2190.17 1220.24 2195.98 1220.24 L2201.95 1220.24 L2201.95 1219.82 Q2201.95 1216.88 2200.01 1215.28 Q2198.09 1213.66 2194.59 1213.66 Q2192.37 1213.66 2190.27 1214.2 Q2188.16 1214.73 2186.21 1215.79 L2186.21 1211.86 Q2188.55 1210.96 2190.75 1210.52 Q2192.95 1210.05 2195.03 1210.05 Q2200.66 1210.05 2203.44 1212.97 Q2206.21 1215.89 2206.21 1221.81 Z" fill="#000000" fill-rule="evenodd" fill-opacity="1" /><path clip-path="url(#clip210)" d="M2214.99 1200.59 L2219.25 1200.59 L2219.25 1236.6 L2214.99 1236.6 L2214.99 1200.59 Z" fill="#000000" fill-rule="evenodd" fill-opacity="1" /><path clip-path="url(#clip210)" d="M2248.34 1215.66 Q2249.94 1212.78 2252.16 1211.42 Q2254.39 1210.05 2257.39 1210.05 Q2261.45 1210.05 2263.64 1212.9 Q2265.84 1215.72 2265.84 1220.96 L2265.84 1236.6 L2261.56 1236.6 L2261.56 1221.09 Q2261.56 1217.37 2260.24 1215.56 Q2258.92 1213.76 2256.21 1213.76 Q2252.9 1213.76 2250.98 1215.96 Q2249.06 1218.16 2249.06 1221.95 L2249.06 1236.6 L2244.78 1236.6 L2244.78 1221.09 Q2244.78 1217.35 2243.46 1215.56 Q2242.14 1213.76 2239.39 1213.76 Q2236.12 1213.76 2234.2 1215.98 Q2232.28 1218.18 2232.28 1221.95 L2232.28 1236.6 L2228 1236.6 L2228 1210.68 L2232.28 1210.68 L2232.28 1214.71 Q2233.74 1212.32 2235.77 1211.19 Q2237.81 1210.05 2240.61 1210.05 Q2243.44 1210.05 2245.4 1211.49 Q2247.39 1212.92 2248.34 1215.66 Z" fill="#000000" fill-rule="evenodd" fill-opacity="1" /><path clip-path="url(#clip210)" d="M2286.12 1223.57 Q2280.96 1223.57 2278.97 1224.75 Q2276.98 1225.93 2276.98 1228.78 Q2276.98 1231.05 2278.46 1232.39 Q2279.96 1233.71 2282.53 1233.71 Q2286.07 1233.71 2288.2 1231.21 Q2290.36 1228.69 2290.36 1224.52 L2290.36 1223.57 L2286.12 1223.57 M2294.62 1221.81 L2294.62 1236.6 L2290.36 1236.6 L2290.36 1232.67 Q2288.9 1235.03 2286.72 1236.16 Q2284.55 1237.28 2281.4 1237.28 Q2277.42 1237.28 2275.06 1235.05 Q2272.72 1232.81 2272.72 1229.06 Q2272.72 1224.68 2275.63 1222.46 Q2278.57 1220.24 2284.38 1220.24 L2290.36 1220.24 L2290.36 1219.82 Q2290.36 1216.88 2288.41 1215.28 Q2286.49 1213.66 2283 1213.66 Q2280.77 1213.66 2278.67 1214.2 Q2276.56 1214.73 2274.62 1215.79 L2274.62 1211.86 Q2276.95 1210.96 2279.15 1210.52 Q2281.35 1210.05 2283.44 1210.05 Q2289.06 1210.05 2291.84 1212.97 Q2294.62 1215.89 2294.62 1221.81 Z" fill="#000000" fill-rule="evenodd" fill-opacity="1" /><path clip-path="url(#clip210)" d="M2324.94 1220.96 L2324.94 1236.6 L2320.68 1236.6 L2320.68 1221.09 Q2320.68 1217.41 2319.25 1215.59 Q2317.81 1213.76 2314.94 1213.76 Q2311.49 1213.76 2309.5 1215.96 Q2307.51 1218.16 2307.51 1221.95 L2307.51 1236.6 L2303.23 1236.6 L2303.23 1210.68 L2307.51 1210.68 L2307.51 1214.71 Q2309.04 1212.37 2311.1 1211.21 Q2313.18 1210.05 2315.89 1210.05 Q2320.36 1210.05 2322.65 1212.83 Q2324.94 1215.59 2324.94 1220.96 Z" fill="#000000" fill-rule="evenodd" fill-opacity="1" /><polyline clip-path="url(#clip210)" style="stroke:#e26f46; stroke-linecap:butt; stroke-linejoin:round; stroke-width:4; stroke-opacity:1; fill:none" points="
  1974.43,1271.16 2129.95,1271.16 
  "/>
<path clip-path="url(#clip210)" d="M2052.19 1245.56 L2026.59 1296.76 L2077.79 1296.76 L2052.19 1245.56 Z" fill="#e26f46" fill-rule="evenodd" fill-opacity="1" stroke="#000000" stroke-opacity="1" stroke-width="5.12"/>
<path clip-path="url(#clip210)" d="M2172.26 1272.24 Q2173.76 1272.75 2175.17 1274.42 Q2176.61 1276.08 2178.04 1279 L2182.79 1288.44 L2177.77 1288.44 L2173.34 1279.58 Q2171.63 1276.11 2170.01 1274.97 Q2168.41 1273.84 2165.64 1273.84 L2160.54 1273.84 L2160.54 1288.44 L2155.87 1288.44 L2155.87 1253.88 L2166.42 1253.88 Q2172.35 1253.88 2175.27 1256.36 Q2178.18 1258.84 2178.18 1263.84 Q2178.18 1267.1 2176.65 1269.25 Q2175.15 1271.41 2172.26 1272.24 M2160.54 1257.73 L2160.54 1270 L2166.42 1270 Q2169.8 1270 2171.52 1268.44 Q2173.25 1266.87 2173.25 1263.84 Q2173.25 1260.81 2171.52 1259.28 Q2169.8 1257.73 2166.42 1257.73 L2160.54 1257.73 Z" fill="#000000" fill-rule="evenodd" fill-opacity="1" /><path clip-path="url(#clip210)" d="M2208.67 1274.42 L2208.67 1276.5 L2189.08 1276.5 Q2189.36 1280.9 2191.72 1283.21 Q2194.11 1285.5 2198.34 1285.5 Q2200.8 1285.5 2203.09 1284.9 Q2205.4 1284.3 2207.67 1283.1 L2207.67 1287.12 Q2205.38 1288.1 2202.97 1288.61 Q2200.57 1289.12 2198.09 1289.12 Q2191.89 1289.12 2188.25 1285.5 Q2184.64 1281.89 2184.64 1275.74 Q2184.64 1269.37 2188.07 1265.64 Q2191.52 1261.89 2197.35 1261.89 Q2202.58 1261.89 2205.61 1265.27 Q2208.67 1268.63 2208.67 1274.42 M2204.41 1273.17 Q2204.36 1269.67 2202.44 1267.59 Q2200.54 1265.5 2197.39 1265.5 Q2193.83 1265.5 2191.68 1267.52 Q2189.55 1269.53 2189.22 1273.19 L2204.41 1273.17 Z" fill="#000000" fill-rule="evenodd" fill-opacity="1" /><path clip-path="url(#clip210)" d="M2227.44 1275.41 Q2222.28 1275.41 2220.29 1276.59 Q2218.3 1277.77 2218.3 1280.62 Q2218.3 1282.89 2219.78 1284.23 Q2221.28 1285.55 2223.85 1285.55 Q2227.39 1285.55 2229.52 1283.05 Q2231.68 1280.53 2231.68 1276.36 L2231.68 1275.41 L2227.44 1275.41 M2235.94 1273.65 L2235.94 1288.44 L2231.68 1288.44 L2231.68 1284.51 Q2230.22 1286.87 2228.04 1288 Q2225.87 1289.12 2222.72 1289.12 Q2218.74 1289.12 2216.38 1286.89 Q2214.04 1284.65 2214.04 1280.9 Q2214.04 1276.52 2216.95 1274.3 Q2219.89 1272.08 2225.7 1272.08 L2231.68 1272.08 L2231.68 1271.66 Q2231.68 1268.72 2229.73 1267.12 Q2227.81 1265.5 2224.32 1265.5 Q2222.09 1265.5 2219.99 1266.04 Q2217.88 1266.57 2215.94 1267.63 L2215.94 1263.7 Q2218.27 1262.8 2220.47 1262.36 Q2222.67 1261.89 2224.76 1261.89 Q2230.38 1261.89 2233.16 1264.81 Q2235.94 1267.73 2235.94 1273.65 Z" fill="#000000" fill-rule="evenodd" fill-opacity="1" /><path clip-path="url(#clip210)" d="M2263.37 1263.51 L2263.37 1267.5 Q2261.56 1266.5 2259.73 1266.01 Q2257.93 1265.5 2256.07 1265.5 Q2251.93 1265.5 2249.64 1268.14 Q2247.35 1270.76 2247.35 1275.5 Q2247.35 1280.25 2249.64 1282.89 Q2251.93 1285.5 2256.07 1285.5 Q2257.93 1285.5 2259.73 1285.02 Q2261.56 1284.51 2263.37 1283.51 L2263.37 1287.45 Q2261.58 1288.28 2259.66 1288.7 Q2257.76 1289.12 2255.61 1289.12 Q2249.76 1289.12 2246.31 1285.43 Q2242.86 1281.75 2242.86 1275.5 Q2242.86 1269.16 2246.33 1265.53 Q2249.82 1261.89 2255.89 1261.89 Q2257.86 1261.89 2259.73 1262.31 Q2261.61 1262.7 2263.37 1263.51 Z" fill="#000000" fill-rule="evenodd" fill-opacity="1" /><path clip-path="url(#clip210)" d="M2274.99 1255.16 L2274.99 1262.52 L2283.76 1262.52 L2283.76 1265.83 L2274.99 1265.83 L2274.99 1279.9 Q2274.99 1283.07 2275.84 1283.98 Q2276.72 1284.88 2279.38 1284.88 L2283.76 1284.88 L2283.76 1288.44 L2279.38 1288.44 Q2274.45 1288.44 2272.58 1286.62 Q2270.7 1284.76 2270.7 1279.9 L2270.7 1265.83 L2267.58 1265.83 L2267.58 1262.52 L2270.7 1262.52 L2270.7 1255.16 L2274.99 1255.16 Z" fill="#000000" fill-rule="evenodd" fill-opacity="1" /><path clip-path="url(#clip210)" d="M2289.36 1262.52 L2293.62 1262.52 L2293.62 1288.44 L2289.36 1288.44 L2289.36 1262.52 M2289.36 1252.43 L2293.62 1252.43 L2293.62 1257.82 L2289.36 1257.82 L2289.36 1252.43 Z" fill="#000000" fill-rule="evenodd" fill-opacity="1" /><path clip-path="url(#clip210)" d="M2299.48 1262.52 L2303.99 1262.52 L2312.09 1284.28 L2320.19 1262.52 L2324.71 1262.52 L2314.99 1288.44 L2309.2 1288.44 L2299.48 1262.52 Z" fill="#000000" fill-rule="evenodd" fill-opacity="1" /><path clip-path="url(#clip210)" d="M2352.76 1274.42 L2352.76 1276.5 L2333.18 1276.5 Q2333.46 1280.9 2335.82 1283.21 Q2338.2 1285.5 2342.44 1285.5 Q2344.89 1285.5 2347.19 1284.9 Q2349.5 1284.3 2351.77 1283.1 L2351.77 1287.12 Q2349.48 1288.1 2347.07 1288.61 Q2344.66 1289.12 2342.19 1289.12 Q2335.98 1289.12 2332.35 1285.5 Q2328.74 1281.89 2328.74 1275.74 Q2328.74 1269.37 2332.16 1265.64 Q2335.61 1261.89 2341.44 1261.89 Q2346.68 1261.89 2349.71 1265.27 Q2352.76 1268.63 2352.76 1274.42 M2348.5 1273.17 Q2348.46 1269.67 2346.54 1267.59 Q2344.64 1265.5 2341.49 1265.5 Q2337.93 1265.5 2335.77 1267.52 Q2333.64 1269.53 2333.32 1273.19 L2348.5 1273.17 Z" fill="#000000" fill-rule="evenodd" fill-opacity="1" /><path clip-path="url(#clip210)" d="M2359.94 1253.88 L2366.91 1253.88 L2375.73 1277.4 L2384.59 1253.88 L2391.56 1253.88 L2391.56 1288.44 L2387 1288.44 L2387 1258.1 L2378.09 1281.8 L2373.39 1281.8 L2364.48 1258.1 L2364.48 1288.44 L2359.94 1288.44 L2359.94 1253.88 Z" fill="#000000" fill-rule="evenodd" fill-opacity="1" /><path clip-path="url(#clip210)" d="M2405.52 1257.73 L2405.52 1270.71 L2411.4 1270.71 Q2414.66 1270.71 2416.44 1269.02 Q2418.23 1267.33 2418.23 1264.21 Q2418.23 1261.11 2416.44 1259.42 Q2414.66 1257.73 2411.4 1257.73 L2405.52 1257.73 M2400.84 1253.88 L2411.4 1253.88 Q2417.21 1253.88 2420.17 1256.52 Q2423.16 1259.14 2423.16 1264.21 Q2423.16 1269.32 2420.17 1271.94 Q2417.21 1274.56 2411.4 1274.56 L2405.52 1274.56 L2405.52 1288.44 L2400.84 1288.44 L2400.84 1253.88 Z" fill="#000000" fill-rule="evenodd" fill-opacity="1" /><polyline clip-path="url(#clip210)" style="stroke:#3da44d; stroke-linecap:butt; stroke-linejoin:round; stroke-width:4; stroke-opacity:1; fill:none" points="
  1974.43,1323 2129.95,1323 
  "/>
<path clip-path="url(#clip210)" d="M2052.19 1297.4 L2026.59 1323 L2052.19 1348.6 L2077.79 1323 L2052.19 1297.4 Z" fill="#3da44d" fill-rule="evenodd" fill-opacity="1" stroke="#000000" stroke-opacity="1" stroke-width="5.12"/>
<path clip-path="url(#clip210)" d="M2178.11 1306.86 L2178.11 1311.42 Q2175.45 1310.15 2173.09 1309.52 Q2170.73 1308.9 2168.53 1308.9 Q2164.71 1308.9 2162.63 1310.38 Q2160.57 1311.86 2160.57 1314.59 Q2160.57 1316.88 2161.93 1318.06 Q2163.32 1319.22 2167.16 1319.94 L2169.99 1320.52 Q2175.22 1321.51 2177.7 1324.03 Q2180.2 1326.53 2180.2 1330.75 Q2180.2 1335.77 2176.82 1338.36 Q2173.46 1340.96 2166.96 1340.96 Q2164.5 1340.96 2161.72 1340.4 Q2158.97 1339.84 2156.01 1338.76 L2156.01 1333.94 Q2158.85 1335.54 2161.58 1336.35 Q2164.32 1337.16 2166.96 1337.16 Q2170.96 1337.16 2173.14 1335.59 Q2175.31 1334.01 2175.31 1331.09 Q2175.31 1328.55 2173.74 1327.11 Q2172.19 1325.68 2168.62 1324.96 L2165.77 1324.4 Q2160.54 1323.36 2158.21 1321.14 Q2155.87 1318.92 2155.87 1314.96 Q2155.87 1310.38 2159.08 1307.74 Q2162.33 1305.1 2168 1305.1 Q2170.43 1305.1 2172.95 1305.54 Q2175.47 1305.98 2178.11 1306.86 Z" fill="#000000" fill-rule="evenodd" fill-opacity="1" /><path clip-path="url(#clip210)" d="M2192.16 1323.78 L2192.16 1336.44 L2199.66 1336.44 Q2203.44 1336.44 2205.24 1334.89 Q2207.07 1333.32 2207.07 1330.1 Q2207.07 1326.86 2205.24 1325.33 Q2203.44 1323.78 2199.66 1323.78 L2192.16 1323.78 M2192.16 1309.57 L2192.16 1319.98 L2199.08 1319.98 Q2202.51 1319.98 2204.18 1318.71 Q2205.87 1317.41 2205.87 1314.78 Q2205.87 1312.16 2204.18 1310.86 Q2202.51 1309.57 2199.08 1309.57 L2192.16 1309.57 M2187.49 1305.72 L2199.43 1305.72 Q2204.78 1305.72 2207.67 1307.95 Q2210.57 1310.17 2210.57 1314.27 Q2210.57 1317.44 2209.08 1319.31 Q2207.6 1321.19 2204.73 1321.65 Q2208.18 1322.39 2210.08 1324.75 Q2212 1327.09 2212 1330.61 Q2212 1335.24 2208.85 1337.76 Q2205.7 1340.28 2199.89 1340.28 L2187.49 1340.28 L2187.49 1305.72 Z" fill="#000000" fill-rule="evenodd" fill-opacity="1" /><path clip-path="url(#clip210)" d="M2224.69 1309.57 L2224.69 1322.55 L2230.57 1322.55 Q2233.83 1322.55 2235.61 1320.86 Q2237.39 1319.17 2237.39 1316.05 Q2237.39 1312.95 2235.61 1311.26 Q2233.83 1309.57 2230.57 1309.57 L2224.69 1309.57 M2220.01 1305.72 L2230.57 1305.72 Q2236.38 1305.72 2239.34 1308.36 Q2242.32 1310.98 2242.32 1316.05 Q2242.32 1321.16 2239.34 1323.78 Q2236.38 1326.4 2230.57 1326.4 L2224.69 1326.4 L2224.69 1340.28 L2220.01 1340.28 L2220.01 1305.72 Z" fill="#000000" fill-rule="evenodd" fill-opacity="1" /></svg>
